solid ascii
  facet normal -2.076866e-002 3.898627e-004 0.000000e+000
    outer loop
      vertex   -3.252000e+002 8.175000e+001 1.180000e+001
      vertex   -3.252000e+002 8.175000e+001 8.200000e+000
      vertex   -3.252007e+002 8.171261e+001 1.000000e+001
    endloop
  endfacet
  facet normal -7.890963e-002 5.634891e-003 8.628385e-005
    outer loop
      vertex   -3.252007e+002 8.171261e+001 1.000000e+001
      vertex   -3.252000e+002 8.175000e+001 8.200000e+000
      vertex   -3.252102e+002 8.160769e+001 8.200000e+000
    endloop
  endfacet
  facet normal -9.920227e-001 1.117026e-001 -1.297105e-003
    outer loop
      vertex   -3.252007e+002 8.171261e+001 1.000000e+001
      vertex   -3.252102e+002 8.160769e+001 8.200000e+000
      vertex   -3.252174e+002 8.156409e+001 1.000000e+001
    endloop
  endfacet
  facet normal -7.731615e-002 1.682221e-002 9.551127e-005
    outer loop
      vertex   -3.252174e+002 8.156409e+001 1.000000e+001
      vertex   -3.252102e+002 8.160769e+001 8.200000e+000
      vertex   -3.252405e+002 8.146827e+001 8.200000e+000
    endloop
  endfacet
  facet normal -9.645084e-001 2.583304e-001 -1.388968e-003
    outer loop
      vertex   -3.252174e+002 8.156409e+001 1.000000e+001
      vertex   -3.252405e+002 8.146827e+001 8.200000e+000
      vertex   -3.252561e+002 8.141972e+001 1.000000e+001
    endloop
  endfacet
  facet normal -7.414182e-002 2.765614e-002 1.035485e-004
    outer loop
      vertex   -3.252561e+002 8.141972e+001 1.000000e+001
      vertex   -3.252405e+002 8.146827e+001 8.200000e+000
      vertex   -3.252904e+002 8.133459e+001 8.200000e+000
    endloop
  endfacet
  facet normal -9.153382e-001 3.994536e-001 -1.465710e-003
    outer loop
      vertex   -3.252561e+002 8.141972e+001 1.000000e+001
      vertex   -3.252904e+002 8.133459e+001 8.200000e+000
      vertex   -3.253159e+002 8.128273e+001 1.000000e+001
    endloop
  endfacet
  facet normal -6.945843e-002 3.791565e-002 1.078445e-004
    outer loop
      vertex   -3.253159e+002 8.128273e+001 1.000000e+001
      vertex   -3.252904e+002 8.133459e+001 8.200000e+000
      vertex   -3.253587e+002 8.120936e+001 8.200000e+000
    endloop
  endfacet
  facet normal -8.457435e-001 5.315024e-001 -1.533351e-003
    outer loop
      vertex   -3.253159e+002 8.128273e+001 1.000000e+001
      vertex   -3.253587e+002 8.120936e+001 8.200000e+000
      vertex   -3.253954e+002 8.115618e+001 1.000000e+001
    endloop
  endfacet
  facet normal -6.335482e-002 4.743042e-002 1.101178e-004
    outer loop
      vertex   -3.253954e+002 8.115618e+001 1.000000e+001
      vertex   -3.253587e+002 8.120936e+001 8.200000e+000
      vertex   -3.254442e+002 8.109514e+001 8.200000e+000
    endloop
  endfacet
  facet normal -7.573235e-001 6.515971e-001 -1.553674e-003
    outer loop
      vertex   -3.253954e+002 8.115618e+001 1.000000e+001
      vertex   -3.254442e+002 8.109514e+001 8.200000e+000
      vertex   -3.254929e+002 8.104289e+001 1.000000e+001
    endloop
  endfacet
  facet normal -5.596259e-002 5.596259e-002 1.119586e-004
    outer loop
      vertex   -3.254929e+002 8.104289e+001 1.000000e+001
      vertex   -3.254442e+002 8.109514e+001 8.200000e+000
      vertex   -3.255451e+002 8.099425e+001 8.200000e+000
    endloop
  endfacet
  facet normal -6.517828e-001 7.573697e-001 -1.549534e-003
    outer loop
      vertex   -3.254929e+002 8.104289e+001 1.000000e+001
      vertex   -3.255451e+002 8.099425e+001 8.200000e+000
      vertex   -3.256062e+002 8.094540e+001 1.000000e+001
    endloop
  endfacet
  facet normal -4.742619e-002 6.335905e-002 1.111142e-004
    outer loop
      vertex   -3.256062e+002 8.094540e+001 1.000000e+001
      vertex   -3.255451e+002 8.099425e+001 8.200000e+000
      vertex   -3.256594e+002 8.090874e+001 8.200000e+000
    endloop
  endfacet
  facet normal -5.316923e-001 8.461778e-001 -1.521326e-003
    outer loop
      vertex   -3.256062e+002 8.094540e+001 1.000000e+001
      vertex   -3.256594e+002 8.090874e+001 8.200000e+000
      vertex   -3.257327e+002 8.086588e+001 1.000000e+001
    endloop
  endfacet
  facet normal -3.792411e-002 6.944997e-002 1.080475e-004
    outer loop
      vertex   -3.257327e+002 8.086588e+001 1.000000e+001
      vertex   -3.256594e+002 8.090874e+001 8.200000e+000
      vertex   -3.257846e+002 8.084037e+001 8.200000e+000
    endloop
  endfacet
  facet normal -3.996809e-001 9.160926e-001 -1.471551e-003
    outer loop
      vertex   -3.257327e+002 8.086588e+001 1.000000e+001
      vertex   -3.257846e+002 8.084037e+001 8.200000e+000
      vertex   -3.258697e+002 8.080611e+001 1.000000e+001
    endloop
  endfacet
  facet normal -2.765614e-002 7.415027e-002 1.029638e-004
    outer loop
      vertex   -3.258697e+002 8.080611e+001 1.000000e+001
      vertex   -3.257846e+002 8.084037e+001 8.200000e+000
      vertex   -3.259183e+002 8.079050e+001 8.200000e+000
    endloop
  endfacet
  facet normal -2.586833e-001 9.655469e-001 -1.395537e-003
    outer loop
      vertex   -3.258697e+002 8.080611e+001 1.000000e+001
      vertex   -3.259183e+002 8.079050e+001 8.200000e+000
      vertex   -3.260141e+002 8.076743e+001 1.000000e+001
    endloop
  endfacet
  facet normal -1.681798e-002 7.730769e-002 9.555676e-005
    outer loop
      vertex   -3.260141e+002 8.076743e+001 1.000000e+001
      vertex   -3.259183e+002 8.079050e+001 8.200000e+000
      vertex   -3.260577e+002 8.076018e+001 8.200000e+000
    endloop
  endfacet
  facet normal -1.119274e-001 9.934134e-001 -1.294482e-003
    outer loop
      vertex   -3.260141e+002 8.076743e+001 1.000000e+001
      vertex   -3.260577e+002 8.076018e+001 8.200000e+000
      vertex   -3.261626e+002 8.075070e+001 1.000000e+001
    endloop
  endfacet
  facet normal -5.643350e-003 7.892229e-002 8.652639e-005
    outer loop
      vertex   -3.261626e+002 8.075070e+001 1.000000e+001
      vertex   -3.260577e+002 8.076018e+001 8.200000e+000
      vertex   -3.262000e+002 8.075000e+001 8.200000e+000
    endloop
  endfacet
  facet normal -7.795566e-004 4.155376e-002 0.000000e+000
    outer loop
      vertex   -3.261626e+002 8.075070e+001 1.000000e+001
      vertex   -3.262000e+002 8.075000e+001 8.200000e+000
      vertex   -3.262000e+002 8.075000e+001 1.180000e+001
    endloop
  endfacet
  facet normal -7.130764e-002 9.972378e-001 -1.093321e-003
    outer loop
      vertex   -3.262000e+002 8.075000e+001 1.180000e+001
      vertex   -3.260577e+002 8.076018e+001 1.180000e+001
      vertex   -3.261626e+002 8.075070e+001 1.000000e+001
    endloop
  endfacet
  facet normal -1.117699e-001 9.920151e-001 1.292660e-003
    outer loop
      vertex   -3.261626e+002 8.075070e+001 1.000000e+001
      vertex   -3.260577e+002 8.076018e+001 1.180000e+001
      vertex   -3.260141e+002 8.076743e+001 1.000000e+001
    endloop
  endfacet
  facet normal -2.125100e-001 9.768508e-001 -1.207444e-003
    outer loop
      vertex   -3.260577e+002 8.076018e+001 1.180000e+001
      vertex   -3.259183e+002 8.079050e+001 1.180000e+001
      vertex   -3.260141e+002 8.076743e+001 1.000000e+001
    endloop
  endfacet
  facet normal -2.584000e-001 9.644895e-001 1.394008e-003
    outer loop
      vertex   -3.260141e+002 8.076743e+001 1.000000e+001
      vertex   -3.259183e+002 8.079050e+001 1.180000e+001
      vertex   -3.258697e+002 8.080611e+001 1.000000e+001
    endloop
  endfacet
  facet normal -3.493186e-001 9.365758e-001 -1.300513e-003
    outer loop
      vertex   -3.259183e+002 8.079050e+001 1.180000e+001
      vertex   -3.257846e+002 8.084037e+001 1.180000e+001
      vertex   -3.258697e+002 8.080611e+001 1.000000e+001
    endloop
  endfacet
  facet normal -3.993680e-001 9.153755e-001 1.470399e-003
    outer loop
      vertex   -3.258697e+002 8.080611e+001 1.000000e+001
      vertex   -3.257846e+002 8.084037e+001 1.180000e+001
      vertex   -3.257327e+002 8.086588e+001 1.000000e+001
    endloop
  endfacet
  facet normal -4.790174e-001 8.772187e-001 -1.364742e-003
    outer loop
      vertex   -3.257846e+002 8.084037e+001 1.180000e+001
      vertex   -3.256594e+002 8.090874e+001 1.180000e+001
      vertex   -3.257327e+002 8.086588e+001 1.000000e+001
    endloop
  endfacet
  facet normal -5.314428e-001 8.457808e-001 1.520612e-003
    outer loop
      vertex   -3.257327e+002 8.086588e+001 1.000000e+001
      vertex   -3.256594e+002 8.090874e+001 1.180000e+001
      vertex   -3.256062e+002 8.094540e+001 1.000000e+001
    endloop
  endfacet
  facet normal -5.988613e-001 8.000492e-001 -1.403065e-003
    outer loop
      vertex   -3.256594e+002 8.090874e+001 1.180000e+001
      vertex   -3.255451e+002 8.099425e+001 1.180000e+001
      vertex   -3.256062e+002 8.094540e+001 1.000000e+001
    endloop
  endfacet
  facet normal -6.516808e-001 7.572513e-001 1.549292e-003
    outer loop
      vertex   -3.256062e+002 8.094540e+001 1.000000e+001
      vertex   -3.255451e+002 8.099425e+001 1.180000e+001
      vertex   -3.254929e+002 8.104289e+001 1.000000e+001
    endloop
  endfacet
  facet normal -7.065514e-001 7.065514e-001 -1.413524e-003
    outer loop
      vertex   -3.255451e+002 8.099425e+001 1.180000e+001
      vertex   -3.254442e+002 8.109514e+001 1.180000e+001
      vertex   -3.254929e+002 8.104289e+001 1.000000e+001
    endloop
  endfacet
  facet normal -7.574419e-001 6.516989e-001 1.553917e-003
    outer loop
      vertex   -3.254929e+002 8.104289e+001 1.000000e+001
      vertex   -3.254442e+002 8.109514e+001 1.180000e+001
      vertex   -3.253954e+002 8.115618e+001 1.000000e+001
    endloop
  endfacet
  facet normal -7.997656e-001 5.987425e-001 -1.390083e-003
    outer loop
      vertex   -3.254442e+002 8.109514e+001 1.180000e+001
      vertex   -3.253587e+002 8.120936e+001 1.180000e+001
      vertex   -3.253954e+002 8.115618e+001 1.000000e+001
    endloop
  endfacet
  facet normal -8.461404e-001 5.317518e-001 1.534071e-003
    outer loop
      vertex   -3.253954e+002 8.115618e+001 1.000000e+001
      vertex   -3.253587e+002 8.120936e+001 1.180000e+001
      vertex   -3.253159e+002 8.128273e+001 1.000000e+001
    endloop
  endfacet
  facet normal -8.767639e-001 4.786039e-001 -1.361305e-003
    outer loop
      vertex   -3.253587e+002 8.120936e+001 1.180000e+001
      vertex   -3.252904e+002 8.133459e+001 1.180000e+001
      vertex   -3.253159e+002 8.128273e+001 1.000000e+001
    endloop
  endfacet
  facet normal -9.160551e-001 3.997665e-001 1.466858e-003
    outer loop
      vertex   -3.253159e+002 8.128273e+001 1.000000e+001
      vertex   -3.252904e+002 8.133459e+001 1.180000e+001
      vertex   -3.252561e+002 8.141972e+001 1.000000e+001
    endloop
  endfacet
  facet normal -9.357232e-001 3.490404e-001 -1.306857e-003
    outer loop
      vertex   -3.252904e+002 8.133459e+001 1.180000e+001
      vertex   -3.252405e+002 8.146827e+001 1.180000e+001
      vertex   -3.252561e+002 8.141972e+001 1.000000e+001
    endloop
  endfacet
  facet normal -9.655657e-001 2.586136e-001 1.390490e-003
    outer loop
      vertex   -3.252561e+002 8.141972e+001 1.000000e+001
      vertex   -3.252405e+002 8.146827e+001 1.180000e+001
      vertex   -3.252174e+002 8.156409e+001 1.000000e+001
    endloop
  endfacet
  facet normal -9.756773e-001 2.122848e-001 -1.205287e-003
    outer loop
      vertex   -3.252405e+002 8.146827e+001 1.180000e+001
      vertex   -3.252102e+002 8.160769e+001 1.180000e+001
      vertex   -3.252174e+002 8.156409e+001 1.000000e+001
    endloop
  endfacet
  facet normal -9.934207e-001 1.118600e-001 1.298933e-003
    outer loop
      vertex   -3.252174e+002 8.156409e+001 1.000000e+001
      vertex   -3.252102e+002 8.160769e+001 1.180000e+001
      vertex   -3.252007e+002 8.171261e+001 1.000000e+001
    endloop
  endfacet
  facet normal -9.957562e-001 7.110637e-002 -1.088811e-003
    outer loop
      vertex   -3.252102e+002 8.160769e+001 1.180000e+001
      vertex   -3.252000e+002 8.175000e+001 1.180000e+001
      vertex   -3.252007e+002 8.171261e+001 1.000000e+001
    endloop
  endfacet
  facet normal -1.000000e+000 0.000000e+000 0.000000e+000
    outer loop
      vertex   -3.252000e+002 8.175000e+001 8.200000e+000
      vertex   -3.252000e+002 8.175000e+001 1.180000e+001
      vertex   -3.252000e+002 8.195000e+001 8.200000e+000
    endloop
  endfacet
  facet normal -5.546917e-002 0.000000e+000 0.000000e+000
    outer loop
      vertex   -3.252000e+002 8.195000e+001 8.200000e+000
      vertex   -3.252000e+002 8.175000e+001 1.180000e+001
      vertex   -3.252000e+002 8.195000e+001 1.180000e+001
    endloop
  endfacet
  facet normal -3.856249e-004 -2.078137e-002 -0.000000e+000
    outer loop
      vertex   -3.262000e+002 8.295000e+001 1.180000e+001
      vertex   -3.262000e+002 8.295000e+001 8.200000e+000
      vertex   -3.261626e+002 8.294930e+001 1.000000e+001
    endloop
  endfacet
  facet normal -5.643350e-003 -7.892229e-002 8.686091e-005
    outer loop
      vertex   -3.261626e+002 8.294930e+001 1.000000e+001
      vertex   -3.262000e+002 8.295000e+001 8.200000e+000
      vertex   -3.260577e+002 8.293982e+001 8.200000e+000
    endloop
  endfacet
  facet normal -1.118202e-001 -9.920094e-001 -1.291418e-003
    outer loop
      vertex   -3.261626e+002 8.294930e+001 1.000000e+001
      vertex   -3.260577e+002 8.293982e+001 8.200000e+000
      vertex   -3.260141e+002 8.293256e+001 1.000000e+001
    endloop
  endfacet
  facet normal -1.681798e-002 -7.730769e-002 9.555676e-005
    outer loop
      vertex   -3.260141e+002 8.293256e+001 1.000000e+001
      vertex   -3.260577e+002 8.293982e+001 8.200000e+000
      vertex   -3.259183e+002 8.290949e+001 8.200000e+000
    endloop
  endfacet
  facet normal -2.584000e-001 -9.644895e-001 -1.394008e-003
    outer loop
      vertex   -3.260141e+002 8.293256e+001 1.000000e+001
      vertex   -3.259183e+002 8.290949e+001 8.200000e+000
      vertex   -3.258697e+002 8.289388e+001 1.000000e+001
    endloop
  endfacet
  facet normal -2.765191e-002 -7.415027e-002 1.028497e-004
    outer loop
      vertex   -3.258697e+002 8.289388e+001 1.000000e+001
      vertex   -3.259183e+002 8.290949e+001 8.200000e+000
      vertex   -3.257846e+002 8.285963e+001 8.200000e+000
    endloop
  endfacet
  facet normal -3.993680e-001 -9.153755e-001 -1.474279e-003
    outer loop
      vertex   -3.258697e+002 8.289388e+001 1.000000e+001
      vertex   -3.257846e+002 8.285963e+001 8.200000e+000
      vertex   -3.257327e+002 8.283411e+001 1.000000e+001
    endloop
  endfacet
  facet normal -3.792835e-002 -6.944996e-002 1.078750e-004
    outer loop
      vertex   -3.257327e+002 8.283411e+001 1.000000e+001
      vertex   -3.257846e+002 8.285963e+001 8.200000e+000
      vertex   -3.256594e+002 8.279125e+001 8.200000e+000
    endloop
  endfacet
  facet normal -5.314063e-001 -8.458038e-001 -1.518575e-003
    outer loop
      vertex   -3.257327e+002 8.283411e+001 1.000000e+001
      vertex   -3.256594e+002 8.279125e+001 8.200000e+000
      vertex   -3.256062e+002 8.275460e+001 1.000000e+001
    endloop
  endfacet
  facet normal -4.742619e-002 -6.335904e-002 1.113828e-004
    outer loop
      vertex   -3.256062e+002 8.275460e+001 1.000000e+001
      vertex   -3.256594e+002 8.279125e+001 8.200000e+000
      vertex   -3.255451e+002 8.270575e+001 8.200000e+000
    endloop
  endfacet
  facet normal -6.517101e-001 -7.572260e-001 -1.547760e-003
    outer loop
      vertex   -3.256062e+002 8.275460e+001 1.000000e+001
      vertex   -3.255451e+002 8.270575e+001 8.200000e+000
      vertex   -3.254929e+002 8.265710e+001 1.000000e+001
    endloop
  endfacet
  facet normal -5.596259e-002 -5.596259e-002 1.119586e-004
    outer loop
      vertex   -3.254929e+002 8.265710e+001 1.000000e+001
      vertex   -3.255451e+002 8.270575e+001 8.200000e+000
      vertex   -3.254442e+002 8.260486e+001 8.200000e+000
    endloop
  endfacet
  facet normal -7.574202e-001 -6.517242e-001 -1.552599e-003
    outer loop
      vertex   -3.254929e+002 8.265710e+001 1.000000e+001
      vertex   -3.254442e+002 8.260486e+001 8.200000e+000
      vertex   -3.253954e+002 8.254382e+001 1.000000e+001
    endloop
  endfacet
  facet normal -6.335482e-002 -4.743042e-002 1.103189e-004
    outer loop
      vertex   -3.253954e+002 8.254382e+001 1.000000e+001
      vertex   -3.254442e+002 8.260486e+001 8.200000e+000
      vertex   -3.253587e+002 8.249064e+001 8.200000e+000
    endloop
  endfacet
  facet normal -8.461547e-001 -5.317288e-001 -1.532790e-003
    outer loop
      vertex   -3.253954e+002 8.254382e+001 1.000000e+001
      vertex   -3.253587e+002 8.249064e+001 8.200000e+000
      vertex   -3.253159e+002 8.241727e+001 1.000000e+001
    endloop
  endfacet
  facet normal -6.945420e-002 -3.791565e-002 1.077437e-004
    outer loop
      vertex   -3.253159e+002 8.241727e+001 1.000000e+001
      vertex   -3.253587e+002 8.249064e+001 8.200000e+000
      vertex   -3.252904e+002 8.236542e+001 8.200000e+000
    endloop
  endfacet
  facet normal -9.160470e-001 -3.997853e-001 -1.467898e-003
    outer loop
      vertex   -3.253159e+002 8.241727e+001 1.000000e+001
      vertex   -3.252904e+002 8.236542e+001 8.200000e+000
      vertex   -3.252561e+002 8.228028e+001 1.000000e+001
    endloop
  endfacet
  facet normal -7.414182e-002 -2.765614e-002 1.035485e-004
    outer loop
      vertex   -3.252561e+002 8.228028e+001 1.000000e+001
      vertex   -3.252904e+002 8.236542e+001 8.200000e+000
      vertex   -3.252405e+002 8.223174e+001 8.200000e+000
    endloop
  endfacet
  facet normal -9.655691e-001 -2.586009e-001 -1.390864e-003
    outer loop
      vertex   -3.252561e+002 8.228028e+001 1.000000e+001
      vertex   -3.252405e+002 8.223174e+001 8.200000e+000
      vertex   -3.252174e+002 8.213591e+001 1.000000e+001
    endloop
  endfacet
  facet normal -7.731614e-002 -1.682220e-002 9.543996e-005
    outer loop
      vertex   -3.252174e+002 8.213591e+001 1.000000e+001
      vertex   -3.252405e+002 8.223174e+001 8.200000e+000
      vertex   -3.252102e+002 8.209232e+001 8.200000e+000
    endloop
  endfacet
  facet normal -9.934208e-001 -1.118600e-001 -1.299407e-003
    outer loop
      vertex   -3.252174e+002 8.213591e+001 1.000000e+001
      vertex   -3.252102e+002 8.209232e+001 8.200000e+000
      vertex   -3.252007e+002 8.198739e+001 1.000000e+001
    endloop
  endfacet
  facet normal -7.891384e-002 -5.634890e-003 8.628218e-005
    outer loop
      vertex   -3.252007e+002 8.198739e+001 1.000000e+001
      vertex   -3.252102e+002 8.209232e+001 8.200000e+000
      vertex   -3.252000e+002 8.195000e+001 8.200000e+000
    endloop
  endfacet
  facet normal -4.152836e-002 -7.795570e-004 0.000000e+000
    outer loop
      vertex   -3.252007e+002 8.198739e+001 1.000000e+001
      vertex   -3.252000e+002 8.195000e+001 8.200000e+000
      vertex   -3.252000e+002 8.195000e+001 1.180000e+001
    endloop
  endfacet
  facet normal -9.972451e-001 -7.120888e-002 -1.090360e-003
    outer loop
      vertex   -3.252000e+002 8.195000e+001 1.180000e+001
      vertex   -3.252102e+002 8.209232e+001 1.180000e+001
      vertex   -3.252007e+002 8.198739e+001 1.000000e+001
    endloop
  endfacet
  facet normal -9.920225e-001 -1.117025e-001 1.297578e-003
    outer loop
      vertex   -3.252007e+002 8.198739e+001 1.000000e+001
      vertex   -3.252102e+002 8.209232e+001 1.180000e+001
      vertex   -3.252174e+002 8.213591e+001 1.000000e+001
    endloop
  endfacet
  facet normal -9.768443e-001 -2.125387e-001 -1.205828e-003
    outer loop
      vertex   -3.252102e+002 8.209232e+001 1.180000e+001
      vertex   -3.252405e+002 8.223174e+001 1.180000e+001
      vertex   -3.252174e+002 8.213591e+001 1.000000e+001
    endloop
  endfacet
  facet normal -9.645116e-001 -2.583176e-001 1.389340e-003
    outer loop
      vertex   -3.252174e+002 8.213591e+001 1.000000e+001
      vertex   -3.252405e+002 8.223174e+001 1.180000e+001
      vertex   -3.252561e+002 8.228028e+001 1.000000e+001
    endloop
  endfacet
  facet normal -9.365630e-001 -3.493537e-001 -1.308029e-003
    outer loop
      vertex   -3.252405e+002 8.223174e+001 1.180000e+001
      vertex   -3.252904e+002 8.236542e+001 1.180000e+001
      vertex   -3.252561e+002 8.228028e+001 1.000000e+001
    endloop
  endfacet
  facet normal -9.153300e-001 -3.994723e-001 1.466749e-003
    outer loop
      vertex   -3.252561e+002 8.228028e+001 1.000000e+001
      vertex   -3.252904e+002 8.236542e+001 1.180000e+001
      vertex   -3.253159e+002 8.241727e+001 1.000000e+001
    endloop
  endfacet
  facet normal -8.772760e-001 -4.789126e-001 -1.360911e-003
    outer loop
      vertex   -3.252904e+002 8.236542e+001 1.180000e+001
      vertex   -3.253587e+002 8.249064e+001 1.180000e+001
      vertex   -3.253159e+002 8.241727e+001 1.000000e+001
    endloop
  endfacet
  facet normal -8.457579e-001 -5.314794e-001 1.532072e-003
    outer loop
      vertex   -3.253159e+002 8.241727e+001 1.000000e+001
      vertex   -3.253587e+002 8.249064e+001 1.180000e+001
      vertex   -3.253954e+002 8.254382e+001 1.000000e+001
    endloop
  endfacet
  facet normal -8.000043e-001 -5.989211e-001 -1.393036e-003
    outer loop
      vertex   -3.253587e+002 8.249064e+001 1.180000e+001
      vertex   -3.254442e+002 8.260486e+001 1.180000e+001
      vertex   -3.253954e+002 8.254382e+001 1.000000e+001
    endloop
  endfacet
  facet normal -7.573019e-001 -6.516224e-001 1.552356e-003
    outer loop
      vertex   -3.253954e+002 8.254382e+001 1.000000e+001
      vertex   -3.254442e+002 8.260486e+001 1.180000e+001
      vertex   -3.254929e+002 8.265710e+001 1.000000e+001
    endloop
  endfacet
  facet normal -7.065514e-001 -7.065514e-001 -1.413524e-003
    outer loop
      vertex   -3.254442e+002 8.260486e+001 1.180000e+001
      vertex   -3.255451e+002 8.270575e+001 1.180000e+001
      vertex   -3.254929e+002 8.265710e+001 1.000000e+001
    endloop
  endfacet
  facet normal -6.518121e-001 -7.573445e-001 1.548002e-003
    outer loop
      vertex   -3.254929e+002 8.265710e+001 1.000000e+001
      vertex   -3.255451e+002 8.270575e+001 1.180000e+001
      vertex   -3.256062e+002 8.275460e+001 1.000000e+001
    endloop
  endfacet
  facet normal -5.986825e-001 -7.998103e-001 -1.406036e-003
    outer loop
      vertex   -3.255451e+002 8.270575e+001 1.180000e+001
      vertex   -3.256594e+002 8.279125e+001 1.180000e+001
      vertex   -3.256062e+002 8.275460e+001 1.000000e+001
    endloop
  endfacet
  facet normal -5.316557e-001 -8.462009e-001 1.519288e-003
    outer loop
      vertex   -3.256062e+002 8.275460e+001 1.000000e+001
      vertex   -3.256594e+002 8.279125e+001 1.180000e+001
      vertex   -3.257327e+002 8.283411e+001 1.000000e+001
    endloop
  endfacet
  facet normal -4.787723e-001 -8.766720e-001 -1.361714e-003
    outer loop
      vertex   -3.256594e+002 8.279125e+001 1.180000e+001
      vertex   -3.257846e+002 8.285963e+001 1.180000e+001
      vertex   -3.257327e+002 8.283411e+001 1.000000e+001
    endloop
  endfacet
  facet normal -3.996808e-001 -9.160925e-001 1.475434e-003
    outer loop
      vertex   -3.257327e+002 8.283411e+001 1.000000e+001
      vertex   -3.257846e+002 8.285963e+001 1.180000e+001
      vertex   -3.258697e+002 8.289388e+001 1.000000e+001
    endloop
  endfacet
  facet normal -3.489586e-001 -9.357538e-001 -1.297931e-003
    outer loop
      vertex   -3.257846e+002 8.285963e+001 1.180000e+001
      vertex   -3.259183e+002 8.290949e+001 1.180000e+001
      vertex   -3.258697e+002 8.289388e+001 1.000000e+001
    endloop
  endfacet
  facet normal -2.586833e-001 -9.655469e-001 1.395537e-003
    outer loop
      vertex   -3.258697e+002 8.289388e+001 1.000000e+001
      vertex   -3.259183e+002 8.290949e+001 1.180000e+001
      vertex   -3.260141e+002 8.293256e+001 1.000000e+001
    endloop
  endfacet
  facet normal -2.122560e-001 -9.756833e-001 -1.206001e-003
    outer loop
      vertex   -3.259183e+002 8.290949e+001 1.180000e+001
      vertex   -3.260577e+002 8.293982e+001 1.180000e+001
      vertex   -3.260141e+002 8.293256e+001 1.000000e+001
    endloop
  endfacet
  facet normal -1.119778e-001 -9.934077e-001 1.293239e-003
    outer loop
      vertex   -3.260141e+002 8.293256e+001 1.000000e+001
      vertex   -3.260577e+002 8.293982e+001 1.180000e+001
      vertex   -3.261626e+002 8.294930e+001 1.000000e+001
    endloop
  endfacet
  facet normal -7.120121e-002 -9.957494e-001 -1.095910e-003
    outer loop
      vertex   -3.260577e+002 8.293982e+001 1.180000e+001
      vertex   -3.262000e+002 8.295000e+001 1.180000e+001
      vertex   -3.261626e+002 8.294930e+001 1.000000e+001
    endloop
  endfacet
  facet normal 0.000000e+000 -1.000000e+000 0.000000e+000
    outer loop
      vertex   -3.262000e+002 8.295000e+001 8.200000e+000
      vertex   -3.262000e+002 8.295000e+001 1.180000e+001
      vertex   -3.462000e+002 8.295000e+001 8.200000e+000
    endloop
  endfacet
  facet normal 0.000000e+000 -9.841833e-001 0.000000e+000
    outer loop
      vertex   -3.462000e+002 8.295000e+001 8.200000e+000
      vertex   -3.262000e+002 8.295000e+001 1.180000e+001
      vertex   -3.462000e+002 8.295000e+001 1.180000e+001
    endloop
  endfacet
  facet normal 0.000000e+000 1.000000e+000 0.000000e+000
    outer loop
      vertex   -3.462000e+002 8.075000e+001 8.200000e+000
      vertex   -3.462000e+002 8.075000e+001 1.180000e+001
      vertex   -3.262000e+002 8.075000e+001 8.200000e+000
    endloop
  endfacet
  facet normal 0.000000e+000 9.841833e-001 -0.000000e+000
    outer loop
      vertex   -3.262000e+002 8.075000e+001 8.200000e+000
      vertex   -3.462000e+002 8.075000e+001 1.180000e+001
      vertex   -3.262000e+002 8.075000e+001 1.180000e+001
    endloop
  endfacet
  facet normal 2.076866e-002 -3.898627e-004 0.000000e+000
    outer loop
      vertex   -3.472000e+002 8.195000e+001 1.180000e+001
      vertex   -3.472000e+002 8.195000e+001 8.200000e+000
      vertex   -3.471993e+002 8.198739e+001 1.000000e+001
    endloop
  endfacet
  facet normal 7.891383e-002 -5.651811e-003 8.663368e-005
    outer loop
      vertex   -3.471993e+002 8.198739e+001 1.000000e+001
      vertex   -3.472000e+002 8.195000e+001 8.200000e+000
      vertex   -3.471898e+002 8.209232e+001 8.200000e+000
    endloop
  endfacet
  facet normal 9.919997e-001 -1.119038e-001 -1.292612e-003
    outer loop
      vertex   -3.471993e+002 8.198739e+001 1.000000e+001
      vertex   -3.471898e+002 8.209232e+001 8.200000e+000
      vertex   -3.471826e+002 8.213591e+001 1.000000e+001
    endloop
  endfacet
  facet normal 7.731614e-002 -1.682220e-002 9.543996e-005
    outer loop
      vertex   -3.471826e+002 8.213591e+001 1.000000e+001
      vertex   -3.471898e+002 8.209232e+001 8.200000e+000
      vertex   -3.471595e+002 8.223174e+001 8.200000e+000
    endloop
  endfacet
  facet normal 9.645116e-001 -2.583176e-001 -1.389340e-003
    outer loop
      vertex   -3.471826e+002 8.213591e+001 1.000000e+001
      vertex   -3.471595e+002 8.223174e+001 8.200000e+000
      vertex   -3.471439e+002 8.228028e+001 1.000000e+001
    endloop
  endfacet
  facet normal 7.414182e-002 -2.765614e-002 1.035485e-004
    outer loop
      vertex   -3.471439e+002 8.228028e+001 1.000000e+001
      vertex   -3.471595e+002 8.223174e+001 8.200000e+000
      vertex   -3.471096e+002 8.236542e+001 8.200000e+000
    endloop
  endfacet
  facet normal 9.153300e-001 -3.994723e-001 -1.466749e-003
    outer loop
      vertex   -3.471439e+002 8.228028e+001 1.000000e+001
      vertex   -3.471096e+002 8.236542e+001 8.200000e+000
      vertex   -3.470841e+002 8.241727e+001 1.000000e+001
    endloop
  endfacet
  facet normal 6.945420e-002 -3.791565e-002 1.077437e-004
    outer loop
      vertex   -3.470841e+002 8.241727e+001 1.000000e+001
      vertex   -3.471096e+002 8.236542e+001 8.200000e+000
      vertex   -3.470413e+002 8.249064e+001 8.200000e+000
    endloop
  endfacet
  facet normal 8.458498e-001 -5.313331e-001 -1.523924e-003
    outer loop
      vertex   -3.470841e+002 8.241727e+001 1.000000e+001
      vertex   -3.470413e+002 8.249064e+001 8.200000e+000
      vertex   -3.470046e+002 8.254382e+001 1.000000e+001
    endloop
  endfacet
  facet normal 6.335481e-002 -4.743042e-002 1.113930e-004
    outer loop
      vertex   -3.470046e+002 8.254382e+001 1.000000e+001
      vertex   -3.470413e+002 8.249064e+001 8.200000e+000
      vertex   -3.469557e+002 8.260486e+001 8.200000e+000
    endloop
  endfacet
  facet normal 7.572007e-001 -6.517393e-001 -1.546228e-003
    outer loop
      vertex   -3.470046e+002 8.254382e+001 1.000000e+001
      vertex   -3.469557e+002 8.260486e+001 8.200000e+000
      vertex   -3.469071e+002 8.265710e+001 1.000000e+001
    endloop
  endfacet
  facet normal 5.596259e-002 -5.596259e-002 1.119586e-004
    outer loop
      vertex   -3.469071e+002 8.265710e+001 1.000000e+001
      vertex   -3.469557e+002 8.260486e+001 8.200000e+000
      vertex   -3.468549e+002 8.270575e+001 8.200000e+000
    endloop
  endfacet
  facet normal 6.518121e-001 -7.573445e-001 -1.548002e-003
    outer loop
      vertex   -3.469071e+002 8.265710e+001 1.000000e+001
      vertex   -3.468549e+002 8.270575e+001 8.200000e+000
      vertex   -3.467938e+002 8.275460e+001 1.000000e+001
    endloop
  endfacet
  facet normal 4.742619e-002 -6.335904e-002 1.113828e-004
    outer loop
      vertex   -3.467938e+002 8.275460e+001 1.000000e+001
      vertex   -3.468549e+002 8.270575e+001 8.200000e+000
      vertex   -3.467406e+002 8.279125e+001 8.200000e+000
    endloop
  endfacet
  facet normal 5.316557e-001 -8.462009e-001 -1.519288e-003
    outer loop
      vertex   -3.467938e+002 8.275460e+001 1.000000e+001
      vertex   -3.467406e+002 8.279125e+001 8.200000e+000
      vertex   -3.466673e+002 8.283411e+001 1.000000e+001
    endloop
  endfacet
  facet normal 3.792835e-002 -6.944996e-002 1.078750e-004
    outer loop
      vertex   -3.466673e+002 8.283411e+001 1.000000e+001
      vertex   -3.467406e+002 8.279125e+001 8.200000e+000
      vertex   -3.466154e+002 8.285963e+001 8.200000e+000
    endloop
  endfacet
  facet normal 3.996808e-001 -9.160925e-001 -1.475434e-003
    outer loop
      vertex   -3.466673e+002 8.283411e+001 1.000000e+001
      vertex   -3.466154e+002 8.285963e+001 8.200000e+000
      vertex   -3.465303e+002 8.289388e+001 1.000000e+001
    endloop
  endfacet
  facet normal 2.765191e-002 -7.415027e-002 1.028497e-004
    outer loop
      vertex   -3.465303e+002 8.289388e+001 1.000000e+001
      vertex   -3.466154e+002 8.285963e+001 8.200000e+000
      vertex   -3.464817e+002 8.290949e+001 8.200000e+000
    endloop
  endfacet
  facet normal 2.587343e-001 -9.655332e-001 -1.394042e-003
    outer loop
      vertex   -3.465303e+002 8.289388e+001 1.000000e+001
      vertex   -3.464817e+002 8.290949e+001 8.200000e+000
      vertex   -3.463859e+002 8.293256e+001 1.000000e+001
    endloop
  endfacet
  facet normal 1.681799e-002 -7.730773e-002 9.584194e-005
    outer loop
      vertex   -3.463859e+002 8.293256e+001 1.000000e+001
      vertex   -3.464817e+002 8.290949e+001 8.200000e+000
      vertex   -3.463423e+002 8.293982e+001 8.200000e+000
    endloop
  endfacet
  facet normal 1.119551e-001 -9.934099e-001 -1.291901e-003
    outer loop
      vertex   -3.463859e+002 8.293256e+001 1.000000e+001
      vertex   -3.463423e+002 8.293982e+001 8.200000e+000
      vertex   -3.462374e+002 8.294930e+001 1.000000e+001
    endloop
  endfacet
  facet normal 5.643352e-003 -7.890540e-002 8.677178e-005
    outer loop
      vertex   -3.462374e+002 8.294930e+001 1.000000e+001
      vertex   -3.463423e+002 8.293982e+001 8.200000e+000
      vertex   -3.462000e+002 8.295000e+001 8.200000e+000
    endloop
  endfacet
  facet normal 7.710838e-004 -4.151990e-002 0.000000e+000
    outer loop
      vertex   -3.462374e+002 8.294930e+001 1.000000e+001
      vertex   -3.462000e+002 8.295000e+001 8.200000e+000
      vertex   -3.462000e+002 8.295000e+001 1.180000e+001
    endloop
  endfacet
  facet normal 7.132287e-002 -9.972370e-001 -1.096655e-003
    outer loop
      vertex   -3.462000e+002 8.295000e+001 1.180000e+001
      vertex   -3.463423e+002 8.293982e+001 1.180000e+001
      vertex   -3.462374e+002 8.294930e+001 1.000000e+001
    endloop
  endfacet
  facet normal 1.117975e-001 -9.920120e-001 1.290083e-003
    outer loop
      vertex   -3.462374e+002 8.294930e+001 1.000000e+001
      vertex   -3.463423e+002 8.293982e+001 1.180000e+001
      vertex   -3.463859e+002 8.293256e+001 1.000000e+001
    endloop
  endfacet
  facet normal 2.125099e-001 -9.768504e-001 -1.211046e-003
    outer loop
      vertex   -3.463423e+002 8.293982e+001 1.180000e+001
      vertex   -3.464817e+002 8.290949e+001 1.180000e+001
      vertex   -3.463859e+002 8.293256e+001 1.000000e+001
    endloop
  endfacet
  facet normal 2.584512e-001 -9.644767e-001 1.392516e-003
    outer loop
      vertex   -3.463859e+002 8.293256e+001 1.000000e+001
      vertex   -3.464817e+002 8.290949e+001 1.180000e+001
      vertex   -3.465303e+002 8.289388e+001 1.000000e+001
    endloop
  endfacet
  facet normal 3.492717e-001 -9.365934e-001 -1.299096e-003
    outer loop
      vertex   -3.464817e+002 8.290949e+001 1.180000e+001
      vertex   -3.466154e+002 8.285963e+001 1.180000e+001
      vertex   -3.465303e+002 8.289388e+001 1.000000e+001
    endloop
  endfacet
  facet normal 3.993680e-001 -9.153755e-001 1.474279e-003
    outer loop
      vertex   -3.465303e+002 8.289388e+001 1.000000e+001
      vertex   -3.466154e+002 8.285963e+001 1.180000e+001
      vertex   -3.466673e+002 8.283411e+001 1.000000e+001
    endloop
  endfacet
  facet normal 4.790586e-001 -8.771962e-001 -1.362529e-003
    outer loop
      vertex   -3.466154e+002 8.285963e+001 1.180000e+001
      vertex   -3.467406e+002 8.279125e+001 1.180000e+001
      vertex   -3.466673e+002 8.283411e+001 1.000000e+001
    endloop
  endfacet
  facet normal 5.314063e-001 -8.458038e-001 1.518575e-003
    outer loop
      vertex   -3.466673e+002 8.283411e+001 1.000000e+001
      vertex   -3.467406e+002 8.279125e+001 1.180000e+001
      vertex   -3.467938e+002 8.275460e+001 1.000000e+001
    endloop
  endfacet
  facet normal 5.988613e-001 -8.000493e-001 -1.406456e-003
    outer loop
      vertex   -3.467406e+002 8.279125e+001 1.180000e+001
      vertex   -3.468549e+002 8.270575e+001 1.180000e+001
      vertex   -3.467938e+002 8.275460e+001 1.000000e+001
    endloop
  endfacet
  facet normal 6.517101e-001 -7.572260e-001 1.547760e-003
    outer loop
      vertex   -3.467938e+002 8.275460e+001 1.000000e+001
      vertex   -3.468549e+002 8.270575e+001 1.180000e+001
      vertex   -3.469071e+002 8.265710e+001 1.000000e+001
    endloop
  endfacet
  facet normal 7.065514e-001 -7.065514e-001 -1.413524e-003
    outer loop
      vertex   -3.468549e+002 8.270575e+001 1.180000e+001
      vertex   -3.469557e+002 8.260486e+001 1.180000e+001
      vertex   -3.469071e+002 8.265710e+001 1.000000e+001
    endloop
  endfacet
  facet normal 7.573193e-001 -6.518413e-001 1.546470e-003
    outer loop
      vertex   -3.469071e+002 8.265710e+001 1.000000e+001
      vertex   -3.469557e+002 8.260486e+001 1.180000e+001
      vertex   -3.470046e+002 8.254382e+001 1.000000e+001
    endloop
  endfacet
  facet normal 7.997654e-001 -5.987422e-001 -1.406180e-003
    outer loop
      vertex   -3.469557e+002 8.260486e+001 1.180000e+001
      vertex   -3.470413e+002 8.249064e+001 1.180000e+001
      vertex   -3.470046e+002 8.254382e+001 1.000000e+001
    endloop
  endfacet
  facet normal 8.462470e-001 -5.315827e-001 1.524639e-003
    outer loop
      vertex   -3.470046e+002 8.254382e+001 1.000000e+001
      vertex   -3.470413e+002 8.249064e+001 1.180000e+001
      vertex   -3.470841e+002 8.241727e+001 1.000000e+001
    endloop
  endfacet
  facet normal 8.767517e-001 -4.786264e-001 -1.360098e-003
    outer loop
      vertex   -3.470413e+002 8.249064e+001 1.180000e+001
      vertex   -3.471096e+002 8.236542e+001 1.180000e+001
      vertex   -3.470841e+002 8.241727e+001 1.000000e+001
    endloop
  endfacet
  facet normal 9.160470e-001 -3.997853e-001 1.467898e-003
    outer loop
      vertex   -3.470841e+002 8.241727e+001 1.000000e+001
      vertex   -3.471096e+002 8.236542e+001 1.180000e+001
      vertex   -3.471439e+002 8.228028e+001 1.000000e+001
    endloop
  endfacet
  facet normal 9.357232e-001 -3.490404e-001 -1.306857e-003
    outer loop
      vertex   -3.471096e+002 8.236542e+001 1.180000e+001
      vertex   -3.471595e+002 8.223174e+001 1.180000e+001
      vertex   -3.471439e+002 8.228028e+001 1.000000e+001
    endloop
  endfacet
  facet normal 9.655691e-001 -2.586009e-001 1.390864e-003
    outer loop
      vertex   -3.471439e+002 8.228028e+001 1.000000e+001
      vertex   -3.471595e+002 8.223174e+001 1.180000e+001
      vertex   -3.471826e+002 8.213591e+001 1.000000e+001
    endloop
  endfacet
  facet normal 9.756771e-001 -2.122848e-001 -1.204387e-003
    outer loop
      vertex   -3.471595e+002 8.223174e+001 1.180000e+001
      vertex   -3.471898e+002 8.209232e+001 1.180000e+001
      vertex   -3.471826e+002 8.213591e+001 1.000000e+001
    endloop
  endfacet
  facet normal 9.933981e-001 -1.120615e-001 1.294434e-003
    outer loop
      vertex   -3.471826e+002 8.213591e+001 1.000000e+001
      vertex   -3.471898e+002 8.209232e+001 1.180000e+001
      vertex   -3.471993e+002 8.198739e+001 1.000000e+001
    endloop
  endfacet
  facet normal 9.957410e-001 -7.131499e-002 -1.093151e-003
    outer loop
      vertex   -3.471898e+002 8.209232e+001 1.180000e+001
      vertex   -3.472000e+002 8.195000e+001 1.180000e+001
      vertex   -3.471993e+002 8.198739e+001 1.000000e+001
    endloop
  endfacet
  facet normal 3.898627e-004 2.076443e-002 0.000000e+000
    outer loop
      vertex   -3.462000e+002 8.075000e+001 1.180000e+001
      vertex   -3.462000e+002 8.075000e+001 8.200000e+000
      vertex   -3.462374e+002 8.075070e+001 1.000000e+001
    endloop
  endfacet
  facet normal 5.643352e-003 7.890540e-002 8.643734e-005
    outer loop
      vertex   -3.462374e+002 8.075070e+001 1.000000e+001
      vertex   -3.462000e+002 8.075000e+001 8.200000e+000
      vertex   -3.463423e+002 8.076018e+001 8.200000e+000
    endloop
  endfacet
  facet normal 1.117472e-001 9.920176e-001 -1.291325e-003
    outer loop
      vertex   -3.462374e+002 8.075070e+001 1.000000e+001
      vertex   -3.463423e+002 8.076018e+001 8.200000e+000
      vertex   -3.463859e+002 8.076743e+001 1.000000e+001
    endloop
  endfacet
  facet normal 1.681799e-002 7.730773e-002 9.584194e-005
    outer loop
      vertex   -3.463859e+002 8.076743e+001 1.000000e+001
      vertex   -3.463423e+002 8.076018e+001 8.200000e+000
      vertex   -3.464817e+002 8.079050e+001 8.200000e+000
    endloop
  endfacet
  facet normal 2.584512e-001 9.644767e-001 -1.392516e-003
    outer loop
      vertex   -3.463859e+002 8.076743e+001 1.000000e+001
      vertex   -3.464817e+002 8.079050e+001 8.200000e+000
      vertex   -3.465303e+002 8.080611e+001 1.000000e+001
    endloop
  endfacet
  facet normal 2.765614e-002 7.415027e-002 1.029638e-004
    outer loop
      vertex   -3.465303e+002 8.080611e+001 1.000000e+001
      vertex   -3.464817e+002 8.079050e+001 8.200000e+000
      vertex   -3.466154e+002 8.084037e+001 8.200000e+000
    endloop
  endfacet
  facet normal 3.993680e-001 9.153755e-001 -1.470399e-003
    outer loop
      vertex   -3.465303e+002 8.080611e+001 1.000000e+001
      vertex   -3.466154e+002 8.084037e+001 8.200000e+000
      vertex   -3.466673e+002 8.086588e+001 1.000000e+001
    endloop
  endfacet
  facet normal 3.792411e-002 6.944997e-002 1.080475e-004
    outer loop
      vertex   -3.466673e+002 8.086588e+001 1.000000e+001
      vertex   -3.466154e+002 8.084037e+001 8.200000e+000
      vertex   -3.467406e+002 8.090874e+001 8.200000e+000
    endloop
  endfacet
  facet normal 5.314428e-001 8.457808e-001 -1.520612e-003
    outer loop
      vertex   -3.466673e+002 8.086588e+001 1.000000e+001
      vertex   -3.467406e+002 8.090874e+001 8.200000e+000
      vertex   -3.467938e+002 8.094540e+001 1.000000e+001
    endloop
  endfacet
  facet normal 4.742619e-002 6.335905e-002 1.111142e-004
    outer loop
      vertex   -3.467938e+002 8.094540e+001 1.000000e+001
      vertex   -3.467406e+002 8.090874e+001 8.200000e+000
      vertex   -3.468549e+002 8.099425e+001 8.200000e+000
    endloop
  endfacet
  facet normal 6.516808e-001 7.572513e-001 -1.549292e-003
    outer loop
      vertex   -3.467938e+002 8.094540e+001 1.000000e+001
      vertex   -3.468549e+002 8.099425e+001 8.200000e+000
      vertex   -3.469071e+002 8.104289e+001 1.000000e+001
    endloop
  endfacet
  facet normal 5.596259e-002 5.596259e-002 1.119586e-004
    outer loop
      vertex   -3.469071e+002 8.104289e+001 1.000000e+001
      vertex   -3.468549e+002 8.099425e+001 8.200000e+000
      vertex   -3.469557e+002 8.109514e+001 8.200000e+000
    endloop
  endfacet
  facet normal 7.573410e-001 6.518161e-001 -1.547789e-003
    outer loop
      vertex   -3.469071e+002 8.104289e+001 1.000000e+001
      vertex   -3.469557e+002 8.109514e+001 8.200000e+000
      vertex   -3.470046e+002 8.115618e+001 1.000000e+001
    endloop
  endfacet
  facet normal 6.335481e-002 4.743041e-002 1.111919e-004
    outer loop
      vertex   -3.470046e+002 8.115618e+001 1.000000e+001
      vertex   -3.469557e+002 8.109514e+001 8.200000e+000
      vertex   -3.470413e+002 8.120936e+001 8.200000e+000
    endloop
  endfacet
  facet normal 8.462326e-001 5.316057e-001 -1.525920e-003
    outer loop
      vertex   -3.470046e+002 8.115618e+001 1.000000e+001
      vertex   -3.470413e+002 8.120936e+001 8.200000e+000
      vertex   -3.470841e+002 8.128273e+001 1.000000e+001
    endloop
  endfacet
  facet normal 6.945843e-002 3.791565e-002 1.078445e-004
    outer loop
      vertex   -3.470841e+002 8.128273e+001 1.000000e+001
      vertex   -3.470413e+002 8.120936e+001 8.200000e+000
      vertex   -3.471096e+002 8.133459e+001 8.200000e+000
    endloop
  endfacet
  facet normal 9.160551e-001 3.997665e-001 -1.466858e-003
    outer loop
      vertex   -3.470841e+002 8.128273e+001 1.000000e+001
      vertex   -3.471096e+002 8.133459e+001 8.200000e+000
      vertex   -3.471439e+002 8.141972e+001 1.000000e+001
    endloop
  endfacet
  facet normal 7.414182e-002 2.765614e-002 1.035485e-004
    outer loop
      vertex   -3.471439e+002 8.141972e+001 1.000000e+001
      vertex   -3.471096e+002 8.133459e+001 8.200000e+000
      vertex   -3.471595e+002 8.146827e+001 8.200000e+000
    endloop
  endfacet
  facet normal 9.655657e-001 2.586136e-001 -1.390490e-003
    outer loop
      vertex   -3.471439e+002 8.141972e+001 1.000000e+001
      vertex   -3.471595e+002 8.146827e+001 8.200000e+000
      vertex   -3.471826e+002 8.156409e+001 1.000000e+001
    endloop
  endfacet
  facet normal 7.731615e-002 1.682221e-002 9.551127e-005
    outer loop
      vertex   -3.471826e+002 8.156409e+001 1.000000e+001
      vertex   -3.471595e+002 8.146827e+001 8.200000e+000
      vertex   -3.471898e+002 8.160769e+001 8.200000e+000
    endloop
  endfacet
  facet normal 9.933980e-001 1.120615e-001 -1.293959e-003
    outer loop
      vertex   -3.471826e+002 8.156409e+001 1.000000e+001
      vertex   -3.471898e+002 8.160769e+001 8.200000e+000
      vertex   -3.471993e+002 8.171261e+001 1.000000e+001
    endloop
  endfacet
  facet normal 7.890962e-002 5.651812e-003 8.663535e-005
    outer loop
      vertex   -3.471993e+002 8.171261e+001 1.000000e+001
      vertex   -3.471898e+002 8.160769e+001 8.200000e+000
      vertex   -3.472000e+002 8.175000e+001 8.200000e+000
    endloop
  endfacet
  facet normal 4.152836e-002 7.795570e-004 0.000000e+000
    outer loop
      vertex   -3.471993e+002 8.171261e+001 1.000000e+001
      vertex   -3.472000e+002 8.175000e+001 8.200000e+000
      vertex   -3.472000e+002 8.175000e+001 1.180000e+001
    endloop
  endfacet
  facet normal 9.972296e-001 7.142545e-002 -1.094864e-003
    outer loop
      vertex   -3.472000e+002 8.175000e+001 1.180000e+001
      vertex   -3.471898e+002 8.160769e+001 1.180000e+001
      vertex   -3.471993e+002 8.171261e+001 1.000000e+001
    endloop
  endfacet
  facet normal 9.919999e-001 1.119038e-001 1.292138e-003
    outer loop
      vertex   -3.471993e+002 8.171261e+001 1.000000e+001
      vertex   -3.471898e+002 8.160769e+001 1.180000e+001
      vertex   -3.471826e+002 8.156409e+001 1.000000e+001
    endloop
  endfacet
  facet normal 9.768442e-001 2.125387e-001 -1.206729e-003
    outer loop
      vertex   -3.471898e+002 8.160769e+001 1.180000e+001
      vertex   -3.471595e+002 8.146827e+001 1.180000e+001
      vertex   -3.471826e+002 8.156409e+001 1.000000e+001
    endloop
  endfacet
  facet normal 9.645084e-001 2.583304e-001 1.388968e-003
    outer loop
      vertex   -3.471826e+002 8.156409e+001 1.000000e+001
      vertex   -3.471595e+002 8.146827e+001 1.180000e+001
      vertex   -3.471439e+002 8.141972e+001 1.000000e+001
    endloop
  endfacet
  facet normal 9.365630e-001 3.493537e-001 -1.308029e-003
    outer loop
      vertex   -3.471595e+002 8.146827e+001 1.180000e+001
      vertex   -3.471096e+002 8.133459e+001 1.180000e+001
      vertex   -3.471439e+002 8.141972e+001 1.000000e+001
    endloop
  endfacet
  facet normal 9.153382e-001 3.994536e-001 1.465710e-003
    outer loop
      vertex   -3.471439e+002 8.141972e+001 1.000000e+001
      vertex   -3.471096e+002 8.133459e+001 1.180000e+001
      vertex   -3.470841e+002 8.128273e+001 1.000000e+001
    endloop
  endfacet
  facet normal 8.772882e-001 4.788901e-001 -1.362119e-003
    outer loop
      vertex   -3.471096e+002 8.133459e+001 1.180000e+001
      vertex   -3.470413e+002 8.120936e+001 1.180000e+001
      vertex   -3.470841e+002 8.128273e+001 1.000000e+001
    endloop
  endfacet
  facet normal 8.458353e-001 5.313562e-001 1.525204e-003
    outer loop
      vertex   -3.470841e+002 8.128273e+001 1.000000e+001
      vertex   -3.470413e+002 8.120936e+001 1.180000e+001
      vertex   -3.470046e+002 8.115618e+001 1.000000e+001
    endloop
  endfacet
  facet normal 8.000047e-001 5.989214e-001 -1.404062e-003
    outer loop
      vertex   -3.470413e+002 8.120936e+001 1.180000e+001
      vertex   -3.469557e+002 8.109514e+001 1.180000e+001
      vertex   -3.470046e+002 8.115618e+001 1.000000e+001
    endloop
  endfacet
  facet normal 7.572223e-001 6.517140e-001 1.547546e-003
    outer loop
      vertex   -3.470046e+002 8.115618e+001 1.000000e+001
      vertex   -3.469557e+002 8.109514e+001 1.180000e+001
      vertex   -3.469071e+002 8.104289e+001 1.000000e+001
    endloop
  endfacet
  facet normal 7.065514e-001 7.065514e-001 -1.413524e-003
    outer loop
      vertex   -3.469557e+002 8.109514e+001 1.180000e+001
      vertex   -3.468549e+002 8.099425e+001 1.180000e+001
      vertex   -3.469071e+002 8.104289e+001 1.000000e+001
    endloop
  endfacet
  facet normal 6.517828e-001 7.573697e-001 1.549534e-003
    outer loop
      vertex   -3.469071e+002 8.104289e+001 1.000000e+001
      vertex   -3.468549e+002 8.099425e+001 1.180000e+001
      vertex   -3.467938e+002 8.094540e+001 1.000000e+001
    endloop
  endfacet
  facet normal 5.986825e-001 7.998104e-001 -1.402646e-003
    outer loop
      vertex   -3.468549e+002 8.099425e+001 1.180000e+001
      vertex   -3.467406e+002 8.090874e+001 1.180000e+001
      vertex   -3.467938e+002 8.094540e+001 1.000000e+001
    endloop
  endfacet
  facet normal 5.316923e-001 8.461778e-001 1.521326e-003
    outer loop
      vertex   -3.467938e+002 8.094540e+001 1.000000e+001
      vertex   -3.467406e+002 8.090874e+001 1.180000e+001
      vertex   -3.466673e+002 8.086588e+001 1.000000e+001
    endloop
  endfacet
  facet normal 4.787312e-001 8.766945e-001 -1.363927e-003
    outer loop
      vertex   -3.467406e+002 8.090874e+001 1.180000e+001
      vertex   -3.466154e+002 8.084037e+001 1.180000e+001
      vertex   -3.466673e+002 8.086588e+001 1.000000e+001
    endloop
  endfacet
  facet normal 3.996809e-001 9.160926e-001 1.471551e-003
    outer loop
      vertex   -3.466673e+002 8.086588e+001 1.000000e+001
      vertex   -3.466154e+002 8.084037e+001 1.180000e+001
      vertex   -3.465303e+002 8.080611e+001 1.000000e+001
    endloop
  endfacet
  facet normal 3.490055e-001 9.357362e-001 -1.299347e-003
    outer loop
      vertex   -3.466154e+002 8.084037e+001 1.180000e+001
      vertex   -3.464817e+002 8.079050e+001 1.180000e+001
      vertex   -3.465303e+002 8.080611e+001 1.000000e+001
    endloop
  endfacet
  facet normal 2.587343e-001 9.655332e-001 1.394042e-003
    outer loop
      vertex   -3.465303e+002 8.080611e+001 1.000000e+001
      vertex   -3.464817e+002 8.079050e+001 1.180000e+001
      vertex   -3.463859e+002 8.076743e+001 1.000000e+001
    endloop
  endfacet
  facet normal 2.122562e-001 9.756842e-001 -1.209600e-003
    outer loop
      vertex   -3.464817e+002 8.079050e+001 1.180000e+001
      vertex   -3.463423e+002 8.076018e+001 1.180000e+001
      vertex   -3.463859e+002 8.076743e+001 1.000000e+001
    endloop
  endfacet
  facet normal 1.119047e-001 9.934155e-001 1.293144e-003
    outer loop
      vertex   -3.463859e+002 8.076743e+001 1.000000e+001
      vertex   -3.463423e+002 8.076018e+001 1.180000e+001
      vertex   -3.462374e+002 8.075070e+001 1.000000e+001
    endloop
  endfacet
  facet normal 7.121640e-002 9.957483e-001 -1.090798e-003
    outer loop
      vertex   -3.463423e+002 8.076018e+001 1.180000e+001
      vertex   -3.462000e+002 8.075000e+001 1.180000e+001
      vertex   -3.462374e+002 8.075070e+001 1.000000e+001
    endloop
  endfacet
  facet normal 1.000000e+000 0.000000e+000 -0.000000e+000
    outer loop
      vertex   -3.472000e+002 8.195000e+001 8.200000e+000
      vertex   -3.472000e+002 8.195000e+001 1.180000e+001
      vertex   -3.472000e+002 8.175000e+001 8.200000e+000
    endloop
  endfacet
  facet normal 5.546917e-002 0.000000e+000 0.000000e+000
    outer loop
      vertex   -3.472000e+002 8.175000e+001 8.200000e+000
      vertex   -3.472000e+002 8.195000e+001 1.180000e+001
      vertex   -3.472000e+002 8.175000e+001 1.180000e+001
    endloop
  endfacet
  facet normal 0.000000e+000 0.000000e+000 -7.616761e-001
    outer loop
      vertex   -3.463423e+002 8.293982e+001 8.200000e+000
      vertex   -3.492000e+002 8.585000e+001 8.200000e+000
      vertex   -3.462000e+002 8.295000e+001 8.200000e+000
    endloop
  endfacet
  facet normal 0.000000e+000 0.000000e+000 -7.795056e-001
    outer loop
      vertex   -3.462000e+002 8.295000e+001 8.200000e+000
      vertex   -3.492000e+002 8.585000e+001 8.200000e+000
      vertex   -3.232000e+002 8.585000e+001 8.200000e+000
    endloop
  endfacet
  facet normal 0.000000e+000 0.000000e+000 -1.250966e-001
    outer loop
      vertex   -3.462000e+002 8.295000e+001 8.200000e+000
      vertex   -3.232000e+002 8.585000e+001 8.200000e+000
      vertex   -3.262000e+002 8.295000e+001 8.200000e+000
    endloop
  endfacet
  facet normal 0.000000e+000 0.000000e+000 -7.445327e-001
    outer loop
      vertex   -3.262000e+002 8.295000e+001 8.200000e+000
      vertex   -3.232000e+002 8.585000e+001 8.200000e+000
      vertex   -3.260577e+002 8.293982e+001 8.200000e+000
    endloop
  endfacet
  facet normal 0.000000e+000 0.000000e+000 -8.461455e-001
    outer loop
      vertex   -3.260577e+002 8.293982e+001 8.200000e+000
      vertex   -3.232000e+002 8.585000e+001 8.200000e+000
      vertex   -3.259183e+002 8.290949e+001 8.200000e+000
    endloop
  endfacet
  facet normal 0.000000e+000 0.000000e+000 -9.252127e-001
    outer loop
      vertex   -3.259183e+002 8.290949e+001 8.200000e+000
      vertex   -3.232000e+002 8.585000e+001 8.200000e+000
      vertex   -3.257846e+002 8.285963e+001 8.200000e+000
    endloop
  endfacet
  facet normal 0.000000e+000 0.000000e+000 -9.774280e-001
    outer loop
      vertex   -3.257846e+002 8.285963e+001 8.200000e+000
      vertex   -3.232000e+002 8.585000e+001 8.200000e+000
      vertex   -3.256594e+002 8.279125e+001 8.200000e+000
    endloop
  endfacet
  facet normal 0.000000e+000 0.000000e+000 -9.994001e-001
    outer loop
      vertex   -3.256594e+002 8.279125e+001 8.200000e+000
      vertex   -3.232000e+002 8.585000e+001 8.200000e+000
      vertex   -3.255451e+002 8.270575e+001 8.200000e+000
    endloop
  endfacet
  facet normal 0.000000e+000 0.000000e+000 -9.895692e-001
    outer loop
      vertex   -3.255451e+002 8.270575e+001 8.200000e+000
      vertex   -3.232000e+002 8.585000e+001 8.200000e+000
      vertex   -3.254442e+002 8.260486e+001 8.200000e+000
    endloop
  endfacet
  facet normal 0.000000e+000 0.000000e+000 -9.482501e-001
    outer loop
      vertex   -3.254442e+002 8.260486e+001 8.200000e+000
      vertex   -3.232000e+002 8.585000e+001 8.200000e+000
      vertex   -3.253587e+002 8.249064e+001 8.200000e+000
    endloop
  endfacet
  facet normal 0.000000e+000 0.000000e+000 -8.776091e-001
    outer loop
      vertex   -3.253587e+002 8.249064e+001 8.200000e+000
      vertex   -3.232000e+002 8.585000e+001 8.200000e+000
      vertex   -3.252904e+002 8.236542e+001 8.200000e+000
    endloop
  endfacet
  facet normal 0.000000e+000 0.000000e+000 -7.816886e-001
    outer loop
      vertex   -3.252904e+002 8.236542e+001 8.200000e+000
      vertex   -3.232000e+002 8.585000e+001 8.200000e+000
      vertex   -3.252405e+002 8.223174e+001 8.200000e+000
    endloop
  endfacet
  facet normal 0.000000e+000 0.000000e+000 -6.651714e-001
    outer loop
      vertex   -3.252405e+002 8.223174e+001 8.200000e+000
      vertex   -3.232000e+002 8.585000e+001 8.200000e+000
      vertex   -3.252102e+002 8.209232e+001 8.200000e+000
    endloop
  endfacet
  facet normal 0.000000e+000 0.000000e+000 -5.333007e-001
    outer loop
      vertex   -3.252102e+002 8.209232e+001 8.200000e+000
      vertex   -3.232000e+002 8.585000e+001 8.200000e+000
      vertex   -3.252000e+002 8.195000e+001 8.200000e+000
    endloop
  endfacet
  facet normal 0.000000e+000 0.000000e+000 -8.002400e-001
    outer loop
      vertex   -3.252000e+002 8.195000e+001 8.200000e+000
      vertex   -3.232000e+002 8.585000e+001 8.200000e+000
      vertex   -3.232000e+002 7.785000e+001 8.200000e+000
    endloop
  endfacet
  facet normal 0.000000e+000 0.000000e+000 -4.384238e-001
    outer loop
      vertex   -3.252000e+002 8.195000e+001 8.200000e+000
      vertex   -3.232000e+002 7.785000e+001 8.200000e+000
      vertex   -3.252000e+002 8.175000e+001 8.200000e+000
    endloop
  endfacet
  facet normal 0.000000e+000 -0.000000e+000 -5.185375e-001
    outer loop
      vertex   -3.252000e+002 8.175000e+001 8.200000e+000
      vertex   -3.232000e+002 7.785000e+001 8.200000e+000
      vertex   -3.252102e+002 8.160769e+001 8.200000e+000
    endloop
  endfacet
  facet normal 0.000000e+000 -0.000000e+000 -6.483766e-001
    outer loop
      vertex   -3.252102e+002 8.160769e+001 8.200000e+000
      vertex   -3.232000e+002 7.785000e+001 8.200000e+000
      vertex   -3.252405e+002 8.146827e+001 8.200000e+000
    endloop
  endfacet
  facet normal 0.000000e+000 -0.000000e+000 -7.646612e-001
    outer loop
      vertex   -3.252405e+002 8.146827e+001 8.200000e+000
      vertex   -3.232000e+002 7.785000e+001 8.200000e+000
      vertex   -3.252904e+002 8.133459e+001 8.200000e+000
    endloop
  endfacet
  facet normal 0.000000e+000 -0.000000e+000 -8.624083e-001
    outer loop
      vertex   -3.252904e+002 8.133459e+001 8.200000e+000
      vertex   -3.232000e+002 7.785000e+001 8.200000e+000
      vertex   -3.253587e+002 8.120936e+001 8.200000e+000
    endloop
  endfacet
  facet normal 0.000000e+000 -0.000000e+000 -9.369472e-001
    outer loop
      vertex   -3.253587e+002 8.120936e+001 8.200000e+000
      vertex   -3.232000e+002 7.785000e+001 8.200000e+000
      vertex   -3.254442e+002 8.109514e+001 8.200000e+000
    endloop
  endfacet
  facet normal 0.000000e+000 -0.000000e+000 -9.837802e-001
    outer loop
      vertex   -3.254442e+002 8.109514e+001 8.200000e+000
      vertex   -3.232000e+002 7.785000e+001 8.200000e+000
      vertex   -3.255451e+002 8.099425e+001 8.200000e+000
    endloop
  endfacet
  facet normal 0.000000e+000 -0.000000e+000 -9.999985e-001
    outer loop
      vertex   -3.255451e+002 8.099425e+001 8.200000e+000
      vertex   -3.232000e+002 7.785000e+001 8.200000e+000
      vertex   -3.256594e+002 8.090874e+001 8.200000e+000
    endloop
  endfacet
  facet normal 0.000000e+000 -0.000000e+000 -9.843089e-001
    outer loop
      vertex   -3.256594e+002 8.090874e+001 8.200000e+000
      vertex   -3.232000e+002 7.785000e+001 8.200000e+000
      vertex   -3.257846e+002 8.084037e+001 8.200000e+000
    endloop
  endfacet
  facet normal 0.000000e+000 -0.000000e+000 -9.373885e-001
    outer loop
      vertex   -3.257846e+002 8.084037e+001 8.200000e+000
      vertex   -3.232000e+002 7.785000e+001 8.200000e+000
      vertex   -3.259183e+002 8.079050e+001 8.200000e+000
    endloop
  endfacet
  facet normal 0.000000e+000 -0.000000e+000 -8.618269e-001
    outer loop
      vertex   -3.259183e+002 8.079050e+001 8.200000e+000
      vertex   -3.232000e+002 7.785000e+001 8.200000e+000
      vertex   -3.260577e+002 8.076018e+001 8.200000e+000
    endloop
  endfacet
  facet normal 0.000000e+000 -0.000000e+000 -7.616697e-001
    outer loop
      vertex   -3.260577e+002 8.076018e+001 8.200000e+000
      vertex   -3.232000e+002 7.785000e+001 8.200000e+000
      vertex   -3.262000e+002 8.075000e+001 8.200000e+000
    endloop
  endfacet
  facet normal 0.000000e+000 -0.000000e+000 -7.795056e-001
    outer loop
      vertex   -3.262000e+002 8.075000e+001 8.200000e+000
      vertex   -3.232000e+002 7.785000e+001 8.200000e+000
      vertex   -3.492000e+002 7.785000e+001 8.200000e+000
    endloop
  endfacet
  facet normal -0.000000e+000 0.000000e+000 -1.250966e-001
    outer loop
      vertex   -3.262000e+002 8.075000e+001 8.200000e+000
      vertex   -3.492000e+002 7.785000e+001 8.200000e+000
      vertex   -3.462000e+002 8.075000e+001 8.200000e+000
    endloop
  endfacet
  facet normal -0.000000e+000 0.000000e+000 -7.445428e-001
    outer loop
      vertex   -3.462000e+002 8.075000e+001 8.200000e+000
      vertex   -3.492000e+002 7.785000e+001 8.200000e+000
      vertex   -3.463423e+002 8.076018e+001 8.200000e+000
    endloop
  endfacet
  facet normal -0.000000e+000 0.000000e+000 -8.461426e-001
    outer loop
      vertex   -3.463423e+002 8.076018e+001 8.200000e+000
      vertex   -3.492000e+002 7.785000e+001 8.200000e+000
      vertex   -3.464817e+002 8.079050e+001 8.200000e+000
    endloop
  endfacet
  facet normal -0.000000e+000 0.000000e+000 -9.252295e-001
    outer loop
      vertex   -3.464817e+002 8.079050e+001 8.200000e+000
      vertex   -3.492000e+002 7.785000e+001 8.200000e+000
      vertex   -3.466154e+002 8.084037e+001 8.200000e+000
    endloop
  endfacet
  facet normal -0.000000e+000 0.000000e+000 -9.774171e-001
    outer loop
      vertex   -3.466154e+002 8.084037e+001 8.200000e+000
      vertex   -3.492000e+002 7.785000e+001 8.200000e+000
      vertex   -3.467406e+002 8.090874e+001 8.200000e+000
    endloop
  endfacet
  facet normal -0.000000e+000 0.000000e+000 -9.993999e-001
    outer loop
      vertex   -3.467406e+002 8.090874e+001 8.200000e+000
      vertex   -3.492000e+002 7.785000e+001 8.200000e+000
      vertex   -3.468549e+002 8.099425e+001 8.200000e+000
    endloop
  endfacet
  facet normal -0.000000e+000 0.000000e+000 -9.895701e-001
    outer loop
      vertex   -3.468549e+002 8.099425e+001 8.200000e+000
      vertex   -3.492000e+002 7.785000e+001 8.200000e+000
      vertex   -3.469557e+002 8.109514e+001 8.200000e+000
    endloop
  endfacet
  facet normal -0.000000e+000 0.000000e+000 -9.482521e-001
    outer loop
      vertex   -3.469557e+002 8.109514e+001 8.200000e+000
      vertex   -3.492000e+002 7.785000e+001 8.200000e+000
      vertex   -3.470413e+002 8.120936e+001 8.200000e+000
    endloop
  endfacet
  facet normal -0.000000e+000 0.000000e+000 -8.775999e-001
    outer loop
      vertex   -3.470413e+002 8.120936e+001 8.200000e+000
      vertex   -3.492000e+002 7.785000e+001 8.200000e+000
      vertex   -3.471096e+002 8.133459e+001 8.200000e+000
    endloop
  endfacet
  facet normal -0.000000e+000 0.000000e+000 -7.816921e-001
    outer loop
      vertex   -3.471096e+002 8.133459e+001 8.200000e+000
      vertex   -3.492000e+002 7.785000e+001 8.200000e+000
      vertex   -3.471595e+002 8.146827e+001 8.200000e+000
    endloop
  endfacet
  facet normal -0.000000e+000 0.000000e+000 -6.651756e-001
    outer loop
      vertex   -3.471595e+002 8.146827e+001 8.200000e+000
      vertex   -3.492000e+002 7.785000e+001 8.200000e+000
      vertex   -3.471898e+002 8.160769e+001 8.200000e+000
    endloop
  endfacet
  facet normal -0.000000e+000 0.000000e+000 -5.334890e-001
    outer loop
      vertex   -3.471898e+002 8.160769e+001 8.200000e+000
      vertex   -3.492000e+002 7.785000e+001 8.200000e+000
      vertex   -3.472000e+002 8.175000e+001 8.200000e+000
    endloop
  endfacet
  facet normal -0.000000e+000 0.000000e+000 -4.563165e-001
    outer loop
      vertex   -3.472000e+002 8.175000e+001 8.200000e+000
      vertex   -3.492000e+002 7.785000e+001 8.200000e+000
      vertex   -3.472000e+002 8.195000e+001 8.200000e+000
    endloop
  endfacet
  facet normal -0.000000e+000 0.000000e+000 -8.002400e-001
    outer loop
      vertex   -3.472000e+002 8.195000e+001 8.200000e+000
      vertex   -3.492000e+002 7.785000e+001 8.200000e+000
      vertex   -3.492000e+002 8.585000e+001 8.200000e+000
    endloop
  endfacet
  facet normal 0.000000e+000 0.000000e+000 -5.187166e-001
    outer loop
      vertex   -3.472000e+002 8.195000e+001 8.200000e+000
      vertex   -3.492000e+002 8.585000e+001 8.200000e+000
      vertex   -3.471898e+002 8.209232e+001 8.200000e+000
    endloop
  endfacet
  facet normal 0.000000e+000 0.000000e+000 -6.483820e-001
    outer loop
      vertex   -3.471898e+002 8.209232e+001 8.200000e+000
      vertex   -3.492000e+002 8.585000e+001 8.200000e+000
      vertex   -3.471595e+002 8.223174e+001 8.200000e+000
    endloop
  endfacet
  facet normal 0.000000e+000 0.000000e+000 -7.646659e-001
    outer loop
      vertex   -3.471595e+002 8.223174e+001 8.200000e+000
      vertex   -3.492000e+002 8.585000e+001 8.200000e+000
      vertex   -3.471096e+002 8.236542e+001 8.200000e+000
    endloop
  endfacet
  facet normal 0.000000e+000 0.000000e+000 -8.624251e-001
    outer loop
      vertex   -3.471096e+002 8.236542e+001 8.200000e+000
      vertex   -3.492000e+002 8.585000e+001 8.200000e+000
      vertex   -3.470413e+002 8.249064e+001 8.200000e+000
    endloop
  endfacet
  facet normal 0.000000e+000 0.000000e+000 -9.369494e-001
    outer loop
      vertex   -3.470413e+002 8.249064e+001 8.200000e+000
      vertex   -3.492000e+002 8.585000e+001 8.200000e+000
      vertex   -3.469557e+002 8.260486e+001 8.200000e+000
    endloop
  endfacet
  facet normal 0.000000e+000 0.000000e+000 -9.837813e-001
    outer loop
      vertex   -3.469557e+002 8.260486e+001 8.200000e+000
      vertex   -3.492000e+002 8.585000e+001 8.200000e+000
      vertex   -3.468549e+002 8.270575e+001 8.200000e+000
    endloop
  endfacet
  facet normal 0.000000e+000 0.000000e+000 -9.999985e-001
    outer loop
      vertex   -3.468549e+002 8.270575e+001 8.200000e+000
      vertex   -3.492000e+002 8.585000e+001 8.200000e+000
      vertex   -3.467406e+002 8.279125e+001 8.200000e+000
    endloop
  endfacet
  facet normal 0.000000e+000 0.000000e+000 -9.843161e-001
    outer loop
      vertex   -3.467406e+002 8.279125e+001 8.200000e+000
      vertex   -3.492000e+002 8.585000e+001 8.200000e+000
      vertex   -3.466154e+002 8.285963e+001 8.200000e+000
    endloop
  endfacet
  facet normal 0.000000e+000 0.000000e+000 -9.373686e-001
    outer loop
      vertex   -3.466154e+002 8.285963e+001 8.200000e+000
      vertex   -3.492000e+002 8.585000e+001 8.200000e+000
      vertex   -3.464817e+002 8.290949e+001 8.200000e+000
    endloop
  endfacet
  facet normal 0.000000e+000 0.000000e+000 -8.618241e-001
    outer loop
      vertex   -3.464817e+002 8.290949e+001 8.200000e+000
      vertex   -3.492000e+002 8.585000e+001 8.200000e+000
      vertex   -3.463423e+002 8.293982e+001 8.200000e+000
    endloop
  endfacet
  facet normal 0.000000e+000 -1.000000e+000 0.000000e+000
    outer loop
      vertex   -3.492000e+002 7.785000e+001 1.180000e+001
      vertex   -3.492000e+002 7.785000e+001 8.200000e+000
      vertex   -3.232000e+002 7.785000e+001 1.180000e+001
    endloop
  endfacet
  facet normal 0.000000e+000 -9.905499e-001 -0.000000e+000
    outer loop
      vertex   -3.232000e+002 7.785000e+001 1.180000e+001
      vertex   -3.492000e+002 7.785000e+001 8.200000e+000
      vertex   -3.232000e+002 7.785000e+001 8.200000e+000
    endloop
  endfacet
  facet normal 5.773503e-001 5.773503e-001 -0.000000e+000
    outer loop
      vertex   -3.237000e+002 9.285000e+001 6.300000e+000
      vertex   -3.237000e+002 9.285000e+001 1.130000e+001
      vertex   -3.232000e+002 9.235000e+001 5.800000e+000
    endloop
  endfacet
  facet normal 9.016696e-002 9.016696e-002 -0.000000e+000
    outer loop
      vertex   -3.232000e+002 9.235000e+001 5.800000e+000
      vertex   -3.237000e+002 9.285000e+001 1.130000e+001
      vertex   -3.232000e+002 9.235000e+001 1.180000e+001
    endloop
  endfacet
  facet normal -0.000000e+000 5.773503e-001 5.773503e-001
    outer loop
      vertex   -3.492000e+002 9.235000e+001 1.180000e+001
      vertex   -3.232000e+002 9.235000e+001 1.180000e+001
      vertex   -3.487000e+002 9.285000e+001 1.130000e+001
    endloop
  endfacet
  facet normal -0.000000e+000 1.960031e-002 1.960031e-002
    outer loop
      vertex   -3.487000e+002 9.285000e+001 1.130000e+001
      vertex   -3.232000e+002 9.235000e+001 1.180000e+001
      vertex   -3.237000e+002 9.285000e+001 1.130000e+001
    endloop
  endfacet
  facet normal -5.773503e-001 5.773503e-001 0.000000e+000
    outer loop
      vertex   -3.492000e+002 9.235000e+001 5.800000e+000
      vertex   -3.492000e+002 9.235000e+001 1.180000e+001
      vertex   -3.487000e+002 9.285000e+001 6.300000e+000
    endloop
  endfacet
  facet normal -9.016696e-002 9.016696e-002 0.000000e+000
    outer loop
      vertex   -3.487000e+002 9.285000e+001 6.300000e+000
      vertex   -3.492000e+002 9.235000e+001 1.180000e+001
      vertex   -3.487000e+002 9.285000e+001 1.130000e+001
    endloop
  endfacet
  facet normal 0.000000e+000 5.773503e-001 -5.773503e-001
    outer loop
      vertex   -3.232000e+002 9.235000e+001 5.800000e+000
      vertex   -3.492000e+002 9.235000e+001 5.800000e+000
      vertex   -3.237000e+002 9.285000e+001 6.300000e+000
    endloop
  endfacet
  facet normal 0.000000e+000 1.960031e-002 -1.960031e-002
    outer loop
      vertex   -3.237000e+002 9.285000e+001 6.300000e+000
      vertex   -3.492000e+002 9.235000e+001 5.800000e+000
      vertex   -3.487000e+002 9.285000e+001 6.300000e+000
    endloop
  endfacet
  facet normal 0.000000e+000 0.000000e+000 -1.000000e+000
    outer loop
      vertex   -3.492000e+002 9.235000e+001 5.800000e+000
      vertex   -3.232000e+002 9.235000e+001 5.800000e+000
      vertex   -3.492000e+002 8.585000e+001 5.800000e+000
    endloop
  endfacet
  facet normal 0.000000e+000 0.000000e+000 -2.425356e-001
    outer loop
      vertex   -3.492000e+002 8.585000e+001 5.800000e+000
      vertex   -3.232000e+002 9.235000e+001 5.800000e+000
      vertex   -3.232000e+002 8.585000e+001 5.800000e+000
    endloop
  endfacet
  facet normal 1.000000e+000 0.000000e+000 0.000000e+000
    outer loop
      vertex   -3.232000e+002 8.585000e+001 5.800000e+000
      vertex   -3.232000e+002 9.235000e+001 5.800000e+000
      vertex   -3.232000e+002 8.585000e+001 8.200000e+000
    endloop
  endfacet
  facet normal 7.575126e-001 -0.000000e+000 0.000000e+000
    outer loop
      vertex   -3.232000e+002 8.585000e+001 8.200000e+000
      vertex   -3.232000e+002 9.235000e+001 5.800000e+000
      vertex   -3.232000e+002 9.235000e+001 1.180000e+001
    endloop
  endfacet
  facet normal 8.008093e-001 0.000000e+000 -0.000000e+000
    outer loop
      vertex   -3.232000e+002 8.585000e+001 8.200000e+000
      vertex   -3.232000e+002 9.235000e+001 1.180000e+001
      vertex   -3.232000e+002 7.785000e+001 1.180000e+001
    endloop
  endfacet
  facet normal 9.119215e-001 0.000000e+000 0.000000e+000
    outer loop
      vertex   -3.232000e+002 7.785000e+001 1.180000e+001
      vertex   -3.232000e+002 7.785000e+001 8.200000e+000
      vertex   -3.232000e+002 8.585000e+001 8.200000e+000
    endloop
  endfacet
  facet normal 5.773503e-001 5.773503e-001 -0.000000e+000
    outer loop
      vertex   -3.252000e+002 1.088500e+002 7.800000e+000
      vertex   -3.252000e+002 1.088500e+002 9.800000e+000
      vertex   -3.237000e+002 1.073500e+002 6.300000e+000
    endloop
  endfacet
  facet normal 3.665083e-001 3.665083e-001 -0.000000e+000
    outer loop
      vertex   -3.237000e+002 1.073500e+002 6.300000e+000
      vertex   -3.252000e+002 1.088500e+002 9.800000e+000
      vertex   -3.237000e+002 1.073500e+002 1.130000e+001
    endloop
  endfacet
  facet normal 0.000000e+000 5.773503e-001 5.773503e-001
    outer loop
      vertex   -3.252000e+002 1.088500e+002 9.800000e+000
      vertex   -3.472000e+002 1.088500e+002 9.800000e+000
      vertex   -3.237000e+002 1.073500e+002 1.130000e+001
    endloop
  endfacet
  facet normal 0.000000e+000 6.357131e-002 6.357131e-002
    outer loop
      vertex   -3.237000e+002 1.073500e+002 1.130000e+001
      vertex   -3.472000e+002 1.088500e+002 9.800000e+000
      vertex   -3.487000e+002 1.073500e+002 1.130000e+001
    endloop
  endfacet
  facet normal -5.773503e-001 5.773503e-001 0.000000e+000
    outer loop
      vertex   -3.472000e+002 1.088500e+002 9.800000e+000
      vertex   -3.472000e+002 1.088500e+002 7.800000e+000
      vertex   -3.487000e+002 1.073500e+002 1.130000e+001
    endloop
  endfacet
  facet normal -3.665083e-001 3.665083e-001 0.000000e+000
    outer loop
      vertex   -3.487000e+002 1.073500e+002 1.130000e+001
      vertex   -3.472000e+002 1.088500e+002 7.800000e+000
      vertex   -3.487000e+002 1.073500e+002 6.300000e+000
    endloop
  endfacet
  facet normal 0.000000e+000 5.773503e-001 -5.773503e-001
    outer loop
      vertex   -3.237000e+002 1.073500e+002 6.300000e+000
      vertex   -3.487000e+002 1.073500e+002 6.300000e+000
      vertex   -3.252000e+002 1.088500e+002 7.800000e+000
    endloop
  endfacet
  facet normal 0.000000e+000 6.357131e-002 -6.357131e-002
    outer loop
      vertex   -3.252000e+002 1.088500e+002 7.800000e+000
      vertex   -3.487000e+002 1.073500e+002 6.300000e+000
      vertex   -3.472000e+002 1.088500e+002 7.800000e+000
    endloop
  endfacet
  facet normal 0.000000e+000 0.000000e+000 -1.000000e+000
    outer loop
      vertex   -3.487000e+002 1.073500e+002 6.300000e+000
      vertex   -3.237000e+002 1.073500e+002 6.300000e+000
      vertex   -3.487000e+002 9.285000e+001 6.300000e+000
    endloop
  endfacet
  facet normal 0.000000e+000 0.000000e+000 -5.017181e-001
    outer loop
      vertex   -3.487000e+002 9.285000e+001 6.300000e+000
      vertex   -3.237000e+002 1.073500e+002 6.300000e+000
      vertex   -3.237000e+002 9.285000e+001 6.300000e+000
    endloop
  endfacet
  facet normal 1.000000e+000 0.000000e+000 -0.000000e+000
    outer loop
      vertex   -3.237000e+002 1.073500e+002 6.300000e+000
      vertex   -3.237000e+002 1.073500e+002 1.130000e+001
      vertex   -3.237000e+002 9.285000e+001 6.300000e+000
    endloop
  endfacet
  facet normal 9.453730e-001 0.000000e+000 0.000000e+000
    outer loop
      vertex   -3.237000e+002 9.285000e+001 6.300000e+000
      vertex   -3.237000e+002 1.073500e+002 1.130000e+001
      vertex   -3.237000e+002 9.285000e+001 1.130000e+001
    endloop
  endfacet
  facet normal 0.000000e+000 1.000000e+000 0.000000e+000
    outer loop
      vertex   -3.252000e+002 1.088500e+002 9.800000e+000
      vertex   -3.252000e+002 1.088500e+002 7.800000e+000
      vertex   -3.472000e+002 1.088500e+002 9.800000e+000
    endloop
  endfacet
  facet normal 0.000000e+000 9.958932e-001 0.000000e+000
    outer loop
      vertex   -3.472000e+002 1.088500e+002 9.800000e+000
      vertex   -3.252000e+002 1.088500e+002 7.800000e+000
      vertex   -3.472000e+002 1.088500e+002 7.800000e+000
    endloop
  endfacet
  facet normal -1.000000e+000 -0.000000e+000 -0.000000e+000
    outer loop
      vertex   -3.487000e+002 1.073500e+002 1.130000e+001
      vertex   -3.487000e+002 1.073500e+002 6.300000e+000
      vertex   -3.487000e+002 9.285000e+001 1.130000e+001
    endloop
  endfacet
  facet normal -9.453730e-001 0.000000e+000 0.000000e+000
    outer loop
      vertex   -3.487000e+002 9.285000e+001 1.130000e+001
      vertex   -3.487000e+002 1.073500e+002 6.300000e+000
      vertex   -3.487000e+002 9.285000e+001 6.300000e+000
    endloop
  endfacet
  facet normal 0.000000e+000 0.000000e+000 1.000000e+000
    outer loop
      vertex   -3.237000e+002 1.073500e+002 1.130000e+001
      vertex   -3.487000e+002 1.073500e+002 1.130000e+001
      vertex   -3.237000e+002 9.285000e+001 1.130000e+001
    endloop
  endfacet
  facet normal 0.000000e+000 0.000000e+000 5.017181e-001
    outer loop
      vertex   -3.237000e+002 9.285000e+001 1.130000e+001
      vertex   -3.487000e+002 1.073500e+002 1.130000e+001
      vertex   -3.487000e+002 9.285000e+001 1.130000e+001
    endloop
  endfacet
  facet normal 0.000000e+000 -0.000000e+000 4.563165e-001
    outer loop
      vertex   -3.472000e+002 8.175000e+001 1.180000e+001
      vertex   -3.472000e+002 8.195000e+001 1.180000e+001
      vertex   -3.492000e+002 7.785000e+001 1.180000e+001
    endloop
  endfacet
  facet normal 0.000000e+000 0.000000e+000 1.133989e-002
    outer loop
      vertex   -3.492000e+002 7.785000e+001 1.180000e+001
      vertex   -3.472000e+002 8.195000e+001 1.180000e+001
      vertex   -3.471898e+002 8.209232e+001 1.180000e+001
    endloop
  endfacet
  facet normal 0.000000e+000 0.000000e+000 6.679795e-003
    outer loop
      vertex   -3.492000e+002 7.785000e+001 1.180000e+001
      vertex   -3.471898e+002 8.209232e+001 1.180000e+001
      vertex   -3.471595e+002 8.223174e+001 1.180000e+001
    endloop
  endfacet
  facet normal 0.000000e+000 0.000000e+000 4.221577e-001
    outer loop
      vertex   -3.492000e+002 7.785000e+001 1.180000e+001
      vertex   -3.471595e+002 8.223174e+001 1.180000e+001
      vertex   -3.492000e+002 9.235000e+001 1.180000e+001
    endloop
  endfacet
  facet normal 0.000000e+000 0.000000e+000 7.382467e-003
    outer loop
      vertex   -3.492000e+002 9.235000e+001 1.180000e+001
      vertex   -3.471595e+002 8.223174e+001 1.180000e+001
      vertex   -3.471096e+002 8.236542e+001 1.180000e+001
    endloop
  endfacet
  facet normal 0.000000e+000 0.000000e+000 9.171666e-003
    outer loop
      vertex   -3.492000e+002 9.235000e+001 1.180000e+001
      vertex   -3.471096e+002 8.236542e+001 1.180000e+001
      vertex   -3.470413e+002 8.249064e+001 1.180000e+001
    endloop
  endfacet
  facet normal 0.000000e+000 -0.000000e+000 7.566590e-001
    outer loop
      vertex   -3.470413e+002 8.249064e+001 1.180000e+001
      vertex   -3.469557e+002 8.260486e+001 1.180000e+001
      vertex   -3.492000e+002 9.235000e+001 1.180000e+001
    endloop
  endfacet
  facet normal 0.000000e+000 0.000000e+000 1.218703e-002
    outer loop
      vertex   -3.492000e+002 9.235000e+001 1.180000e+001
      vertex   -3.469557e+002 8.260486e+001 1.180000e+001
      vertex   -3.468549e+002 8.270575e+001 1.180000e+001
    endloop
  endfacet
  facet normal 0.000000e+000 0.000000e+000 1.329227e-002
    outer loop
      vertex   -3.492000e+002 9.235000e+001 1.180000e+001
      vertex   -3.468549e+002 8.270575e+001 1.180000e+001
      vertex   -3.467406e+002 8.279125e+001 1.180000e+001
    endloop
  endfacet
  facet normal 0.000000e+000 -0.000000e+000 9.693969e-001
    outer loop
      vertex   -3.467406e+002 8.279125e+001 1.180000e+001
      vertex   -3.466154e+002 8.285963e+001 1.180000e+001
      vertex   -3.492000e+002 9.235000e+001 1.180000e+001
    endloop
  endfacet
  facet normal 0.000000e+000 0.000000e+000 1.446452e-002
    outer loop
      vertex   -3.492000e+002 9.235000e+001 1.180000e+001
      vertex   -3.466154e+002 8.285963e+001 1.180000e+001
      vertex   -3.464817e+002 8.290949e+001 1.180000e+001
    endloop
  endfacet
  facet normal 0.000000e+000 0.000000e+000 1.447481e-002
    outer loop
      vertex   -3.492000e+002 9.235000e+001 1.180000e+001
      vertex   -3.464817e+002 8.290949e+001 1.180000e+001
      vertex   -3.463423e+002 8.293982e+001 1.180000e+001
    endloop
  endfacet
  facet normal 0.000000e+000 -0.000000e+000 9.751428e-001
    outer loop
      vertex   -3.463423e+002 8.293982e+001 1.180000e+001
      vertex   -3.462000e+002 8.295000e+001 1.180000e+001
      vertex   -3.492000e+002 9.235000e+001 1.180000e+001
    endloop
  endfacet
  facet normal 0.000000e+000 0.000000e+000 7.668287e-001
    outer loop
      vertex   -3.492000e+002 9.235000e+001 1.180000e+001
      vertex   -3.462000e+002 8.295000e+001 1.180000e+001
      vertex   -3.262000e+002 8.295000e+001 1.180000e+001
    endloop
  endfacet
  facet normal -0.000000e+000 0.000000e+000 3.783194e-001
    outer loop
      vertex   -3.492000e+002 9.235000e+001 1.180000e+001
      vertex   -3.262000e+002 8.295000e+001 1.180000e+001
      vertex   -3.232000e+002 9.235000e+001 1.180000e+001
    endloop
  endfacet
  facet normal 0.000000e+000 0.000000e+000 1.410239e-002
    outer loop
      vertex   -3.232000e+002 9.235000e+001 1.180000e+001
      vertex   -3.262000e+002 8.295000e+001 1.180000e+001
      vertex   -3.260577e+002 8.293982e+001 1.180000e+001
    endloop
  endfacet
  facet normal 0.000000e+000 0.000000e+000 1.447483e-002
    outer loop
      vertex   -3.232000e+002 9.235000e+001 1.180000e+001
      vertex   -3.260577e+002 8.293982e+001 1.180000e+001
      vertex   -3.259183e+002 8.290949e+001 1.180000e+001
    endloop
  endfacet
  facet normal -0.000000e+000 0.000000e+000 9.970683e-001
    outer loop
      vertex   -3.259183e+002 8.290949e+001 1.180000e+001
      vertex   -3.257846e+002 8.285963e+001 1.180000e+001
      vertex   -3.232000e+002 9.235000e+001 1.180000e+001
    endloop
  endfacet
  facet normal 0.000000e+000 0.000000e+000 1.406092e-002
    outer loop
      vertex   -3.232000e+002 9.235000e+001 1.180000e+001
      vertex   -3.257846e+002 8.285963e+001 1.180000e+001
      vertex   -3.256594e+002 8.279125e+001 1.180000e+001
    endloop
  endfacet
  facet normal 0.000000e+000 0.000000e+000 1.329226e-002
    outer loop
      vertex   -3.232000e+002 9.235000e+001 1.180000e+001
      vertex   -3.256594e+002 8.279125e+001 1.180000e+001
      vertex   -3.255451e+002 8.270575e+001 1.180000e+001
    endloop
  endfacet
  facet normal -0.000000e+000 0.000000e+000 8.541591e-001
    outer loop
      vertex   -3.255451e+002 8.270575e+001 1.180000e+001
      vertex   -3.254442e+002 8.260486e+001 1.180000e+001
      vertex   -3.232000e+002 9.235000e+001 1.180000e+001
    endloop
  endfacet
  facet normal 0.000000e+000 0.000000e+000 1.079590e-002
    outer loop
      vertex   -3.232000e+002 9.235000e+001 1.180000e+001
      vertex   -3.254442e+002 8.260486e+001 1.180000e+001
      vertex   -3.253587e+002 8.249064e+001 1.180000e+001
    endloop
  endfacet
  facet normal 0.000000e+000 0.000000e+000 9.171640e-003
    outer loop
      vertex   -3.232000e+002 9.235000e+001 1.180000e+001
      vertex   -3.253587e+002 8.249064e+001 1.180000e+001
      vertex   -3.252904e+002 8.236542e+001 1.180000e+001
    endloop
  endfacet
  facet normal -0.000000e+000 0.000000e+000 5.340714e-001
    outer loop
      vertex   -3.252904e+002 8.236542e+001 1.180000e+001
      vertex   -3.252405e+002 8.223174e+001 1.180000e+001
      vertex   -3.232000e+002 9.235000e+001 1.180000e+001
    endloop
  endfacet
  facet normal 0.000000e+000 0.000000e+000 1.976850e-001
    outer loop
      vertex   -3.232000e+002 9.235000e+001 1.180000e+001
      vertex   -3.252405e+002 8.223174e+001 1.180000e+001
      vertex   -3.232000e+002 7.785000e+001 1.180000e+001
    endloop
  endfacet
  facet normal 0.000000e+000 0.000000e+000 6.679644e-003
    outer loop
      vertex   -3.232000e+002 7.785000e+001 1.180000e+001
      vertex   -3.252405e+002 8.223174e+001 1.180000e+001
      vertex   -3.252102e+002 8.209232e+001 1.180000e+001
    endloop
  endfacet
  facet normal 0.000000e+000 0.000000e+000 1.134577e-002
    outer loop
      vertex   -3.232000e+002 7.785000e+001 1.180000e+001
      vertex   -3.252102e+002 8.209232e+001 1.180000e+001
      vertex   -3.252000e+002 8.195000e+001 1.180000e+001
    endloop
  endfacet
  facet normal 0.000000e+000 0.000000e+000 4.384238e-001
    outer loop
      vertex   -3.252000e+002 8.195000e+001 1.180000e+001
      vertex   -3.252000e+002 8.175000e+001 1.180000e+001
      vertex   -3.232000e+002 7.785000e+001 1.180000e+001
    endloop
  endfacet
  facet normal 0.000000e+000 0.000000e+000 1.736016e-002
    outer loop
      vertex   -3.232000e+002 7.785000e+001 1.180000e+001
      vertex   -3.252000e+002 8.175000e+001 1.180000e+001
      vertex   -3.252102e+002 8.160769e+001 1.180000e+001
    endloop
  endfacet
  facet normal 0.000000e+000 0.000000e+000 2.227055e-002
    outer loop
      vertex   -3.232000e+002 7.785000e+001 1.180000e+001
      vertex   -3.252102e+002 8.160769e+001 1.180000e+001
      vertex   -3.252405e+002 8.146827e+001 1.180000e+001
    endloop
  endfacet
  facet normal 0.000000e+000 0.000000e+000 7.646612e-001
    outer loop
      vertex   -3.252405e+002 8.146827e+001 1.180000e+001
      vertex   -3.252904e+002 8.133459e+001 1.180000e+001
      vertex   -3.232000e+002 7.785000e+001 1.180000e+001
    endloop
  endfacet
  facet normal 0.000000e+000 0.000000e+000 3.081300e-002
    outer loop
      vertex   -3.232000e+002 7.785000e+001 1.180000e+001
      vertex   -3.252904e+002 8.133459e+001 1.180000e+001
      vertex   -3.253587e+002 8.120936e+001 1.180000e+001
    endloop
  endfacet
  facet normal 0.000000e+000 0.000000e+000 3.388242e-002
    outer loop
      vertex   -3.232000e+002 7.785000e+001 1.180000e+001
      vertex   -3.253587e+002 8.120936e+001 1.180000e+001
      vertex   -3.254442e+002 8.109514e+001 1.180000e+001
    endloop
  endfacet
  facet normal 0.000000e+000 0.000000e+000 9.837802e-001
    outer loop
      vertex   -3.254442e+002 8.109514e+001 1.180000e+001
      vertex   -3.255451e+002 8.099425e+001 1.180000e+001
      vertex   -3.232000e+002 7.785000e+001 1.180000e+001
    endloop
  endfacet
  facet normal 0.000000e+000 0.000000e+000 3.635395e-002
    outer loop
      vertex   -3.232000e+002 7.785000e+001 1.180000e+001
      vertex   -3.255451e+002 8.099425e+001 1.180000e+001
      vertex   -3.256594e+002 8.090874e+001 1.180000e+001
    endloop
  endfacet
  facet normal 0.000000e+000 0.000000e+000 3.552867e-002
    outer loop
      vertex   -3.232000e+002 7.785000e+001 1.180000e+001
      vertex   -3.256594e+002 8.090874e+001 1.180000e+001
      vertex   -3.257846e+002 8.084037e+001 1.180000e+001
    endloop
  endfacet
  facet normal 0.000000e+000 0.000000e+000 9.373885e-001
    outer loop
      vertex   -3.257846e+002 8.084037e+001 1.180000e+001
      vertex   -3.259183e+002 8.079050e+001 1.180000e+001
      vertex   -3.232000e+002 7.785000e+001 1.180000e+001
    endloop
  endfacet
  facet normal 0.000000e+000 0.000000e+000 3.014537e-002
    outer loop
      vertex   -3.232000e+002 7.785000e+001 1.180000e+001
      vertex   -3.259183e+002 8.079050e+001 1.180000e+001
      vertex   -3.260577e+002 8.076018e+001 1.180000e+001
    endloop
  endfacet
  facet normal 0.000000e+000 0.000000e+000 2.604853e-002
    outer loop
      vertex   -3.232000e+002 7.785000e+001 1.180000e+001
      vertex   -3.260577e+002 8.076018e+001 1.180000e+001
      vertex   -3.262000e+002 8.075000e+001 1.180000e+001
    endloop
  endfacet
  facet normal 0.000000e+000 0.000000e+000 6.950223e-001
    outer loop
      vertex   -3.262000e+002 8.075000e+001 1.180000e+001
      vertex   -3.462000e+002 8.075000e+001 1.180000e+001
      vertex   -3.232000e+002 7.785000e+001 1.180000e+001
    endloop
  endfacet
  facet normal 0.000000e+000 0.000000e+000 1.250966e-001
    outer loop
      vertex   -3.232000e+002 7.785000e+001 1.180000e+001
      vertex   -3.462000e+002 8.075000e+001 1.180000e+001
      vertex   -3.492000e+002 7.785000e+001 1.180000e+001
    endloop
  endfacet
  facet normal 0.000000e+000 0.000000e+000 2.604319e-002
    outer loop
      vertex   -3.492000e+002 7.785000e+001 1.180000e+001
      vertex   -3.462000e+002 8.075000e+001 1.180000e+001
      vertex   -3.463423e+002 8.076018e+001 1.180000e+001
    endloop
  endfacet
  facet normal 0.000000e+000 0.000000e+000 3.014511e-002
    outer loop
      vertex   -3.492000e+002 7.785000e+001 1.180000e+001
      vertex   -3.463423e+002 8.076018e+001 1.180000e+001
      vertex   -3.464817e+002 8.079050e+001 1.180000e+001
    endloop
  endfacet
  facet normal 0.000000e+000 0.000000e+000 9.252295e-001
    outer loop
      vertex   -3.464817e+002 8.079050e+001 1.180000e+001
      vertex   -3.466154e+002 8.084037e+001 1.180000e+001
      vertex   -3.492000e+002 7.785000e+001 1.180000e+001
    endloop
  endfacet
  facet normal 0.000000e+000 0.000000e+000 3.552845e-002
    outer loop
      vertex   -3.492000e+002 7.785000e+001 1.180000e+001
      vertex   -3.466154e+002 8.084037e+001 1.180000e+001
      vertex   -3.467406e+002 8.090874e+001 1.180000e+001
    endloop
  endfacet
  facet normal 0.000000e+000 0.000000e+000 3.635377e-002
    outer loop
      vertex   -3.492000e+002 7.785000e+001 1.180000e+001
      vertex   -3.467406e+002 8.090874e+001 1.180000e+001
      vertex   -3.468549e+002 8.099425e+001 1.180000e+001
    endloop
  endfacet
  facet normal 0.000000e+000 0.000000e+000 9.895701e-001
    outer loop
      vertex   -3.468549e+002 8.099425e+001 1.180000e+001
      vertex   -3.469557e+002 8.109514e+001 1.180000e+001
      vertex   -3.492000e+002 7.785000e+001 1.180000e+001
    endloop
  endfacet
  facet normal 0.000000e+000 0.000000e+000 3.388236e-002
    outer loop
      vertex   -3.492000e+002 7.785000e+001 1.180000e+001
      vertex   -3.469557e+002 8.109514e+001 1.180000e+001
      vertex   -3.470413e+002 8.120936e+001 1.180000e+001
    endloop
  endfacet
  facet normal 0.000000e+000 0.000000e+000 3.081299e-002
    outer loop
      vertex   -3.492000e+002 7.785000e+001 1.180000e+001
      vertex   -3.470413e+002 8.120936e+001 1.180000e+001
      vertex   -3.471096e+002 8.133459e+001 1.180000e+001
    endloop
  endfacet
  facet normal 0.000000e+000 0.000000e+000 7.816921e-001
    outer loop
      vertex   -3.471096e+002 8.133459e+001 1.180000e+001
      vertex   -3.471595e+002 8.146827e+001 1.180000e+001
      vertex   -3.492000e+002 7.785000e+001 1.180000e+001
    endloop
  endfacet
  facet normal 0.000000e+000 0.000000e+000 2.227063e-002
    outer loop
      vertex   -3.492000e+002 7.785000e+001 1.180000e+001
      vertex   -3.471595e+002 8.146827e+001 1.180000e+001
      vertex   -3.471898e+002 8.160769e+001 1.180000e+001
    endloop
  endfacet
  facet normal 0.000000e+000 0.000000e+000 1.736647e-002
    outer loop
      vertex   -3.492000e+002 7.785000e+001 1.180000e+001
      vertex   -3.471898e+002 8.160769e+001 1.180000e+001
      vertex   -3.472000e+002 8.175000e+001 1.180000e+001
    endloop
  endfacet
  facet normal 0.000000e+000 -1.000000e+000 0.000000e+000
    outer loop
      vertex   -3.492000e+002 8.585000e+001 8.200000e+000
      vertex   -3.492000e+002 8.585000e+001 5.800000e+000
      vertex   -3.232000e+002 8.585000e+001 8.200000e+000
    endloop
  endfacet
  facet normal 0.000000e+000 -9.957667e-001 -0.000000e+000
    outer loop
      vertex   -3.232000e+002 8.585000e+001 8.200000e+000
      vertex   -3.492000e+002 8.585000e+001 5.800000e+000
      vertex   -3.232000e+002 8.585000e+001 5.800000e+000
    endloop
  endfacet
  facet normal -4.103647e-001 0.000000e+000 0.000000e+000
    outer loop
      vertex   -3.492000e+002 7.785000e+001 1.180000e+001
      vertex   -3.492000e+002 9.235000e+001 1.180000e+001
      vertex   -3.492000e+002 8.585000e+001 8.200000e+000
    endloop
  endfacet
  facet normal -7.575126e-001 0.000000e+000 0.000000e+000
    outer loop
      vertex   -3.492000e+002 8.585000e+001 8.200000e+000
      vertex   -3.492000e+002 9.235000e+001 1.180000e+001
      vertex   -3.492000e+002 9.235000e+001 5.800000e+000
    endloop
  endfacet
  facet normal -9.380965e-001 0.000000e+000 0.000000e+000
    outer loop
      vertex   -3.492000e+002 8.585000e+001 8.200000e+000
      vertex   -3.492000e+002 9.235000e+001 5.800000e+000
      vertex   -3.492000e+002 8.585000e+001 5.800000e+000
    endloop
  endfacet
  facet normal -4.103647e-001 0.000000e+000 0.000000e+000
    outer loop
      vertex   -3.492000e+002 8.585000e+001 8.200000e+000
      vertex   -3.492000e+002 7.785000e+001 8.200000e+000
      vertex   -3.492000e+002 7.785000e+001 1.180000e+001
    endloop
  endfacet
endsolid
