solid ascii
  facet normal 0.000000e+000 4.477205e-001 -8.941736e-001
    outer loop
      vertex   -3.119500e+002 3.307500e+002 -3.005046e+001
      vertex   -3.119500e+002 3.309384e+002 -2.995613e+001
      vertex   -3.070500e+002 3.307500e+002 -3.005046e+001
    endloop
  endfacet
  facet normal -3.469447e-018 4.473072e-001 -8.933482e-001
    outer loop
      vertex   -3.070500e+002 3.307500e+002 -3.005046e+001
      vertex   -3.119500e+002 3.309384e+002 -2.995613e+001
      vertex   -3.070500e+002 3.309384e+002 -2.995613e+001
    endloop
  endfacet
  facet normal 0.000000e+000 2.316600e-002 -3.617644e-002
    outer loop
      vertex   -3.070500e+002 3.309384e+002 -2.995613e+001
      vertex   -3.119500e+002 3.309384e+002 -2.995613e+001
      vertex   -3.119500e+002 3.311158e+002 -2.984251e+001
    endloop
  endfacet
  facet normal 3.469447e-018 5.387719e-001 -8.413557e-001
    outer loop
      vertex   -3.070500e+002 3.309384e+002 -2.995613e+001
      vertex   -3.119500e+002 3.311158e+002 -2.984251e+001
      vertex   -3.070500e+002 3.311158e+002 -2.984251e+001
    endloop
  endfacet
  facet normal 0.000000e+000 2.684299e-002 -3.353196e-002
    outer loop
      vertex   -3.070500e+002 3.311158e+002 -2.984251e+001
      vertex   -3.119500e+002 3.311158e+002 -2.984251e+001
      vertex   -3.119500e+002 3.312803e+002 -2.971086e+001
    endloop
  endfacet
  facet normal 0.000000e+000 6.243656e-001 -7.799504e-001
    outer loop
      vertex   -3.070500e+002 3.311158e+002 -2.984251e+001
      vertex   -3.119500e+002 3.312803e+002 -2.971086e+001
      vertex   -3.070500e+002 3.312803e+002 -2.971086e+001
    endloop
  endfacet
  facet normal 0.000000e+000 3.022170e-002 -3.052659e-002
    outer loop
      vertex   -3.070500e+002 3.312803e+002 -2.971086e+001
      vertex   -3.119500e+002 3.312803e+002 -2.971086e+001
      vertex   -3.119500e+002 3.314300e+002 -2.956263e+001
    endloop
  endfacet
  facet normal 3.469447e-018 7.028996e-001 -7.099908e-001
    outer loop
      vertex   -3.070500e+002 3.312803e+002 -2.971086e+001
      vertex   -3.119500e+002 3.314300e+002 -2.956263e+001
      vertex   -3.070500e+002 3.314300e+002 -2.956263e+001
    endloop
  endfacet
  facet normal 0.000000e+000 7.743903e-001 -6.327082e-001
    outer loop
      vertex   -3.070500e+002 3.314300e+002 -2.956263e+001
      vertex   -3.119500e+002 3.314300e+002 -2.956263e+001
      vertex   -3.070500e+002 3.315633e+002 -2.939948e+001
    endloop
  endfacet
  facet normal 0.000000e+000 3.326518e-002 -2.717900e-002
    outer loop
      vertex   -3.070500e+002 3.315633e+002 -2.939948e+001
      vertex   -3.119500e+002 3.314300e+002 -2.956263e+001
      vertex   -3.119500e+002 3.315633e+002 -2.939948e+001
    endloop
  endfacet
  facet normal 0.000000e+000 8.366759e-001 -5.476984e-001
    outer loop
      vertex   -3.070500e+002 3.315633e+002 -2.939948e+001
      vertex   -3.119500e+002 3.315633e+002 -2.939948e+001
      vertex   -3.070500e+002 3.316787e+002 -2.922322e+001
    endloop
  endfacet
  facet normal 0.000000e+000 3.593960e-002 -2.352651e-002
    outer loop
      vertex   -3.070500e+002 3.316787e+002 -2.922322e+001
      vertex   -3.119500e+002 3.315633e+002 -2.939948e+001
      vertex   -3.119500e+002 3.316787e+002 -2.922322e+001
    endloop
  endfacet
  facet normal 0.000000e+000 8.896164e-001 -4.567085e-001
    outer loop
      vertex   -3.070500e+002 3.316787e+002 -2.922322e+001
      vertex   -3.119500e+002 3.316787e+002 -2.922322e+001
      vertex   -3.070500e+002 3.317749e+002 -2.903579e+001
    endloop
  endfacet
  facet normal 0.000000e+000 3.821541e-002 -1.961890e-002
    outer loop
      vertex   -3.070500e+002 3.317749e+002 -2.903579e+001
      vertex   -3.119500e+002 3.316787e+002 -2.922322e+001
      vertex   -3.119500e+002 3.317749e+002 -2.903579e+001
    endloop
  endfacet
  facet normal 0.000000e+000 4.006693e-002 -1.548730e-002
    outer loop
      vertex   -3.070500e+002 3.317749e+002 -2.903579e+001
      vertex   -3.119500e+002 3.317749e+002 -2.903579e+001
      vertex   -3.119500e+002 3.318509e+002 -2.883928e+001
    endloop
  endfacet
  facet normal -1.734723e-018 9.318832e-001 -3.602061e-001
    outer loop
      vertex   -3.070500e+002 3.317749e+002 -2.903579e+001
      vertex   -3.119500e+002 3.318509e+002 -2.883928e+001
      vertex   -3.070500e+002 3.318509e+002 -2.883928e+001
    endloop
  endfacet
  facet normal 0.000000e+000 4.147356e-002 -1.118769e-002
    outer loop
      vertex   -3.070500e+002 3.318509e+002 -2.883928e+001
      vertex   -3.119500e+002 3.318509e+002 -2.883928e+001
      vertex   -3.119500e+002 3.319057e+002 -2.863587e+001
    endloop
  endfacet
  facet normal 3.469447e-018 9.645975e-001 -2.602048e-001
    outer loop
      vertex   -3.070500e+002 3.318509e+002 -2.883928e+001
      vertex   -3.119500e+002 3.319057e+002 -2.863587e+001
      vertex   -3.070500e+002 3.319057e+002 -2.863587e+001
    endloop
  endfacet
  facet normal 0.000000e+000 4.242051e-002 -6.763637e-003
    outer loop
      vertex   -3.070500e+002 3.319057e+002 -2.863587e+001
      vertex   -3.119500e+002 3.319057e+002 -2.863587e+001
      vertex   -3.119500e+002 3.319389e+002 -2.842781e+001
    endloop
  endfacet
  facet normal 0.000000e+000 9.866148e-001 -1.573084e-001
    outer loop
      vertex   -3.070500e+002 3.319057e+002 -2.863587e+001
      vertex   -3.119500e+002 3.319389e+002 -2.842781e+001
      vertex   -3.070500e+002 3.319389e+002 -2.842781e+001
    endloop
  endfacet
  facet normal 0.000000e+000 4.289652e-002 -2.264916e-003
    outer loop
      vertex   -3.070500e+002 3.319389e+002 -2.842781e+001
      vertex   -3.119500e+002 3.319389e+002 -2.842781e+001
      vertex   -3.119500e+002 3.319500e+002 -2.821742e+001
    endloop
  endfacet
  facet normal 0.000000e+000 9.976872e-001 -5.267742e-002
    outer loop
      vertex   -3.070500e+002 3.319389e+002 -2.842781e+001
      vertex   -3.119500e+002 3.319500e+002 -2.821742e+001
      vertex   -3.070500e+002 3.319500e+002 -2.821742e+001
    endloop
  endfacet
  facet normal 0.000000e+000 1.000000e+000 0.000000e+000
    outer loop
      vertex   -3.119500e+002 3.319500e+002 -2.821742e+001
      vertex   -3.119500e+002 3.319500e+002 -2.680000e+001
      vertex   -3.070500e+002 3.319500e+002 -2.821742e+001
    endloop
  endfacet
  facet normal 0.000000e+000 9.606168e-001 -0.000000e+000
    outer loop
      vertex   -3.070500e+002 3.319500e+002 -2.821742e+001
      vertex   -3.119500e+002 3.319500e+002 -2.680000e+001
      vertex   -3.070500e+002 3.319500e+002 -2.680000e+001
    endloop
  endfacet
  facet normal -1.000000e+000 -0.000000e+000 -0.000000e+000
    outer loop
      vertex   -3.119500e+002 3.319500e+002 -2.680000e+001
      vertex   -3.119500e+002 3.319500e+002 -2.821742e+001
      vertex   -3.119500e+002 3.289500e+002 -2.680000e+001
    endloop
  endfacet
  facet normal -5.728656e-002 0.000000e+000 0.000000e+000
    outer loop
      vertex   -3.119500e+002 3.289500e+002 -2.680000e+001
      vertex   -3.119500e+002 3.319500e+002 -2.821742e+001
      vertex   -3.119500e+002 3.319389e+002 -2.842781e+001
    endloop
  endfacet
  facet normal -5.707180e-002 0.000000e+000 0.000000e+000
    outer loop
      vertex   -3.119500e+002 3.289500e+002 -2.680000e+001
      vertex   -3.119500e+002 3.319389e+002 -2.842781e+001
      vertex   -3.119500e+002 3.319057e+002 -2.863587e+001
    endloop
  endfacet
  facet normal -9.575768e-001 -0.000000e+000 0.000000e+000
    outer loop
      vertex   -3.119500e+002 3.319057e+002 -2.863587e+001
      vertex   -3.119500e+002 3.318509e+002 -2.883928e+001
      vertex   -3.119500e+002 3.289500e+002 -2.680000e+001
    endloop
  endfacet
  facet normal -5.674927e-002 0.000000e+000 0.000000e+000
    outer loop
      vertex   -3.119500e+002 3.289500e+002 -2.680000e+001
      vertex   -3.119500e+002 3.318509e+002 -2.883928e+001
      vertex   -3.119500e+002 3.317749e+002 -2.903579e+001
    endloop
  endfacet
  facet normal -5.663608e-002 0.000000e+000 0.000000e+000
    outer loop
      vertex   -3.119500e+002 3.289500e+002 -2.680000e+001
      vertex   -3.119500e+002 3.317749e+002 -2.903579e+001
      vertex   -3.119500e+002 3.316787e+002 -2.922322e+001
    endloop
  endfacet
  facet normal -9.892783e-001 -0.000000e+000 0.000000e+000
    outer loop
      vertex   -3.119500e+002 3.316787e+002 -2.922322e+001
      vertex   -3.119500e+002 3.315633e+002 -2.939948e+001
      vertex   -3.119500e+002 3.289500e+002 -2.680000e+001
    endloop
  endfacet
  facet normal -5.647936e-002 0.000000e+000 0.000000e+000
    outer loop
      vertex   -3.119500e+002 3.289500e+002 -2.680000e+001
      vertex   -3.119500e+002 3.315633e+002 -2.939948e+001
      vertex   -3.119500e+002 3.314300e+002 -2.956263e+001
    endloop
  endfacet
  facet normal -5.643493e-002 0.000000e+000 0.000000e+000
    outer loop
      vertex   -3.119500e+002 3.289500e+002 -2.680000e+001
      vertex   -3.119500e+002 3.314300e+002 -2.956263e+001
      vertex   -3.119500e+002 3.312803e+002 -2.971086e+001
    endloop
  endfacet
  facet normal -1.000000e+000 -0.000000e+000 0.000000e+000
    outer loop
      vertex   -3.119500e+002 3.312803e+002 -2.971086e+001
      vertex   -3.119500e+002 3.311158e+002 -2.984251e+001
      vertex   -3.119500e+002 3.289500e+002 -2.680000e+001
    endloop
  endfacet
  facet normal -5.641352e-002 0.000000e+000 0.000000e+000
    outer loop
      vertex   -3.119500e+002 3.289500e+002 -2.680000e+001
      vertex   -3.119500e+002 3.311158e+002 -2.984251e+001
      vertex   -3.119500e+002 3.309384e+002 -2.995613e+001
    endloop
  endfacet
  facet normal -5.643025e-002 0.000000e+000 0.000000e+000
    outer loop
      vertex   -3.119500e+002 3.289500e+002 -2.680000e+001
      vertex   -3.119500e+002 3.309384e+002 -2.995613e+001
      vertex   -3.119500e+002 3.307500e+002 -3.005046e+001
    endloop
  endfacet
  facet normal -9.986065e-001 -0.000000e+000 0.000000e+000
    outer loop
      vertex   -3.119500e+002 3.307500e+002 -3.005046e+001
      vertex   -3.119500e+002 3.305267e+002 -3.015913e+001
      vertex   -3.119500e+002 3.289500e+002 -2.680000e+001
    endloop
  endfacet
  facet normal -6.604168e-002 0.000000e+000 0.000000e+000
    outer loop
      vertex   -3.119500e+002 3.289500e+002 -2.680000e+001
      vertex   -3.119500e+002 3.305267e+002 -3.015913e+001
      vertex   -3.119500e+002 3.303131e+002 -3.028590e+001
    endloop
  endfacet
  facet normal -6.320665e-002 0.000000e+000 0.000000e+000
    outer loop
      vertex   -3.119500e+002 3.289500e+002 -2.680000e+001
      vertex   -3.119500e+002 3.303131e+002 -3.028590e+001
      vertex   -3.119500e+002 3.301108e+002 -3.042990e+001
    endloop
  endfacet
  facet normal -9.242079e-001 -0.000000e+000 0.000000e+000
    outer loop
      vertex   -3.119500e+002 3.301108e+002 -3.042990e+001
      vertex   -3.119500e+002 3.299211e+002 -3.059015e+001
      vertex   -3.119500e+002 3.289500e+002 -2.680000e+001
    endloop
  endfacet
  facet normal -5.287943e-002 0.000000e+000 0.000000e+000
    outer loop
      vertex   -3.119500e+002 3.289500e+002 -2.680000e+001
      vertex   -3.119500e+002 3.299211e+002 -3.059015e+001
      vertex   -3.119500e+002 3.297452e+002 -3.076553e+001
    endloop
  endfacet
  facet normal -4.634610e-002 0.000000e+000 0.000000e+000
    outer loop
      vertex   -3.119500e+002 3.289500e+002 -2.680000e+001
      vertex   -3.119500e+002 3.297452e+002 -3.076553e+001
      vertex   -3.119500e+002 3.295845e+002 -3.095486e+001
    endloop
  endfacet
  facet normal -6.979739e-001 -0.000000e+000 0.000000e+000
    outer loop
      vertex   -3.119500e+002 3.295845e+002 -3.095486e+001
      vertex   -3.119500e+002 3.294400e+002 -3.115683e+001
      vertex   -3.119500e+002 3.289500e+002 -2.680000e+001
    endloop
  endfacet
  facet normal -3.279665e-002 0.000000e+000 0.000000e+000
    outer loop
      vertex   -3.119500e+002 3.289500e+002 -2.680000e+001
      vertex   -3.119500e+002 3.294400e+002 -3.115683e+001
      vertex   -3.119500e+002 3.293127e+002 -3.137007e+001
    endloop
  endfacet
  facet normal -2.636058e-002 0.000000e+000 0.000000e+000
    outer loop
      vertex   -3.119500e+002 3.289500e+002 -2.680000e+001
      vertex   -3.119500e+002 3.293127e+002 -3.137007e+001
      vertex   -3.119500e+002 3.292035e+002 -3.159310e+001
    endloop
  endfacet
  facet normal -4.127739e-001 -0.000000e+000 0.000000e+000
    outer loop
      vertex   -3.119500e+002 3.292035e+002 -3.159310e+001
      vertex   -3.119500e+002 3.291131e+002 -3.182440e+001
      vertex   -3.119500e+002 3.289500e+002 -2.680000e+001
    endloop
  endfacet
  facet normal -9.670727e-001 0.000000e+000 -0.000000e+000
    outer loop
      vertex   -3.119500e+002 3.289500e+002 -2.680000e+001
      vertex   -3.119500e+002 3.291131e+002 -3.182440e+001
      vertex   -3.119500e+002 3.180500e+002 -3.005000e+001
    endloop
  endfacet
  facet normal -9.583090e-001 -0.000000e+000 0.000000e+000
    outer loop
      vertex   -3.119500e+002 3.289500e+002 -2.680000e+001
      vertex   -3.119500e+002 3.180500e+002 -3.005000e+001
      vertex   -3.119500e+002 3.289500e+002 1.180000e+001
    endloop
  endfacet
  facet normal -9.677153e-001 -0.000000e+000 0.000000e+000
    outer loop
      vertex   -3.119500e+002 3.289500e+002 1.180000e+001
      vertex   -3.119500e+002 3.180500e+002 -3.005000e+001
      vertex   -3.119500e+002 2.930500e+002 1.180000e+001
    endloop
  endfacet
  facet normal -7.322525e-001 0.000000e+000 0.000000e+000
    outer loop
      vertex   -3.119500e+002 3.289500e+002 1.180000e+001
      vertex   -3.119500e+002 2.930500e+002 1.180000e+001
      vertex   -3.119500e+002 2.930500e+002 5.040000e+001
    endloop
  endfacet
  facet normal -9.914538e-001 -0.000000e+000 0.000000e+000
    outer loop
      vertex   -3.119500e+002 3.291131e+002 -3.182440e+001
      vertex   -3.119500e+002 3.290421e+002 -3.206239e+001
      vertex   -3.119500e+002 3.180500e+002 -3.005000e+001
    endloop
  endfacet
  facet normal -2.222347e-002 0.000000e+000 0.000000e+000
    outer loop
      vertex   -3.119500e+002 3.180500e+002 -3.005000e+001
      vertex   -3.119500e+002 3.290421e+002 -3.206239e+001
      vertex   -3.119500e+002 3.289911e+002 -3.230544e+001
    endloop
  endfacet
  facet normal -2.211785e-002 0.000000e+000 0.000000e+000
    outer loop
      vertex   -3.119500e+002 3.180500e+002 -3.005000e+001
      vertex   -3.119500e+002 3.289911e+002 -3.230544e+001
      vertex   -3.119500e+002 3.289603e+002 -3.255187e+001
    endloop
  endfacet
  facet normal -9.830987e-001 -0.000000e+000 0.000000e+000
    outer loop
      vertex   -3.119500e+002 3.289603e+002 -3.255187e+001
      vertex   -3.119500e+002 3.289500e+002 -3.280000e+001
      vertex   -3.119500e+002 3.180500e+002 -3.005000e+001
    endloop
  endfacet
  facet normal -9.696171e-001 0.000000e+000 0.000000e+000
    outer loop
      vertex   -3.119500e+002 3.180500e+002 -3.005000e+001
      vertex   -3.119500e+002 3.289500e+002 -3.280000e+001
      vertex   -3.119500e+002 3.180500e+002 -3.515000e+001
    endloop
  endfacet
  facet normal -9.984121e-001 0.000000e+000 0.000000e+000
    outer loop
      vertex   -3.119500e+002 3.180500e+002 -3.515000e+001
      vertex   -3.119500e+002 3.289500e+002 -3.280000e+001
      vertex   -3.119500e+002 3.190000e+002 -3.860000e+001
    endloop
  endfacet
  facet normal -9.641151e-001 -0.000000e+000 -0.000000e+000
    outer loop
      vertex   -3.119500e+002 3.180500e+002 -3.515000e+001
      vertex   -3.119500e+002 3.190000e+002 -3.860000e+001
      vertex   -3.119500e+002 3.039500e+002 -3.515000e+001
    endloop
  endfacet
  facet normal -5.071536e-001 0.000000e+000 -0.000000e+000
    outer loop
      vertex   -3.119500e+002 3.039500e+002 -3.515000e+001
      vertex   -3.119500e+002 3.190000e+002 -3.860000e+001
      vertex   -3.119500e+002 2.930500e+002 -3.860000e+001
    endloop
  endfacet
  facet normal -4.959098e-001 -0.000000e+000 0.000000e+000
    outer loop
      vertex   -3.119500e+002 3.039500e+002 -3.515000e+001
      vertex   -3.119500e+002 2.930500e+002 -3.860000e+001
      vertex   -3.119500e+002 2.930500e+002 -3.280000e+001
    endloop
  endfacet
  facet normal -8.639366e-001 0.000000e+000 -0.000000e+000
    outer loop
      vertex   -3.119500e+002 3.289500e+002 -3.280000e+001
      vertex   -3.119500e+002 3.289500e+002 -3.860000e+001
      vertex   -3.119500e+002 3.190000e+002 -3.860000e+001
    endloop
  endfacet
  facet normal -1.000000e+000 0.000000e+000 0.000000e+000
    outer loop
      vertex   -3.119500e+002 3.190000e+002 -3.860000e+001
      vertex   -3.119500e+002 3.289500e+002 -3.860000e+001
      vertex   -3.119500e+002 3.190000e+002 -4.560000e+001
    endloop
  endfacet
  facet normal -9.851903e-001 0.000000e+000 0.000000e+000
    outer loop
      vertex   -3.119500e+002 3.190000e+002 -4.560000e+001
      vertex   -3.119500e+002 3.289500e+002 -3.860000e+001
      vertex   -3.119500e+002 3.220000e+002 -4.860000e+001
    endloop
  endfacet
  facet normal -8.211557e-001 0.000000e+000 0.000000e+000
    outer loop
      vertex   -3.119500e+002 3.220000e+002 -4.860000e+001
      vertex   -3.119500e+002 3.289500e+002 -3.860000e+001
      vertex   -3.119500e+002 3.290000e+002 -4.860000e+001
    endloop
  endfacet
  facet normal -4.998717e-003 0.000000e+000 0.000000e+000
    outer loop
      vertex   -3.119500e+002 3.290000e+002 -4.860000e+001
      vertex   -3.119500e+002 3.289500e+002 -3.860000e+001
      vertex   -3.119500e+002 3.290000e+002 -3.860000e+001
    endloop
  endfacet
  facet normal -9.775392e-001 0.000000e+000 0.000000e+000
    outer loop
      vertex   -3.119500e+002 3.039500e+002 -3.515000e+001
      vertex   -3.119500e+002 2.930500e+002 -3.280000e+001
      vertex   -3.119500e+002 3.039500e+002 -3.005000e+001
    endloop
  endfacet
  facet normal -2.171807e-002 0.000000e+000 0.000000e+000
    outer loop
      vertex   -3.119500e+002 3.039500e+002 -3.005000e+001
      vertex   -3.119500e+002 2.930500e+002 -3.280000e+001
      vertex   -3.119500e+002 2.930397e+002 -3.255187e+001
    endloop
  endfacet
  facet normal -2.211785e-002 0.000000e+000 0.000000e+000
    outer loop
      vertex   -3.119500e+002 3.039500e+002 -3.005000e+001
      vertex   -3.119500e+002 2.930397e+002 -3.255187e+001
      vertex   -3.119500e+002 2.930089e+002 -3.230544e+001
    endloop
  endfacet
  facet normal -9.999934e-001 0.000000e+000 0.000000e+000
    outer loop
      vertex   -3.119500e+002 2.930089e+002 -3.230544e+001
      vertex   -3.119500e+002 2.929579e+002 -3.206239e+001
      vertex   -3.119500e+002 3.039500e+002 -3.005000e+001
    endloop
  endfacet
  facet normal -2.203403e-002 0.000000e+000 0.000000e+000
    outer loop
      vertex   -3.119500e+002 3.039500e+002 -3.005000e+001
      vertex   -3.119500e+002 2.929579e+002 -3.206239e+001
      vertex   -3.119500e+002 2.928869e+002 -3.182440e+001
    endloop
  endfacet
  facet normal -4.338910e-001 -0.000000e+000 0.000000e+000
    outer loop
      vertex   -3.119500e+002 3.039500e+002 -3.005000e+001
      vertex   -3.119500e+002 2.928869e+002 -3.182440e+001
      vertex   -3.119500e+002 2.930500e+002 -2.680000e+001
    endloop
  endfacet
  facet normal -2.039222e-002 0.000000e+000 0.000000e+000
    outer loop
      vertex   -3.119500e+002 2.930500e+002 -2.680000e+001
      vertex   -3.119500e+002 2.928869e+002 -3.182440e+001
      vertex   -3.119500e+002 2.927965e+002 -3.159310e+001
    endloop
  endfacet
  facet normal -2.636058e-002 0.000000e+000 0.000000e+000
    outer loop
      vertex   -3.119500e+002 2.930500e+002 -2.680000e+001
      vertex   -3.119500e+002 2.927965e+002 -3.159310e+001
      vertex   -3.119500e+002 2.926873e+002 -3.137007e+001
    endloop
  endfacet
  facet normal -5.789773e-001 0.000000e+000 0.000000e+000
    outer loop
      vertex   -3.119500e+002 2.926873e+002 -3.137007e+001
      vertex   -3.119500e+002 2.925600e+002 -3.115683e+001
      vertex   -3.119500e+002 2.930500e+002 -2.680000e+001
    endloop
  endfacet
  facet normal -3.953558e-002 0.000000e+000 0.000000e+000
    outer loop
      vertex   -3.119500e+002 2.930500e+002 -2.680000e+001
      vertex   -3.119500e+002 2.925600e+002 -3.115683e+001
      vertex   -3.119500e+002 2.924155e+002 -3.095486e+001
    endloop
  endfacet
  facet normal -4.634610e-002 0.000000e+000 0.000000e+000
    outer loop
      vertex   -3.119500e+002 2.930500e+002 -2.680000e+001
      vertex   -3.119500e+002 2.924155e+002 -3.095486e+001
      vertex   -3.119500e+002 2.922548e+002 -3.076553e+001
    endloop
  endfacet
  facet normal -8.330541e-001 0.000000e+000 0.000000e+000
    outer loop
      vertex   -3.119500e+002 2.922548e+002 -3.076553e+001
      vertex   -3.119500e+002 2.920789e+002 -3.059015e+001
      vertex   -3.119500e+002 2.930500e+002 -2.680000e+001
    endloop
  endfacet
  facet normal -5.866264e-002 0.000000e+000 0.000000e+000
    outer loop
      vertex   -3.119500e+002 2.930500e+002 -2.680000e+001
      vertex   -3.119500e+002 2.920789e+002 -3.059015e+001
      vertex   -3.119500e+002 2.918892e+002 -3.042990e+001
    endloop
  endfacet
  facet normal -6.320665e-002 0.000000e+000 0.000000e+000
    outer loop
      vertex   -3.119500e+002 2.930500e+002 -2.680000e+001
      vertex   -3.119500e+002 2.918892e+002 -3.042990e+001
      vertex   -3.119500e+002 2.916869e+002 -3.028590e+001
    endloop
  endfacet
  facet normal -9.867535e-001 0.000000e+000 0.000000e+000
    outer loop
      vertex   -3.119500e+002 2.916869e+002 -3.028590e+001
      vertex   -3.119500e+002 2.914733e+002 -3.015913e+001
      vertex   -3.119500e+002 2.930500e+002 -2.680000e+001
    endloop
  endfacet
  facet normal -6.683042e-002 0.000000e+000 0.000000e+000
    outer loop
      vertex   -3.119500e+002 2.930500e+002 -2.680000e+001
      vertex   -3.119500e+002 2.914733e+002 -3.015913e+001
      vertex   -3.119500e+002 2.912500e+002 -3.005046e+001
    endloop
  endfacet
  facet normal -5.643025e-002 0.000000e+000 0.000000e+000
    outer loop
      vertex   -3.119500e+002 2.930500e+002 -2.680000e+001
      vertex   -3.119500e+002 2.912500e+002 -3.005046e+001
      vertex   -3.119500e+002 2.910616e+002 -2.995613e+001
    endloop
  endfacet
  facet normal -9.999728e-001 0.000000e+000 0.000000e+000
    outer loop
      vertex   -3.119500e+002 2.910616e+002 -2.995613e+001
      vertex   -3.119500e+002 2.908842e+002 -2.984251e+001
      vertex   -3.119500e+002 2.930500e+002 -2.680000e+001
    endloop
  endfacet
  facet normal -5.640803e-002 0.000000e+000 0.000000e+000
    outer loop
      vertex   -3.119500e+002 2.930500e+002 -2.680000e+001
      vertex   -3.119500e+002 2.908842e+002 -2.984251e+001
      vertex   -3.119500e+002 2.907197e+002 -2.971086e+001
    endloop
  endfacet
  facet normal -5.643493e-002 0.000000e+000 0.000000e+000
    outer loop
      vertex   -3.119500e+002 2.930500e+002 -2.680000e+001
      vertex   -3.119500e+002 2.907197e+002 -2.971086e+001
      vertex   -3.119500e+002 2.905700e+002 -2.956263e+001
    endloop
  endfacet
  facet normal -9.881324e-001 0.000000e+000 0.000000e+000
    outer loop
      vertex   -3.119500e+002 2.905700e+002 -2.956263e+001
      vertex   -3.119500e+002 2.904367e+002 -2.939948e+001
      vertex   -3.119500e+002 2.930500e+002 -2.680000e+001
    endloop
  endfacet
  facet normal -5.654303e-002 0.000000e+000 0.000000e+000
    outer loop
      vertex   -3.119500e+002 2.930500e+002 -2.680000e+001
      vertex   -3.119500e+002 2.904367e+002 -2.939948e+001
      vertex   -3.119500e+002 2.903213e+002 -2.922322e+001
    endloop
  endfacet
  facet normal -5.663608e-002 0.000000e+000 0.000000e+000
    outer loop
      vertex   -3.119500e+002 2.930500e+002 -2.680000e+001
      vertex   -3.119500e+002 2.903213e+002 -2.922322e+001
      vertex   -3.119500e+002 2.902251e+002 -2.903579e+001
    endloop
  endfacet
  facet normal -9.551395e-001 0.000000e+000 0.000000e+000
    outer loop
      vertex   -3.119500e+002 2.902251e+002 -2.903579e+001
      vertex   -3.119500e+002 2.901491e+002 -2.883928e+001
      vertex   -3.119500e+002 2.930500e+002 -2.680000e+001
    endloop
  endfacet
  facet normal -5.689417e-002 0.000000e+000 0.000000e+000
    outer loop
      vertex   -3.119500e+002 2.930500e+002 -2.680000e+001
      vertex   -3.119500e+002 2.901491e+002 -2.883928e+001
      vertex   -3.119500e+002 2.900943e+002 -2.863587e+001
    endloop
  endfacet
  facet normal -5.707180e-002 0.000000e+000 0.000000e+000
    outer loop
      vertex   -3.119500e+002 2.930500e+002 -2.680000e+001
      vertex   -3.119500e+002 2.900943e+002 -2.863587e+001
      vertex   -3.119500e+002 2.900611e+002 -2.842781e+001
    endloop
  endfacet
  facet normal -9.021998e-001 0.000000e+000 0.000000e+000
    outer loop
      vertex   -3.119500e+002 2.900611e+002 -2.842781e+001
      vertex   -3.119500e+002 2.900500e+002 -2.821742e+001
      vertex   -3.119500e+002 2.930500e+002 -2.680000e+001
    endloop
  endfacet
  facet normal -4.271932e-001 -0.000000e+000 0.000000e+000
    outer loop
      vertex   -3.119500e+002 2.930500e+002 -2.680000e+001
      vertex   -3.119500e+002 2.900500e+002 -2.821742e+001
      vertex   -3.119500e+002 2.900500e+002 -2.680000e+001
    endloop
  endfacet
  facet normal -9.583090e-001 0.000000e+000 0.000000e+000
    outer loop
      vertex   -3.119500e+002 2.930500e+002 -2.680000e+001
      vertex   -3.119500e+002 2.930500e+002 1.180000e+001
      vertex   -3.119500e+002 3.039500e+002 -3.005000e+001
    endloop
  endfacet
  facet normal -9.677153e-001 0.000000e+000 0.000000e+000
    outer loop
      vertex   -3.119500e+002 3.039500e+002 -3.005000e+001
      vertex   -3.119500e+002 2.930500e+002 1.180000e+001
      vertex   -3.119500e+002 3.180500e+002 -3.005000e+001
    endloop
  endfacet
  facet normal -7.322525e-001 0.000000e+000 0.000000e+000
    outer loop
      vertex   -3.119500e+002 2.930500e+002 5.040000e+001
      vertex   -3.119500e+002 3.289500e+002 5.040000e+001
      vertex   -3.119500e+002 3.289500e+002 1.180000e+001
    endloop
  endfacet
  facet normal -0.000000e+000 -4.477205e-001 -8.941736e-001
    outer loop
      vertex   -3.070500e+002 2.912500e+002 -3.005046e+001
      vertex   -3.070500e+002 2.910616e+002 -2.995613e+001
      vertex   -3.119500e+002 2.912500e+002 -3.005046e+001
    endloop
  endfacet
  facet normal 3.469447e-018 -4.473072e-001 -8.933482e-001
    outer loop
      vertex   -3.119500e+002 2.912500e+002 -3.005046e+001
      vertex   -3.070500e+002 2.910616e+002 -2.995613e+001
      vertex   -3.119500e+002 2.910616e+002 -2.995613e+001
    endloop
  endfacet
  facet normal 0.000000e+000 -2.316600e-002 -3.617644e-002
    outer loop
      vertex   -3.119500e+002 2.910616e+002 -2.995613e+001
      vertex   -3.070500e+002 2.910616e+002 -2.995613e+001
      vertex   -3.070500e+002 2.908842e+002 -2.984251e+001
    endloop
  endfacet
  facet normal -3.469447e-018 -5.387719e-001 -8.413557e-001
    outer loop
      vertex   -3.119500e+002 2.910616e+002 -2.995613e+001
      vertex   -3.070500e+002 2.908842e+002 -2.984251e+001
      vertex   -3.119500e+002 2.908842e+002 -2.984251e+001
    endloop
  endfacet
  facet normal 0.000000e+000 -2.684299e-002 -3.353196e-002
    outer loop
      vertex   -3.119500e+002 2.908842e+002 -2.984251e+001
      vertex   -3.070500e+002 2.908842e+002 -2.984251e+001
      vertex   -3.070500e+002 2.907197e+002 -2.971086e+001
    endloop
  endfacet
  facet normal 0.000000e+000 -6.243656e-001 -7.799504e-001
    outer loop
      vertex   -3.119500e+002 2.908842e+002 -2.984251e+001
      vertex   -3.070500e+002 2.907197e+002 -2.971086e+001
      vertex   -3.119500e+002 2.907197e+002 -2.971086e+001
    endloop
  endfacet
  facet normal 0.000000e+000 -3.022170e-002 -3.052659e-002
    outer loop
      vertex   -3.119500e+002 2.907197e+002 -2.971086e+001
      vertex   -3.070500e+002 2.907197e+002 -2.971086e+001
      vertex   -3.070500e+002 2.905700e+002 -2.956263e+001
    endloop
  endfacet
  facet normal -3.469447e-018 -7.028996e-001 -7.099908e-001
    outer loop
      vertex   -3.119500e+002 2.907197e+002 -2.971086e+001
      vertex   -3.070500e+002 2.905700e+002 -2.956263e+001
      vertex   -3.119500e+002 2.905700e+002 -2.956263e+001
    endloop
  endfacet
  facet normal 0.000000e+000 -7.743903e-001 -6.327082e-001
    outer loop
      vertex   -3.119500e+002 2.905700e+002 -2.956263e+001
      vertex   -3.070500e+002 2.905700e+002 -2.956263e+001
      vertex   -3.119500e+002 2.904367e+002 -2.939948e+001
    endloop
  endfacet
  facet normal 0.000000e+000 -3.326518e-002 -2.717900e-002
    outer loop
      vertex   -3.119500e+002 2.904367e+002 -2.939948e+001
      vertex   -3.070500e+002 2.905700e+002 -2.956263e+001
      vertex   -3.070500e+002 2.904367e+002 -2.939948e+001
    endloop
  endfacet
  facet normal 0.000000e+000 -8.366759e-001 -5.476984e-001
    outer loop
      vertex   -3.119500e+002 2.904367e+002 -2.939948e+001
      vertex   -3.070500e+002 2.904367e+002 -2.939948e+001
      vertex   -3.119500e+002 2.903213e+002 -2.922322e+001
    endloop
  endfacet
  facet normal 0.000000e+000 -3.593960e-002 -2.352651e-002
    outer loop
      vertex   -3.119500e+002 2.903213e+002 -2.922322e+001
      vertex   -3.070500e+002 2.904367e+002 -2.939948e+001
      vertex   -3.070500e+002 2.903213e+002 -2.922322e+001
    endloop
  endfacet
  facet normal 0.000000e+000 -8.896164e-001 -4.567085e-001
    outer loop
      vertex   -3.119500e+002 2.903213e+002 -2.922322e+001
      vertex   -3.070500e+002 2.903213e+002 -2.922322e+001
      vertex   -3.119500e+002 2.902251e+002 -2.903579e+001
    endloop
  endfacet
  facet normal 0.000000e+000 -3.821541e-002 -1.961890e-002
    outer loop
      vertex   -3.119500e+002 2.902251e+002 -2.903579e+001
      vertex   -3.070500e+002 2.903213e+002 -2.922322e+001
      vertex   -3.070500e+002 2.902251e+002 -2.903579e+001
    endloop
  endfacet
  facet normal 0.000000e+000 -4.006693e-002 -1.548730e-002
    outer loop
      vertex   -3.119500e+002 2.902251e+002 -2.903579e+001
      vertex   -3.070500e+002 2.902251e+002 -2.903579e+001
      vertex   -3.070500e+002 2.901491e+002 -2.883928e+001
    endloop
  endfacet
  facet normal 1.734723e-018 -9.318832e-001 -3.602061e-001
    outer loop
      vertex   -3.119500e+002 2.902251e+002 -2.903579e+001
      vertex   -3.070500e+002 2.901491e+002 -2.883928e+001
      vertex   -3.119500e+002 2.901491e+002 -2.883928e+001
    endloop
  endfacet
  facet normal 0.000000e+000 -4.147356e-002 -1.118769e-002
    outer loop
      vertex   -3.119500e+002 2.901491e+002 -2.883928e+001
      vertex   -3.070500e+002 2.901491e+002 -2.883928e+001
      vertex   -3.070500e+002 2.900943e+002 -2.863587e+001
    endloop
  endfacet
  facet normal -3.469447e-018 -9.645975e-001 -2.602048e-001
    outer loop
      vertex   -3.119500e+002 2.901491e+002 -2.883928e+001
      vertex   -3.070500e+002 2.900943e+002 -2.863587e+001
      vertex   -3.119500e+002 2.900943e+002 -2.863587e+001
    endloop
  endfacet
  facet normal 0.000000e+000 -4.242051e-002 -6.763637e-003
    outer loop
      vertex   -3.119500e+002 2.900943e+002 -2.863587e+001
      vertex   -3.070500e+002 2.900943e+002 -2.863587e+001
      vertex   -3.070500e+002 2.900611e+002 -2.842781e+001
    endloop
  endfacet
  facet normal 0.000000e+000 -9.866148e-001 -1.573084e-001
    outer loop
      vertex   -3.119500e+002 2.900943e+002 -2.863587e+001
      vertex   -3.070500e+002 2.900611e+002 -2.842781e+001
      vertex   -3.119500e+002 2.900611e+002 -2.842781e+001
    endloop
  endfacet
  facet normal 0.000000e+000 -4.289652e-002 -2.264916e-003
    outer loop
      vertex   -3.119500e+002 2.900611e+002 -2.842781e+001
      vertex   -3.070500e+002 2.900611e+002 -2.842781e+001
      vertex   -3.070500e+002 2.900500e+002 -2.821742e+001
    endloop
  endfacet
  facet normal 0.000000e+000 -9.976872e-001 -5.267742e-002
    outer loop
      vertex   -3.119500e+002 2.900611e+002 -2.842781e+001
      vertex   -3.070500e+002 2.900500e+002 -2.821742e+001
      vertex   -3.119500e+002 2.900500e+002 -2.821742e+001
    endloop
  endfacet
  facet normal 0.000000e+000 -1.000000e+000 0.000000e+000
    outer loop
      vertex   -3.070500e+002 2.900500e+002 -2.821742e+001
      vertex   -3.070500e+002 2.900500e+002 -2.680000e+001
      vertex   -3.119500e+002 2.900500e+002 -2.821742e+001
    endloop
  endfacet
  facet normal 0.000000e+000 -9.606168e-001 0.000000e+000
    outer loop
      vertex   -3.119500e+002 2.900500e+002 -2.821742e+001
      vertex   -3.070500e+002 2.900500e+002 -2.680000e+001
      vertex   -3.119500e+002 2.900500e+002 -2.680000e+001
    endloop
  endfacet
  facet normal 0.000000e+000 -4.376027e-001 -8.991684e-001
    outer loop
      vertex   -3.119500e+002 2.912500e+002 -3.005046e+001
      vertex   -3.119500e+002 2.914733e+002 -3.015913e+001
      vertex   -3.070500e+002 2.912500e+002 -3.005046e+001
    endloop
  endfacet
  facet normal 0.000000e+000 -4.370418e-001 -8.980159e-001
    outer loop
      vertex   -3.070500e+002 2.912500e+002 -3.005046e+001
      vertex   -3.119500e+002 2.914733e+002 -3.015913e+001
      vertex   -3.070500e+002 2.914733e+002 -3.015913e+001
    endloop
  endfacet
  facet normal -0.000000e+000 -2.583853e-002 -4.352799e-002
    outer loop
      vertex   -3.070500e+002 2.914733e+002 -3.015913e+001
      vertex   -3.119500e+002 2.914733e+002 -3.015913e+001
      vertex   -3.119500e+002 2.916869e+002 -3.028590e+001
    endloop
  endfacet
  facet normal 0.000000e+000 -5.097935e-001 -8.588063e-001
    outer loop
      vertex   -3.070500e+002 2.914733e+002 -3.015913e+001
      vertex   -3.119500e+002 2.916869e+002 -3.028590e+001
      vertex   -3.070500e+002 2.916869e+002 -3.028590e+001
    endloop
  endfacet
  facet normal -0.000000e+000 -2.935014e-002 -4.123902e-002
    outer loop
      vertex   -3.070500e+002 2.916869e+002 -3.028590e+001
      vertex   -3.119500e+002 2.916869e+002 -3.028590e+001
      vertex   -3.119500e+002 2.918892e+002 -3.042990e+001
    endloop
  endfacet
  facet normal 0.000000e+000 -5.791035e-001 -8.136812e-001
    outer loop
      vertex   -3.070500e+002 2.916869e+002 -3.028590e+001
      vertex   -3.119500e+002 2.918892e+002 -3.042990e+001
      vertex   -3.070500e+002 2.918892e+002 -3.042990e+001
    endloop
  endfacet
  facet normal -0.000000e+000 -3.266077e-002 -3.867013e-002
    outer loop
      vertex   -3.070500e+002 2.918892e+002 -3.042990e+001
      vertex   -3.119500e+002 2.918892e+002 -3.042990e+001
      vertex   -3.119500e+002 2.920789e+002 -3.059015e+001
    endloop
  endfacet
  facet normal 0.000000e+000 -6.444228e-001 -7.629922e-001
    outer loop
      vertex   -3.070500e+002 2.918892e+002 -3.042990e+001
      vertex   -3.119500e+002 2.920789e+002 -3.059015e+001
      vertex   -3.070500e+002 2.920789e+002 -3.059015e+001
    endloop
  endfacet
  facet normal -0.000000e+000 -3.574708e-002 -3.584000e-002
    outer loop
      vertex   -3.070500e+002 2.920789e+002 -3.059015e+001
      vertex   -3.119500e+002 2.920789e+002 -3.059015e+001
      vertex   -3.119500e+002 2.922548e+002 -3.076553e+001
    endloop
  endfacet
  facet normal 3.469447e-018 -7.052831e-001 -7.071162e-001
    outer loop
      vertex   -3.070500e+002 2.920789e+002 -3.059015e+001
      vertex   -3.119500e+002 2.922548e+002 -3.076553e+001
      vertex   -3.070500e+002 2.922548e+002 -3.076553e+001
    endloop
  endfacet
  facet normal -0.000000e+000 -3.858849e-002 -3.275485e-002
    outer loop
      vertex   -3.070500e+002 2.922548e+002 -3.076553e+001
      vertex   -3.119500e+002 2.922548e+002 -3.076553e+001
      vertex   -3.119500e+002 2.924155e+002 -3.095486e+001
    endloop
  endfacet
  facet normal 0.000000e+000 -7.614042e-001 -6.462984e-001
    outer loop
      vertex   -3.070500e+002 2.922548e+002 -3.076553e+001
      vertex   -3.119500e+002 2.924155e+002 -3.095486e+001
      vertex   -3.070500e+002 2.924155e+002 -3.095486e+001
    endloop
  endfacet
  facet normal -0.000000e+000 -4.116593e-002 -2.945200e-002
    outer loop
      vertex   -3.070500e+002 2.924155e+002 -3.095486e+001
      vertex   -3.119500e+002 2.924155e+002 -3.095486e+001
      vertex   -3.119500e+002 2.925600e+002 -3.115683e+001
    endloop
  endfacet
  facet normal -3.469447e-018 -8.122444e-001 -5.811170e-001
    outer loop
      vertex   -3.070500e+002 2.924155e+002 -3.095486e+001
      vertex   -3.119500e+002 2.925600e+002 -3.115683e+001
      vertex   -3.070500e+002 2.925600e+002 -3.115683e+001
    endloop
  endfacet
  facet normal -0.000000e+000 -4.346113e-002 -2.595010e-002
    outer loop
      vertex   -3.070500e+002 2.925600e+002 -3.115683e+001
      vertex   -3.119500e+002 2.925600e+002 -3.115683e+001
      vertex   -3.119500e+002 2.926873e+002 -3.137007e+001
    endloop
  endfacet
  facet normal 0.000000e+000 -8.574935e-001 -5.119987e-001
    outer loop
      vertex   -3.070500e+002 2.925600e+002 -3.115683e+001
      vertex   -3.119500e+002 2.926873e+002 -3.137007e+001
      vertex   -3.070500e+002 2.926873e+002 -3.137007e+001
    endloop
  endfacet
  facet normal -0.000000e+000 -4.545816e-002 -2.226160e-002
    outer loop
      vertex   -3.070500e+002 2.926873e+002 -3.137007e+001
      vertex   -3.119500e+002 2.926873e+002 -3.137007e+001
      vertex   -3.119500e+002 2.927965e+002 -3.159310e+001
    endloop
  endfacet
  facet normal 0.000000e+000 -8.969398e-001 -4.392460e-001
    outer loop
      vertex   -3.070500e+002 2.926873e+002 -3.137007e+001
      vertex   -3.119500e+002 2.927965e+002 -3.159310e+001
      vertex   -3.070500e+002 2.927965e+002 -3.159310e+001
    endloop
  endfacet
  facet normal -0.000000e+000 -4.714418e-002 -1.843004e-002
    outer loop
      vertex   -3.070500e+002 2.927965e+002 -3.159310e+001
      vertex   -3.119500e+002 2.927965e+002 -3.159310e+001
      vertex   -3.119500e+002 2.928869e+002 -3.182440e+001
    endloop
  endfacet
  facet normal 0.000000e+000 -9.301673e-001 -3.636297e-001
    outer loop
      vertex   -3.070500e+002 2.927965e+002 -3.159310e+001
      vertex   -3.119500e+002 2.928869e+002 -3.182440e+001
      vertex   -3.070500e+002 2.928869e+002 -3.182440e+001
    endloop
  endfacet
  facet normal -0.000000e+000 -4.850638e-002 -1.446787e-002
    outer loop
      vertex   -3.070500e+002 2.928869e+002 -3.182440e+001
      vertex   -3.119500e+002 2.928869e+002 -3.182440e+001
      vertex   -3.119500e+002 2.929579e+002 -3.206239e+001
    endloop
  endfacet
  facet normal 0.000000e+000 -9.570537e-001 -2.854578e-001
    outer loop
      vertex   -3.070500e+002 2.928869e+002 -3.182440e+001
      vertex   -3.119500e+002 2.929579e+002 -3.206239e+001
      vertex   -3.070500e+002 2.929579e+002 -3.206239e+001
    endloop
  endfacet
  facet normal -0.000000e+000 -4.953736e-002 -1.039994e-002
    outer loop
      vertex   -3.070500e+002 2.929579e+002 -3.206239e+001
      vertex   -3.119500e+002 2.929579e+002 -3.206239e+001
      vertex   -3.119500e+002 2.930089e+002 -3.230544e+001
    endloop
  endfacet
  facet normal 0.000000e+000 -9.774105e-001 -2.051990e-001
    outer loop
      vertex   -3.070500e+002 2.929579e+002 -3.206239e+001
      vertex   -3.119500e+002 2.930089e+002 -3.230544e+001
      vertex   -3.070500e+002 2.930089e+002 -3.230544e+001
    endloop
  endfacet
  facet normal -0.000000e+000 -5.022778e-002 -6.276043e-003
    outer loop
      vertex   -3.070500e+002 2.930089e+002 -3.230544e+001
      vertex   -3.119500e+002 2.930089e+002 -3.230544e+001
      vertex   -3.119500e+002 2.930397e+002 -3.255187e+001
    endloop
  endfacet
  facet normal 0.000000e+000 -9.910117e-001 -1.238285e-001
    outer loop
      vertex   -3.070500e+002 2.930089e+002 -3.230544e+001
      vertex   -3.119500e+002 2.930397e+002 -3.255187e+001
      vertex   -3.070500e+002 2.930397e+002 -3.255187e+001
    endloop
  endfacet
  facet normal -0.000000e+000 -9.991472e-001 -4.128936e-002
    outer loop
      vertex   -3.070500e+002 2.930397e+002 -3.255187e+001
      vertex   -3.119500e+002 2.930397e+002 -3.255187e+001
      vertex   -3.070500e+002 2.930500e+002 -3.280000e+001
    endloop
  endfacet
  facet normal -0.000000e+000 -5.057377e-002 -2.089941e-003
    outer loop
      vertex   -3.070500e+002 2.930500e+002 -3.280000e+001
      vertex   -3.119500e+002 2.930397e+002 -3.255187e+001
      vertex   -3.119500e+002 2.930500e+002 -3.280000e+001
    endloop
  endfacet
  facet normal 0.000000e+000 4.376027e-001 -8.991684e-001
    outer loop
      vertex   -3.070500e+002 3.307500e+002 -3.005046e+001
      vertex   -3.070500e+002 3.305267e+002 -3.015913e+001
      vertex   -3.119500e+002 3.307500e+002 -3.005046e+001
    endloop
  endfacet
  facet normal 0.000000e+000 4.370418e-001 -8.980159e-001
    outer loop
      vertex   -3.119500e+002 3.307500e+002 -3.005046e+001
      vertex   -3.070500e+002 3.305267e+002 -3.015913e+001
      vertex   -3.119500e+002 3.305267e+002 -3.015913e+001
    endloop
  endfacet
  facet normal 0.000000e+000 2.583853e-002 -4.352799e-002
    outer loop
      vertex   -3.119500e+002 3.305267e+002 -3.015913e+001
      vertex   -3.070500e+002 3.305267e+002 -3.015913e+001
      vertex   -3.070500e+002 3.303131e+002 -3.028590e+001
    endloop
  endfacet
  facet normal 0.000000e+000 5.097935e-001 -8.588063e-001
    outer loop
      vertex   -3.119500e+002 3.305267e+002 -3.015913e+001
      vertex   -3.070500e+002 3.303131e+002 -3.028590e+001
      vertex   -3.119500e+002 3.303131e+002 -3.028590e+001
    endloop
  endfacet
  facet normal 0.000000e+000 2.935014e-002 -4.123902e-002
    outer loop
      vertex   -3.119500e+002 3.303131e+002 -3.028590e+001
      vertex   -3.070500e+002 3.303131e+002 -3.028590e+001
      vertex   -3.070500e+002 3.301108e+002 -3.042990e+001
    endloop
  endfacet
  facet normal 0.000000e+000 5.791035e-001 -8.136812e-001
    outer loop
      vertex   -3.119500e+002 3.303131e+002 -3.028590e+001
      vertex   -3.070500e+002 3.301108e+002 -3.042990e+001
      vertex   -3.119500e+002 3.301108e+002 -3.042990e+001
    endloop
  endfacet
  facet normal 0.000000e+000 3.266077e-002 -3.867013e-002
    outer loop
      vertex   -3.119500e+002 3.301108e+002 -3.042990e+001
      vertex   -3.070500e+002 3.301108e+002 -3.042990e+001
      vertex   -3.070500e+002 3.299211e+002 -3.059015e+001
    endloop
  endfacet
  facet normal 0.000000e+000 6.444228e-001 -7.629922e-001
    outer loop
      vertex   -3.119500e+002 3.301108e+002 -3.042990e+001
      vertex   -3.070500e+002 3.299211e+002 -3.059015e+001
      vertex   -3.119500e+002 3.299211e+002 -3.059015e+001
    endloop
  endfacet
  facet normal 0.000000e+000 3.574708e-002 -3.584000e-002
    outer loop
      vertex   -3.119500e+002 3.299211e+002 -3.059015e+001
      vertex   -3.070500e+002 3.299211e+002 -3.059015e+001
      vertex   -3.070500e+002 3.297452e+002 -3.076553e+001
    endloop
  endfacet
  facet normal -3.469447e-018 7.052831e-001 -7.071162e-001
    outer loop
      vertex   -3.119500e+002 3.299211e+002 -3.059015e+001
      vertex   -3.070500e+002 3.297452e+002 -3.076553e+001
      vertex   -3.119500e+002 3.297452e+002 -3.076553e+001
    endloop
  endfacet
  facet normal 0.000000e+000 3.858849e-002 -3.275485e-002
    outer loop
      vertex   -3.119500e+002 3.297452e+002 -3.076553e+001
      vertex   -3.070500e+002 3.297452e+002 -3.076553e+001
      vertex   -3.070500e+002 3.295845e+002 -3.095486e+001
    endloop
  endfacet
  facet normal 0.000000e+000 7.614042e-001 -6.462984e-001
    outer loop
      vertex   -3.119500e+002 3.297452e+002 -3.076553e+001
      vertex   -3.070500e+002 3.295845e+002 -3.095486e+001
      vertex   -3.119500e+002 3.295845e+002 -3.095486e+001
    endloop
  endfacet
  facet normal 0.000000e+000 4.116593e-002 -2.945200e-002
    outer loop
      vertex   -3.119500e+002 3.295845e+002 -3.095486e+001
      vertex   -3.070500e+002 3.295845e+002 -3.095486e+001
      vertex   -3.070500e+002 3.294400e+002 -3.115683e+001
    endloop
  endfacet
  facet normal 3.469447e-018 8.122444e-001 -5.811170e-001
    outer loop
      vertex   -3.119500e+002 3.295845e+002 -3.095486e+001
      vertex   -3.070500e+002 3.294400e+002 -3.115683e+001
      vertex   -3.119500e+002 3.294400e+002 -3.115683e+001
    endloop
  endfacet
  facet normal 0.000000e+000 4.346113e-002 -2.595010e-002
    outer loop
      vertex   -3.119500e+002 3.294400e+002 -3.115683e+001
      vertex   -3.070500e+002 3.294400e+002 -3.115683e+001
      vertex   -3.070500e+002 3.293127e+002 -3.137007e+001
    endloop
  endfacet
  facet normal 0.000000e+000 8.574935e-001 -5.119987e-001
    outer loop
      vertex   -3.119500e+002 3.294400e+002 -3.115683e+001
      vertex   -3.070500e+002 3.293127e+002 -3.137007e+001
      vertex   -3.119500e+002 3.293127e+002 -3.137007e+001
    endloop
  endfacet
  facet normal 0.000000e+000 4.545816e-002 -2.226160e-002
    outer loop
      vertex   -3.119500e+002 3.293127e+002 -3.137007e+001
      vertex   -3.070500e+002 3.293127e+002 -3.137007e+001
      vertex   -3.070500e+002 3.292035e+002 -3.159310e+001
    endloop
  endfacet
  facet normal 0.000000e+000 8.969398e-001 -4.392460e-001
    outer loop
      vertex   -3.119500e+002 3.293127e+002 -3.137007e+001
      vertex   -3.070500e+002 3.292035e+002 -3.159310e+001
      vertex   -3.119500e+002 3.292035e+002 -3.159310e+001
    endloop
  endfacet
  facet normal 0.000000e+000 4.714418e-002 -1.843004e-002
    outer loop
      vertex   -3.119500e+002 3.292035e+002 -3.159310e+001
      vertex   -3.070500e+002 3.292035e+002 -3.159310e+001
      vertex   -3.070500e+002 3.291131e+002 -3.182440e+001
    endloop
  endfacet
  facet normal 0.000000e+000 9.301673e-001 -3.636297e-001
    outer loop
      vertex   -3.119500e+002 3.292035e+002 -3.159310e+001
      vertex   -3.070500e+002 3.291131e+002 -3.182440e+001
      vertex   -3.119500e+002 3.291131e+002 -3.182440e+001
    endloop
  endfacet
  facet normal 0.000000e+000 4.850638e-002 -1.446787e-002
    outer loop
      vertex   -3.119500e+002 3.291131e+002 -3.182440e+001
      vertex   -3.070500e+002 3.291131e+002 -3.182440e+001
      vertex   -3.070500e+002 3.290421e+002 -3.206239e+001
    endloop
  endfacet
  facet normal 0.000000e+000 9.570537e-001 -2.854578e-001
    outer loop
      vertex   -3.119500e+002 3.291131e+002 -3.182440e+001
      vertex   -3.070500e+002 3.290421e+002 -3.206239e+001
      vertex   -3.119500e+002 3.290421e+002 -3.206239e+001
    endloop
  endfacet
  facet normal 0.000000e+000 4.953736e-002 -1.039994e-002
    outer loop
      vertex   -3.119500e+002 3.290421e+002 -3.206239e+001
      vertex   -3.070500e+002 3.290421e+002 -3.206239e+001
      vertex   -3.070500e+002 3.289911e+002 -3.230544e+001
    endloop
  endfacet
  facet normal 0.000000e+000 9.774105e-001 -2.051990e-001
    outer loop
      vertex   -3.119500e+002 3.290421e+002 -3.206239e+001
      vertex   -3.070500e+002 3.289911e+002 -3.230544e+001
      vertex   -3.119500e+002 3.289911e+002 -3.230544e+001
    endloop
  endfacet
  facet normal 0.000000e+000 5.022778e-002 -6.276043e-003
    outer loop
      vertex   -3.119500e+002 3.289911e+002 -3.230544e+001
      vertex   -3.070500e+002 3.289911e+002 -3.230544e+001
      vertex   -3.070500e+002 3.289603e+002 -3.255187e+001
    endloop
  endfacet
  facet normal 0.000000e+000 9.910117e-001 -1.238285e-001
    outer loop
      vertex   -3.119500e+002 3.289911e+002 -3.230544e+001
      vertex   -3.070500e+002 3.289603e+002 -3.255187e+001
      vertex   -3.119500e+002 3.289603e+002 -3.255187e+001
    endloop
  endfacet
  facet normal 0.000000e+000 9.991472e-001 -4.128936e-002
    outer loop
      vertex   -3.119500e+002 3.289603e+002 -3.255187e+001
      vertex   -3.070500e+002 3.289603e+002 -3.255187e+001
      vertex   -3.119500e+002 3.289500e+002 -3.280000e+001
    endloop
  endfacet
  facet normal 0.000000e+000 5.057377e-002 -2.089941e-003
    outer loop
      vertex   -3.119500e+002 3.289500e+002 -3.280000e+001
      vertex   -3.070500e+002 3.289603e+002 -3.255187e+001
      vertex   -3.070500e+002 3.289500e+002 -3.280000e+001
    endloop
  endfacet
  facet normal 0.000000e+000 0.000000e+000 1.000000e+000
    outer loop
      vertex   -3.119500e+002 2.900500e+002 -2.680000e+001
      vertex   -3.070500e+002 2.900500e+002 -2.680000e+001
      vertex   -3.119500e+002 2.930500e+002 -2.680000e+001
    endloop
  endfacet
  facet normal -0.000000e+000 0.000000e+000 5.221519e-001
    outer loop
      vertex   -3.119500e+002 2.930500e+002 -2.680000e+001
      vertex   -3.070500e+002 2.900500e+002 -2.680000e+001
      vertex   -3.070500e+002 2.930500e+002 -2.680000e+001
    endloop
  endfacet
  facet normal 0.000000e+000 -1.000000e+000 0.000000e+000
    outer loop
      vertex   -3.070500e+002 2.930500e+002 -2.680000e+001
      vertex   -3.070500e+002 2.930500e+002 1.180000e+001
      vertex   -3.119500e+002 2.930500e+002 -2.680000e+001
    endloop
  endfacet
  facet normal 0.000000e+000 -1.259330e-001 0.000000e+000
    outer loop
      vertex   -3.119500e+002 2.930500e+002 -2.680000e+001
      vertex   -3.070500e+002 2.930500e+002 1.180000e+001
      vertex   -3.119500e+002 2.930500e+002 1.180000e+001
    endloop
  endfacet
  facet normal 0.000000e+000 -9.920387e-001 0.000000e+000
    outer loop
      vertex   -3.119500e+002 2.930500e+002 1.180000e+001
      vertex   -3.070500e+002 2.930500e+002 1.180000e+001
      vertex   -3.070500e+002 2.930500e+002 5.040000e+001
    endloop
  endfacet
  facet normal 0.000000e+000 -1.259330e-001 0.000000e+000
    outer loop
      vertex   -3.119500e+002 2.930500e+002 1.180000e+001
      vertex   -3.070500e+002 2.930500e+002 5.040000e+001
      vertex   -3.119500e+002 2.930500e+002 5.040000e+001
    endloop
  endfacet
  facet normal 0.000000e+000 0.000000e+000 1.000000e+000
    outer loop
      vertex   -3.119500e+002 3.289500e+002 -2.680000e+001
      vertex   -3.070500e+002 3.289500e+002 -2.680000e+001
      vertex   -3.119500e+002 3.319500e+002 -2.680000e+001
    endloop
  endfacet
  facet normal -0.000000e+000 0.000000e+000 5.221519e-001
    outer loop
      vertex   -3.119500e+002 3.319500e+002 -2.680000e+001
      vertex   -3.070500e+002 3.289500e+002 -2.680000e+001
      vertex   -3.070500e+002 3.319500e+002 -2.680000e+001
    endloop
  endfacet
  facet normal 0.000000e+000 1.000000e+000 0.000000e+000
    outer loop
      vertex   -3.119500e+002 3.289500e+002 -2.680000e+001
      vertex   -3.119500e+002 3.289500e+002 1.180000e+001
      vertex   -3.070500e+002 3.289500e+002 -2.680000e+001
    endloop
  endfacet
  facet normal 0.000000e+000 1.259330e-001 -0.000000e+000
    outer loop
      vertex   -3.070500e+002 3.289500e+002 -2.680000e+001
      vertex   -3.119500e+002 3.289500e+002 1.180000e+001
      vertex   -3.070500e+002 3.289500e+002 1.180000e+001
    endloop
  endfacet
  facet normal 0.000000e+000 9.920387e-001 0.000000e+000
    outer loop
      vertex   -3.070500e+002 3.289500e+002 1.180000e+001
      vertex   -3.119500e+002 3.289500e+002 1.180000e+001
      vertex   -3.119500e+002 3.289500e+002 5.040000e+001
    endloop
  endfacet
  facet normal 0.000000e+000 1.259330e-001 -0.000000e+000
    outer loop
      vertex   -3.070500e+002 3.289500e+002 1.180000e+001
      vertex   -3.119500e+002 3.289500e+002 5.040000e+001
      vertex   -3.070500e+002 3.289500e+002 5.040000e+001
    endloop
  endfacet
  facet normal 0.000000e+000 1.000000e+000 0.000000e+000
    outer loop
      vertex   -3.070500e+002 3.289500e+002 -3.280000e+001
      vertex   -3.070500e+002 3.289500e+002 -3.860000e+001
      vertex   -3.119500e+002 3.289500e+002 -3.280000e+001
    endloop
  endfacet
  facet normal 0.000000e+000 6.453536e-001 0.000000e+000
    outer loop
      vertex   -3.119500e+002 3.289500e+002 -3.280000e+001
      vertex   -3.070500e+002 3.289500e+002 -3.860000e+001
      vertex   -3.119500e+002 3.289500e+002 -3.860000e+001
    endloop
  endfacet
  facet normal 0.000000e+000 -7.071068e-001 -7.071068e-001
    outer loop
      vertex   -3.119500e+002 3.220000e+002 -4.860000e+001
      vertex   -3.070500e+002 3.220000e+002 -4.860000e+001
      vertex   -3.119500e+002 3.190000e+002 -4.560000e+001
    endloop
  endfacet
  facet normal 0.000000e+000 -4.628536e-001 -4.628536e-001
    outer loop
      vertex   -3.119500e+002 3.190000e+002 -4.560000e+001
      vertex   -3.070500e+002 3.220000e+002 -4.860000e+001
      vertex   -3.070500e+002 3.190000e+002 -4.560000e+001
    endloop
  endfacet
  facet normal 0.000000e+000 0.000000e+000 -1.000000e+000
    outer loop
      vertex   -3.070500e+002 3.220000e+002 -4.860000e+001
      vertex   -3.119500e+002 3.220000e+002 -4.860000e+001
      vertex   -3.070500e+002 3.290000e+002 -4.860000e+001
    endloop
  endfacet
  facet normal -0.000000e+000 0.000000e+000 -8.192306e-001
    outer loop
      vertex   -3.070500e+002 3.290000e+002 -4.860000e+001
      vertex   -3.119500e+002 3.220000e+002 -4.860000e+001
      vertex   -3.119500e+002 3.290000e+002 -4.860000e+001
    endloop
  endfacet
  facet normal 0.000000e+000 0.000000e+000 1.000000e+000
    outer loop
      vertex   -3.119500e+002 3.289500e+002 -3.860000e+001
      vertex   -3.070500e+002 3.289500e+002 -3.860000e+001
      vertex   -3.119500e+002 3.290000e+002 -3.860000e+001
    endloop
  endfacet
  facet normal -0.000000e+000 0.000000e+000 1.020101e-002
    outer loop
      vertex   -3.119500e+002 3.290000e+002 -3.860000e+001
      vertex   -3.070500e+002 3.289500e+002 -3.860000e+001
      vertex   -3.070500e+002 3.290000e+002 -3.860000e+001
    endloop
  endfacet
  facet normal 0.000000e+000 1.000000e+000 0.000000e+000
    outer loop
      vertex   -3.119500e+002 3.290000e+002 -4.860000e+001
      vertex   -3.119500e+002 3.290000e+002 -3.860000e+001
      vertex   -3.070500e+002 3.290000e+002 -4.860000e+001
    endloop
  endfacet
  facet normal 0.000000e+000 4.400170e-001 -0.000000e+000
    outer loop
      vertex   -3.070500e+002 3.290000e+002 -4.860000e+001
      vertex   -3.119500e+002 3.290000e+002 -3.860000e+001
      vertex   -3.070500e+002 3.290000e+002 -3.860000e+001
    endloop
  endfacet
  facet normal 0.000000e+000 -1.000000e+000 0.000000e+000
    outer loop
      vertex   -3.070500e+002 3.190000e+002 -4.560000e+001
      vertex   -3.070500e+002 3.190000e+002 -3.860000e+001
      vertex   -3.119500e+002 3.190000e+002 -4.560000e+001
    endloop
  endfacet
  facet normal 0.000000e+000 -5.734643e-001 0.000000e+000
    outer loop
      vertex   -3.119500e+002 3.190000e+002 -4.560000e+001
      vertex   -3.070500e+002 3.190000e+002 -3.860000e+001
      vertex   -3.119500e+002 3.190000e+002 -3.860000e+001
    endloop
  endfacet
  facet normal -5.773503e-001 0.000000e+000 5.773503e-001
    outer loop
      vertex   -3.109500e+002 2.940500e+002 5.140000e+001
      vertex   -3.109500e+002 3.279500e+002 5.140000e+001
      vertex   -3.119500e+002 2.930500e+002 5.040000e+001
    endloop
  endfacet
  facet normal -2.862978e-002 0.000000e+000 2.862978e-002
    outer loop
      vertex   -3.119500e+002 2.930500e+002 5.040000e+001
      vertex   -3.109500e+002 3.279500e+002 5.140000e+001
      vertex   -3.119500e+002 3.289500e+002 5.040000e+001
    endloop
  endfacet
  facet normal 0.000000e+000 5.773503e-001 5.773503e-001
    outer loop
      vertex   -3.070500e+002 3.289500e+002 5.040000e+001
      vertex   -3.119500e+002 3.289500e+002 5.040000e+001
      vertex   -3.080500e+002 3.279500e+002 5.140000e+001
    endloop
  endfacet
  facet normal 0.000000e+000 2.410500e-001 2.410500e-001
    outer loop
      vertex   -3.080500e+002 3.279500e+002 5.140000e+001
      vertex   -3.119500e+002 3.289500e+002 5.040000e+001
      vertex   -3.109500e+002 3.279500e+002 5.140000e+001
    endloop
  endfacet
  facet normal 0.000000e+000 -5.773503e-001 5.773503e-001
    outer loop
      vertex   -3.080500e+002 2.940500e+002 5.140000e+001
      vertex   -3.109500e+002 2.940500e+002 5.140000e+001
      vertex   -3.070500e+002 2.930500e+002 5.040000e+001
    endloop
  endfacet
  facet normal 0.000000e+000 -2.410500e-001 2.410500e-001
    outer loop
      vertex   -3.070500e+002 2.930500e+002 5.040000e+001
      vertex   -3.109500e+002 2.940500e+002 5.140000e+001
      vertex   -3.119500e+002 2.930500e+002 5.040000e+001
    endloop
  endfacet
  facet normal 5.773503e-001 0.000000e+000 5.773503e-001
    outer loop
      vertex   -3.080500e+002 3.279500e+002 5.140000e+001
      vertex   -3.080500e+002 2.940500e+002 5.140000e+001
      vertex   -3.070500e+002 3.289500e+002 5.040000e+001
    endloop
  endfacet
  facet normal 2.862978e-002 0.000000e+000 2.862978e-002
    outer loop
      vertex   -3.070500e+002 3.289500e+002 5.040000e+001
      vertex   -3.080500e+002 2.940500e+002 5.140000e+001
      vertex   -3.070500e+002 2.930500e+002 5.040000e+001
    endloop
  endfacet
  facet normal 0.000000e+000 -1.000000e+000 0.000000e+000
    outer loop
      vertex   -3.119500e+002 2.930500e+002 -3.280000e+001
      vertex   -3.119500e+002 2.930500e+002 -3.860000e+001
      vertex   -3.070500e+002 2.930500e+002 -3.280000e+001
    endloop
  endfacet
  facet normal 0.000000e+000 -6.453536e-001 -0.000000e+000
    outer loop
      vertex   -3.070500e+002 2.930500e+002 -3.280000e+001
      vertex   -3.119500e+002 2.930500e+002 -3.860000e+001
      vertex   -3.070500e+002 2.930500e+002 -3.860000e+001
    endloop
  endfacet
  facet normal 0.000000e+000 0.000000e+000 1.000000e+000
    outer loop
      vertex   -3.109500e+002 2.940500e+002 5.140000e+001
      vertex   -3.080500e+002 2.940500e+002 5.140000e+001
      vertex   -3.109500e+002 3.279500e+002 5.140000e+001
    endloop
  endfacet
  facet normal -0.000000e+000 0.000000e+000 9.963609e-001
    outer loop
      vertex   -3.109500e+002 3.279500e+002 5.140000e+001
      vertex   -3.080500e+002 2.940500e+002 5.140000e+001
      vertex   -3.080500e+002 3.279500e+002 5.140000e+001
    endloop
  endfacet
  facet normal 0.000000e+000 -1.000000e+000 0.000000e+000
    outer loop
      vertex   -3.070500e+002 3.180500e+002 -3.515000e+001
      vertex   -3.070500e+002 3.180500e+002 -3.005000e+001
      vertex   -3.119500e+002 3.180500e+002 -3.515000e+001
    endloop
  endfacet
  facet normal 0.000000e+000 -6.928279e-001 0.000000e+000
    outer loop
      vertex   -3.119500e+002 3.180500e+002 -3.515000e+001
      vertex   -3.070500e+002 3.180500e+002 -3.005000e+001
      vertex   -3.119500e+002 3.180500e+002 -3.005000e+001
    endloop
  endfacet
  facet normal 0.000000e+000 0.000000e+000 1.000000e+000
    outer loop
      vertex   -3.070500e+002 3.180500e+002 -3.515000e+001
      vertex   -3.119500e+002 3.180500e+002 -3.515000e+001
      vertex   -3.070500e+002 3.039500e+002 -3.515000e+001
    endloop
  endfacet
  facet normal 0.000000e+000 0.000000e+000 9.445865e-001
    outer loop
      vertex   -3.070500e+002 3.039500e+002 -3.515000e+001
      vertex   -3.119500e+002 3.180500e+002 -3.515000e+001
      vertex   -3.119500e+002 3.039500e+002 -3.515000e+001
    endloop
  endfacet
  facet normal 0.000000e+000 1.000000e+000 0.000000e+000
    outer loop
      vertex   -3.070500e+002 3.039500e+002 -3.005000e+001
      vertex   -3.070500e+002 3.039500e+002 -3.515000e+001
      vertex   -3.119500e+002 3.039500e+002 -3.005000e+001
    endloop
  endfacet
  facet normal 0.000000e+000 6.928279e-001 0.000000e+000
    outer loop
      vertex   -3.119500e+002 3.039500e+002 -3.005000e+001
      vertex   -3.070500e+002 3.039500e+002 -3.515000e+001
      vertex   -3.119500e+002 3.039500e+002 -3.515000e+001
    endloop
  endfacet
  facet normal 0.000000e+000 0.000000e+000 -1.000000e+000
    outer loop
      vertex   -3.070500e+002 3.039500e+002 -3.005000e+001
      vertex   -3.119500e+002 3.039500e+002 -3.005000e+001
      vertex   -3.070500e+002 3.180500e+002 -3.005000e+001
    endloop
  endfacet
  facet normal -0.000000e+000 0.000000e+000 -9.445865e-001
    outer loop
      vertex   -3.070500e+002 3.180500e+002 -3.005000e+001
      vertex   -3.119500e+002 3.039500e+002 -3.005000e+001
      vertex   -3.119500e+002 3.180500e+002 -3.005000e+001
    endloop
  endfacet
  facet normal 0.000000e+000 0.000000e+000 -1.000000e+000
    outer loop
      vertex   -3.119500e+002 3.190000e+002 -3.860000e+001
      vertex   -3.070500e+002 3.190000e+002 -3.860000e+001
      vertex   -3.119500e+002 2.930500e+002 -3.860000e+001
    endloop
  endfacet
  facet normal 0.000000e+000 0.000000e+000 -9.826354e-001
    outer loop
      vertex   -3.119500e+002 2.930500e+002 -3.860000e+001
      vertex   -3.070500e+002 3.190000e+002 -3.860000e+001
      vertex   -3.070500e+002 2.930500e+002 -3.860000e+001
    endloop
  endfacet
  facet normal 9.999009e-001 0.000000e+000 -0.000000e+000
    outer loop
      vertex   -3.070500e+002 3.305267e+002 -3.015913e+001
      vertex   -3.070500e+002 3.307500e+002 -3.005046e+001
      vertex   -3.070500e+002 3.289500e+002 -2.680000e+001
    endloop
  endfacet
  facet normal 5.643025e-002 0.000000e+000 0.000000e+000
    outer loop
      vertex   -3.070500e+002 3.289500e+002 -2.680000e+001
      vertex   -3.070500e+002 3.307500e+002 -3.005046e+001
      vertex   -3.070500e+002 3.309384e+002 -2.995613e+001
    endloop
  endfacet
  facet normal 5.641352e-002 0.000000e+000 0.000000e+000
    outer loop
      vertex   -3.070500e+002 3.289500e+002 -2.680000e+001
      vertex   -3.070500e+002 3.309384e+002 -2.995613e+001
      vertex   -3.070500e+002 3.311158e+002 -2.984251e+001
    endloop
  endfacet
  facet normal 9.984086e-001 0.000000e+000 -0.000000e+000
    outer loop
      vertex   -3.070500e+002 3.311158e+002 -2.984251e+001
      vertex   -3.070500e+002 3.312803e+002 -2.971086e+001
      vertex   -3.070500e+002 3.289500e+002 -2.680000e+001
    endloop
  endfacet
  facet normal 5.643493e-002 0.000000e+000 0.000000e+000
    outer loop
      vertex   -3.070500e+002 3.289500e+002 -2.680000e+001
      vertex   -3.070500e+002 3.312803e+002 -2.971086e+001
      vertex   -3.070500e+002 3.314300e+002 -2.956263e+001
    endloop
  endfacet
  facet normal 5.647936e-002 0.000000e+000 0.000000e+000
    outer loop
      vertex   -3.070500e+002 3.289500e+002 -2.680000e+001
      vertex   -3.070500e+002 3.314300e+002 -2.956263e+001
      vertex   -3.070500e+002 3.315633e+002 -2.939948e+001
    endloop
  endfacet
  facet normal 9.794378e-001 0.000000e+000 -0.000000e+000
    outer loop
      vertex   -3.070500e+002 3.315633e+002 -2.939948e+001
      vertex   -3.070500e+002 3.316787e+002 -2.922322e+001
      vertex   -3.070500e+002 3.289500e+002 -2.680000e+001
    endloop
  endfacet
  facet normal 5.663608e-002 0.000000e+000 0.000000e+000
    outer loop
      vertex   -3.070500e+002 3.289500e+002 -2.680000e+001
      vertex   -3.070500e+002 3.316787e+002 -2.922322e+001
      vertex   -3.070500e+002 3.317749e+002 -2.903579e+001
    endloop
  endfacet
  facet normal 5.674927e-002 0.000000e+000 0.000000e+000
    outer loop
      vertex   -3.070500e+002 3.289500e+002 -2.680000e+001
      vertex   -3.070500e+002 3.317749e+002 -2.903579e+001
      vertex   -3.070500e+002 3.318509e+002 -2.883928e+001
    endloop
  endfacet
  facet normal 9.396301e-001 0.000000e+000 -0.000000e+000
    outer loop
      vertex   -3.070500e+002 3.318509e+002 -2.883928e+001
      vertex   -3.070500e+002 3.319057e+002 -2.863587e+001
      vertex   -3.070500e+002 3.289500e+002 -2.680000e+001
    endloop
  endfacet
  facet normal 5.707180e-002 0.000000e+000 0.000000e+000
    outer loop
      vertex   -3.070500e+002 3.289500e+002 -2.680000e+001
      vertex   -3.070500e+002 3.319057e+002 -2.863587e+001
      vertex   -3.070500e+002 3.319389e+002 -2.842781e+001
    endloop
  endfacet
  facet normal 5.728656e-002 0.000000e+000 0.000000e+000
    outer loop
      vertex   -3.070500e+002 3.289500e+002 -2.680000e+001
      vertex   -3.070500e+002 3.319389e+002 -2.842781e+001
      vertex   -3.070500e+002 3.319500e+002 -2.821742e+001
    endloop
  endfacet
  facet normal 9.041604e-001 0.000000e+000 -0.000000e+000
    outer loop
      vertex   -3.070500e+002 3.319500e+002 -2.821742e+001
      vertex   -3.070500e+002 3.319500e+002 -2.680000e+001
      vertex   -3.070500e+002 3.289500e+002 -2.680000e+001
    endloop
  endfacet
  facet normal 2.520459e-001 0.000000e+000 0.000000e+000
    outer loop
      vertex   -3.070500e+002 3.289500e+002 1.180000e+001
      vertex   -3.070500e+002 3.180500e+002 -3.005000e+001
      vertex   -3.070500e+002 3.289500e+002 -2.680000e+001
    endloop
  endfacet
  facet normal 9.670727e-001 0.000000e+000 0.000000e+000
    outer loop
      vertex   -3.070500e+002 3.289500e+002 -2.680000e+001
      vertex   -3.070500e+002 3.180500e+002 -3.005000e+001
      vertex   -3.070500e+002 3.291131e+002 -3.182440e+001
    endloop
  endfacet
  facet normal 2.039222e-002 0.000000e+000 0.000000e+000
    outer loop
      vertex   -3.070500e+002 3.289500e+002 -2.680000e+001
      vertex   -3.070500e+002 3.291131e+002 -3.182440e+001
      vertex   -3.070500e+002 3.292035e+002 -3.159310e+001
    endloop
  endfacet
  facet normal 7.126569e-001 0.000000e+000 -0.000000e+000
    outer loop
      vertex   -3.070500e+002 3.180500e+002 -3.005000e+001
      vertex   -3.070500e+002 3.289500e+002 1.180000e+001
      vertex   -3.070500e+002 2.930500e+002 1.180000e+001
    endloop
  endfacet
  facet normal 7.322525e-001 0.000000e+000 0.000000e+000
    outer loop
      vertex   -3.070500e+002 2.930500e+002 1.180000e+001
      vertex   -3.070500e+002 3.289500e+002 1.180000e+001
      vertex   -3.070500e+002 3.289500e+002 5.040000e+001
    endloop
  endfacet
  facet normal 6.810332e-001 0.000000e+000 0.000000e+000
    outer loop
      vertex   -3.070500e+002 2.930500e+002 1.180000e+001
      vertex   -3.070500e+002 3.289500e+002 5.040000e+001
      vertex   -3.070500e+002 2.930500e+002 5.040000e+001
    endloop
  endfacet
  facet normal 8.584868e-001 0.000000e+000 0.000000e+000
    outer loop
      vertex   -3.070500e+002 3.180500e+002 -3.005000e+001
      vertex   -3.070500e+002 2.930500e+002 1.180000e+001
      vertex   -3.070500e+002 3.039500e+002 -3.005000e+001
    endloop
  endfacet
  facet normal 8.553522e-001 0.000000e+000 0.000000e+000
    outer loop
      vertex   -3.070500e+002 3.039500e+002 -3.005000e+001
      vertex   -3.070500e+002 2.930500e+002 1.180000e+001
      vertex   -3.070500e+002 2.930500e+002 -2.680000e+001
    endloop
  endfacet
  facet normal 4.338910e-001 0.000000e+000 0.000000e+000
    outer loop
      vertex   -3.070500e+002 3.039500e+002 -3.005000e+001
      vertex   -3.070500e+002 2.930500e+002 -2.680000e+001
      vertex   -3.070500e+002 2.928869e+002 -3.182440e+001
    endloop
  endfacet
  facet normal 3.941141e-001 0.000000e+000 -0.000000e+000
    outer loop
      vertex   -3.070500e+002 2.928869e+002 -3.182440e+001
      vertex   -3.070500e+002 2.930500e+002 -2.680000e+001
      vertex   -3.070500e+002 2.927965e+002 -3.159310e+001
    endloop
  endfacet
  facet normal 4.866246e-001 0.000000e+000 -0.000000e+000
    outer loop
      vertex   -3.070500e+002 2.927965e+002 -3.159310e+001
      vertex   -3.070500e+002 2.930500e+002 -2.680000e+001
      vertex   -3.070500e+002 2.926873e+002 -3.137007e+001
    endloop
  endfacet
  facet normal 5.789773e-001 0.000000e+000 -0.000000e+000
    outer loop
      vertex   -3.070500e+002 2.926873e+002 -3.137007e+001
      vertex   -3.070500e+002 2.930500e+002 -2.680000e+001
      vertex   -3.070500e+002 2.925600e+002 -3.115683e+001
    endloop
  endfacet
  facet normal 6.691158e-001 0.000000e+000 -0.000000e+000
    outer loop
      vertex   -3.070500e+002 2.925600e+002 -3.115683e+001
      vertex   -3.070500e+002 2.930500e+002 -2.680000e+001
      vertex   -3.070500e+002 2.924155e+002 -3.095486e+001
    endloop
  endfacet
  facet normal 7.548059e-001 0.000000e+000 -0.000000e+000
    outer loop
      vertex   -3.070500e+002 2.924155e+002 -3.095486e+001
      vertex   -3.070500e+002 2.930500e+002 -2.680000e+001
      vertex   -3.070500e+002 2.922548e+002 -3.076553e+001
    endloop
  endfacet
  facet normal 8.330541e-001 0.000000e+000 -0.000000e+000
    outer loop
      vertex   -3.070500e+002 2.922548e+002 -3.076553e+001
      vertex   -3.070500e+002 2.930500e+002 -2.680000e+001
      vertex   -3.070500e+002 2.920789e+002 -3.059015e+001
    endloop
  endfacet
  facet normal 9.002135e-001 0.000000e+000 -0.000000e+000
    outer loop
      vertex   -3.070500e+002 2.920789e+002 -3.059015e+001
      vertex   -3.070500e+002 2.930500e+002 -2.680000e+001
      vertex   -3.070500e+002 2.918892e+002 -3.042990e+001
    endloop
  endfacet
  facet normal 9.526289e-001 0.000000e+000 -0.000000e+000
    outer loop
      vertex   -3.070500e+002 2.918892e+002 -3.042990e+001
      vertex   -3.070500e+002 2.930500e+002 -2.680000e+001
      vertex   -3.070500e+002 2.916869e+002 -3.028590e+001
    endloop
  endfacet
  facet normal 9.867535e-001 0.000000e+000 -0.000000e+000
    outer loop
      vertex   -3.070500e+002 2.916869e+002 -3.028590e+001
      vertex   -3.070500e+002 2.930500e+002 -2.680000e+001
      vertex   -3.070500e+002 2.914733e+002 -3.015913e+001
    endloop
  endfacet
  facet normal 9.999009e-001 0.000000e+000 -0.000000e+000
    outer loop
      vertex   -3.070500e+002 2.914733e+002 -3.015913e+001
      vertex   -3.070500e+002 2.930500e+002 -2.680000e+001
      vertex   -3.070500e+002 2.912500e+002 -3.005046e+001
    endloop
  endfacet
  facet normal 9.991384e-001 0.000000e+000 -0.000000e+000
    outer loop
      vertex   -3.070500e+002 2.912500e+002 -3.005046e+001
      vertex   -3.070500e+002 2.930500e+002 -2.680000e+001
      vertex   -3.070500e+002 2.910616e+002 -2.995613e+001
    endloop
  endfacet
  facet normal 9.999728e-001 0.000000e+000 -0.000000e+000
    outer loop
      vertex   -3.070500e+002 2.910616e+002 -2.995613e+001
      vertex   -3.070500e+002 2.930500e+002 -2.680000e+001
      vertex   -3.070500e+002 2.908842e+002 -2.984251e+001
    endloop
  endfacet
  facet normal 9.984086e-001 0.000000e+000 -0.000000e+000
    outer loop
      vertex   -3.070500e+002 2.908842e+002 -2.984251e+001
      vertex   -3.070500e+002 2.930500e+002 -2.680000e+001
      vertex   -3.070500e+002 2.907197e+002 -2.971086e+001
    endloop
  endfacet
  facet normal 9.944602e-001 0.000000e+000 -0.000000e+000
    outer loop
      vertex   -3.070500e+002 2.907197e+002 -2.971086e+001
      vertex   -3.070500e+002 2.930500e+002 -2.680000e+001
      vertex   -3.070500e+002 2.905700e+002 -2.956263e+001
    endloop
  endfacet
  facet normal 9.881324e-001 0.000000e+000 -0.000000e+000
    outer loop
      vertex   -3.070500e+002 2.905700e+002 -2.956263e+001
      vertex   -3.070500e+002 2.930500e+002 -2.680000e+001
      vertex   -3.070500e+002 2.904367e+002 -2.939948e+001
    endloop
  endfacet
  facet normal 9.794378e-001 0.000000e+000 -0.000000e+000
    outer loop
      vertex   -3.070500e+002 2.904367e+002 -2.939948e+001
      vertex   -3.070500e+002 2.930500e+002 -2.680000e+001
      vertex   -3.070500e+002 2.903213e+002 -2.922322e+001
    endloop
  endfacet
  facet normal 9.684440e-001 0.000000e+000 -0.000000e+000
    outer loop
      vertex   -3.070500e+002 2.903213e+002 -2.922322e+001
      vertex   -3.070500e+002 2.930500e+002 -2.680000e+001
      vertex   -3.070500e+002 2.902251e+002 -2.903579e+001
    endloop
  endfacet
  facet normal 9.551395e-001 0.000000e+000 -0.000000e+000
    outer loop
      vertex   -3.070500e+002 2.902251e+002 -2.903579e+001
      vertex   -3.070500e+002 2.930500e+002 -2.680000e+001
      vertex   -3.070500e+002 2.901491e+002 -2.883928e+001
    endloop
  endfacet
  facet normal 9.396301e-001 0.000000e+000 -0.000000e+000
    outer loop
      vertex   -3.070500e+002 2.901491e+002 -2.883928e+001
      vertex   -3.070500e+002 2.930500e+002 -2.680000e+001
      vertex   -3.070500e+002 2.900943e+002 -2.863587e+001
    endloop
  endfacet
  facet normal 9.219561e-001 0.000000e+000 -0.000000e+000
    outer loop
      vertex   -3.070500e+002 2.900943e+002 -2.863587e+001
      vertex   -3.070500e+002 2.930500e+002 -2.680000e+001
      vertex   -3.070500e+002 2.900611e+002 -2.842781e+001
    endloop
  endfacet
  facet normal 9.021998e-001 0.000000e+000 -0.000000e+000
    outer loop
      vertex   -3.070500e+002 2.900611e+002 -2.842781e+001
      vertex   -3.070500e+002 2.930500e+002 -2.680000e+001
      vertex   -3.070500e+002 2.900500e+002 -2.821742e+001
    endloop
  endfacet
  facet normal 9.041604e-001 0.000000e+000 0.000000e+000
    outer loop
      vertex   -3.070500e+002 2.900500e+002 -2.821742e+001
      vertex   -3.070500e+002 2.930500e+002 -2.680000e+001
      vertex   -3.070500e+002 2.900500e+002 -2.680000e+001
    endloop
  endfacet
  facet normal 9.914538e-001 -0.000000e+000 0.000000e+000
    outer loop
      vertex   -3.070500e+002 2.928869e+002 -3.182440e+001
      vertex   -3.070500e+002 2.929579e+002 -3.206239e+001
      vertex   -3.070500e+002 3.039500e+002 -3.005000e+001
    endloop
  endfacet
  facet normal 2.222347e-002 0.000000e+000 0.000000e+000
    outer loop
      vertex   -3.070500e+002 3.039500e+002 -3.005000e+001
      vertex   -3.070500e+002 2.929579e+002 -3.206239e+001
      vertex   -3.070500e+002 2.930089e+002 -3.230544e+001
    endloop
  endfacet
  facet normal 2.211785e-002 0.000000e+000 0.000000e+000
    outer loop
      vertex   -3.070500e+002 3.039500e+002 -3.005000e+001
      vertex   -3.070500e+002 2.930089e+002 -3.230544e+001
      vertex   -3.070500e+002 2.930397e+002 -3.255187e+001
    endloop
  endfacet
  facet normal 9.830987e-001 -0.000000e+000 0.000000e+000
    outer loop
      vertex   -3.070500e+002 2.930397e+002 -3.255187e+001
      vertex   -3.070500e+002 2.930500e+002 -3.280000e+001
      vertex   -3.070500e+002 3.039500e+002 -3.005000e+001
    endloop
  endfacet
  facet normal 9.696171e-001 0.000000e+000 0.000000e+000
    outer loop
      vertex   -3.070500e+002 3.039500e+002 -3.005000e+001
      vertex   -3.070500e+002 2.930500e+002 -3.280000e+001
      vertex   -3.070500e+002 3.039500e+002 -3.515000e+001
    endloop
  endfacet
  facet normal 4.959098e-001 0.000000e+000 0.000000e+000
    outer loop
      vertex   -3.070500e+002 3.039500e+002 -3.515000e+001
      vertex   -3.070500e+002 2.930500e+002 -3.280000e+001
      vertex   -3.070500e+002 2.930500e+002 -3.860000e+001
    endloop
  endfacet
  facet normal 5.071536e-001 0.000000e+000 0.000000e+000
    outer loop
      vertex   -3.070500e+002 3.039500e+002 -3.515000e+001
      vertex   -3.070500e+002 2.930500e+002 -3.860000e+001
      vertex   -3.070500e+002 3.190000e+002 -3.860000e+001
    endloop
  endfacet
  facet normal 8.178784e-001 0.000000e+000 0.000000e+000
    outer loop
      vertex   -3.070500e+002 3.190000e+002 -4.560000e+001
      vertex   -3.070500e+002 3.289500e+002 -3.860000e+001
      vertex   -3.070500e+002 3.190000e+002 -3.860000e+001
    endloop
  endfacet
  facet normal 5.036005e-001 0.000000e+000 0.000000e+000
    outer loop
      vertex   -3.070500e+002 3.190000e+002 -3.860000e+001
      vertex   -3.070500e+002 3.289500e+002 -3.860000e+001
      vertex   -3.070500e+002 3.289500e+002 -3.280000e+001
    endloop
  endfacet
  facet normal 9.666325e-001 0.000000e+000 -0.000000e+000
    outer loop
      vertex   -3.070500e+002 3.190000e+002 -3.860000e+001
      vertex   -3.070500e+002 3.289500e+002 -3.280000e+001
      vertex   -3.070500e+002 3.180500e+002 -3.515000e+001
    endloop
  endfacet
  facet normal 9.775392e-001 0.000000e+000 0.000000e+000
    outer loop
      vertex   -3.070500e+002 3.180500e+002 -3.515000e+001
      vertex   -3.070500e+002 3.289500e+002 -3.280000e+001
      vertex   -3.070500e+002 3.180500e+002 -3.005000e+001
    endloop
  endfacet
  facet normal 2.171807e-002 0.000000e+000 0.000000e+000
    outer loop
      vertex   -3.070500e+002 3.180500e+002 -3.005000e+001
      vertex   -3.070500e+002 3.289500e+002 -3.280000e+001
      vertex   -3.070500e+002 3.289603e+002 -3.255187e+001
    endloop
  endfacet
  facet normal 2.211785e-002 0.000000e+000 0.000000e+000
    outer loop
      vertex   -3.070500e+002 3.180500e+002 -3.005000e+001
      vertex   -3.070500e+002 3.289603e+002 -3.255187e+001
      vertex   -3.070500e+002 3.289911e+002 -3.230544e+001
    endloop
  endfacet
  facet normal 9.851903e-001 -0.000000e+000 0.000000e+000
    outer loop
      vertex   -3.070500e+002 3.190000e+002 -4.560000e+001
      vertex   -3.070500e+002 3.220000e+002 -4.860000e+001
      vertex   -3.070500e+002 3.289500e+002 -3.860000e+001
    endloop
  endfacet
  facet normal 5.748018e-001 0.000000e+000 0.000000e+000
    outer loop
      vertex   -3.070500e+002 3.289500e+002 -3.860000e+001
      vertex   -3.070500e+002 3.220000e+002 -4.860000e+001
      vertex   -3.070500e+002 3.290000e+002 -4.860000e+001
    endloop
  endfacet
  facet normal 9.999875e-001 -0.000000e+000 0.000000e+000
    outer loop
      vertex   -3.070500e+002 3.289500e+002 -3.860000e+001
      vertex   -3.070500e+002 3.290000e+002 -4.860000e+001
      vertex   -3.070500e+002 3.290000e+002 -3.860000e+001
    endloop
  endfacet
  facet normal 9.999934e-001 0.000000e+000 -0.000000e+000
    outer loop
      vertex   -3.070500e+002 3.289911e+002 -3.230544e+001
      vertex   -3.070500e+002 3.290421e+002 -3.206239e+001
      vertex   -3.070500e+002 3.180500e+002 -3.005000e+001
    endloop
  endfacet
  facet normal 2.203403e-002 0.000000e+000 0.000000e+000
    outer loop
      vertex   -3.070500e+002 3.180500e+002 -3.005000e+001
      vertex   -3.070500e+002 3.290421e+002 -3.206239e+001
      vertex   -3.070500e+002 3.291131e+002 -3.182440e+001
    endloop
  endfacet
  facet normal 4.866246e-001 0.000000e+000 -0.000000e+000
    outer loop
      vertex   -3.070500e+002 3.292035e+002 -3.159310e+001
      vertex   -3.070500e+002 3.293127e+002 -3.137007e+001
      vertex   -3.070500e+002 3.289500e+002 -2.680000e+001
    endloop
  endfacet
  facet normal 3.279665e-002 0.000000e+000 0.000000e+000
    outer loop
      vertex   -3.070500e+002 3.289500e+002 -2.680000e+001
      vertex   -3.070500e+002 3.293127e+002 -3.137007e+001
      vertex   -3.070500e+002 3.294400e+002 -3.115683e+001
    endloop
  endfacet
  facet normal 3.953558e-002 0.000000e+000 0.000000e+000
    outer loop
      vertex   -3.070500e+002 3.289500e+002 -2.680000e+001
      vertex   -3.070500e+002 3.294400e+002 -3.115683e+001
      vertex   -3.070500e+002 3.295845e+002 -3.095486e+001
    endloop
  endfacet
  facet normal 7.548059e-001 0.000000e+000 -0.000000e+000
    outer loop
      vertex   -3.070500e+002 3.295845e+002 -3.095486e+001
      vertex   -3.070500e+002 3.297452e+002 -3.076553e+001
      vertex   -3.070500e+002 3.289500e+002 -2.680000e+001
    endloop
  endfacet
  facet normal 5.287943e-002 0.000000e+000 0.000000e+000
    outer loop
      vertex   -3.070500e+002 3.289500e+002 -2.680000e+001
      vertex   -3.070500e+002 3.297452e+002 -3.076553e+001
      vertex   -3.070500e+002 3.299211e+002 -3.059015e+001
    endloop
  endfacet
  facet normal 5.866264e-002 0.000000e+000 0.000000e+000
    outer loop
      vertex   -3.070500e+002 3.289500e+002 -2.680000e+001
      vertex   -3.070500e+002 3.299211e+002 -3.059015e+001
      vertex   -3.070500e+002 3.301108e+002 -3.042990e+001
    endloop
  endfacet
  facet normal 9.526289e-001 0.000000e+000 -0.000000e+000
    outer loop
      vertex   -3.070500e+002 3.301108e+002 -3.042990e+001
      vertex   -3.070500e+002 3.303131e+002 -3.028590e+001
      vertex   -3.070500e+002 3.289500e+002 -2.680000e+001
    endloop
  endfacet
  facet normal 6.604168e-002 0.000000e+000 0.000000e+000
    outer loop
      vertex   -3.070500e+002 3.289500e+002 -2.680000e+001
      vertex   -3.070500e+002 3.303131e+002 -3.028590e+001
      vertex   -3.070500e+002 3.305267e+002 -3.015913e+001
    endloop
  endfacet
  facet normal 9.641151e-001 0.000000e+000 0.000000e+000
    outer loop
      vertex   -3.070500e+002 3.180500e+002 -3.515000e+001
      vertex   -3.070500e+002 3.039500e+002 -3.515000e+001
      vertex   -3.070500e+002 3.190000e+002 -3.860000e+001
    endloop
  endfacet
endsolid
