solid ascii
  facet normal 0.000000e+000 7.071068e-001 -7.071068e-001
    outer loop
      vertex   -2.951500e+002 3.151500e+002 -4.860000e+001
      vertex   -2.998500e+002 3.151500e+002 -4.860000e+001
      vertex   -2.951500e+002 3.171500e+002 -4.660000e+001
    endloop
  endfacet
  facet normal 0.000000e+000 3.646012e-001 -3.646012e-001
    outer loop
      vertex   -2.951500e+002 3.171500e+002 -4.660000e+001
      vertex   -2.998500e+002 3.151500e+002 -4.860000e+001
      vertex   -2.998500e+002 3.171500e+002 -4.660000e+001
    endloop
  endfacet
  facet normal 0.000000e+000 0.000000e+000 -1.000000e+000
    outer loop
      vertex   -2.998500e+002 3.151500e+002 -4.860000e+001
      vertex   -2.951500e+002 3.151500e+002 -4.860000e+001
      vertex   -2.998500e+002 3.071500e+002 -4.860000e+001
    endloop
  endfacet
  facet normal 0.000000e+000 0.000000e+000 -8.622106e-001
    outer loop
      vertex   -2.998500e+002 3.071500e+002 -4.860000e+001
      vertex   -2.951500e+002 3.151500e+002 -4.860000e+001
      vertex   -2.951500e+002 3.071500e+002 -4.860000e+001
    endloop
  endfacet
  facet normal 0.000000e+000 1.000000e+000 0.000000e+000
    outer loop
      vertex   -2.998500e+002 3.171500e+002 -4.660000e+001
      vertex   -2.998500e+002 3.171500e+002 -3.860000e+001
      vertex   -2.951500e+002 3.171500e+002 -4.660000e+001
    endloop
  endfacet
  facet normal 0.000000e+000 5.065500e-001 -0.000000e+000
    outer loop
      vertex   -2.951500e+002 3.171500e+002 -4.660000e+001
      vertex   -2.998500e+002 3.171500e+002 -3.860000e+001
      vertex   -2.951500e+002 3.171500e+002 -3.860000e+001
    endloop
  endfacet
  facet normal 0.000000e+000 0.000000e+000 -1.000000e+000
    outer loop
      vertex   -2.951500e+002 3.171500e+002 -3.860000e+001
      vertex   -2.998500e+002 3.171500e+002 -3.860000e+001
      vertex   -2.951500e+002 3.428500e+002 -3.860000e+001
    endloop
  endfacet
  facet normal -0.000000e+000 0.000000e+000 -9.836856e-001
    outer loop
      vertex   -2.951500e+002 3.428500e+002 -3.860000e+001
      vertex   -2.998500e+002 3.171500e+002 -3.860000e+001
      vertex   -2.998500e+002 3.428500e+002 -3.860000e+001
    endloop
  endfacet
  facet normal -5.773503e-001 0.000000e+000 5.773503e-001
    outer loop
      vertex   -2.983500e+002 3.086500e+002 5.140000e+001
      vertex   -2.983500e+002 3.413500e+002 5.140000e+001
      vertex   -2.998500e+002 3.071500e+002 4.990000e+001
    endloop
  endfacet
  facet normal -4.377551e-002 0.000000e+000 4.377551e-002
    outer loop
      vertex   -2.998500e+002 3.071500e+002 4.990000e+001
      vertex   -2.983500e+002 3.413500e+002 5.140000e+001
      vertex   -2.998500e+002 3.428500e+002 4.990000e+001
    endloop
  endfacet
  facet normal 0.000000e+000 5.773503e-001 5.773503e-001
    outer loop
      vertex   -2.951500e+002 3.428500e+002 4.990000e+001
      vertex   -2.998500e+002 3.428500e+002 4.990000e+001
      vertex   -2.966500e+002 3.413500e+002 5.140000e+001
    endloop
  endfacet
  facet normal 0.000000e+000 3.906982e-001 3.906982e-001
    outer loop
      vertex   -2.966500e+002 3.413500e+002 5.140000e+001
      vertex   -2.998500e+002 3.428500e+002 4.990000e+001
      vertex   -2.983500e+002 3.413500e+002 5.140000e+001
    endloop
  endfacet
  facet normal 0.000000e+000 -5.773503e-001 5.773503e-001
    outer loop
      vertex   -2.966500e+002 3.086500e+002 5.140000e+001
      vertex   -2.983500e+002 3.086500e+002 5.140000e+001
      vertex   -2.951500e+002 3.071500e+002 4.990000e+001
    endloop
  endfacet
  facet normal 0.000000e+000 -3.906982e-001 3.906982e-001
    outer loop
      vertex   -2.951500e+002 3.071500e+002 4.990000e+001
      vertex   -2.983500e+002 3.086500e+002 5.140000e+001
      vertex   -2.998500e+002 3.071500e+002 4.990000e+001
    endloop
  endfacet
  facet normal 5.773503e-001 -0.000000e+000 5.773503e-001
    outer loop
      vertex   -2.966500e+002 3.086500e+002 5.140000e+001
      vertex   -2.951500e+002 3.071500e+002 4.990000e+001
      vertex   -2.966500e+002 3.413500e+002 5.140000e+001
    endloop
  endfacet
  facet normal 6.015166e-001 0.000000e+000 6.015166e-001
    outer loop
      vertex   -2.966500e+002 3.413500e+002 5.140000e+001
      vertex   -2.951500e+002 3.071500e+002 4.990000e+001
      vertex   -2.951500e+002 3.428500e+002 4.990000e+001
    endloop
  endfacet
  facet normal 0.000000e+000 -1.000000e+000 0.000000e+000
    outer loop
      vertex   -2.998500e+002 3.071500e+002 4.990000e+001
      vertex   -2.998500e+002 3.071500e+002 6.500000e-001
      vertex   -2.951500e+002 3.071500e+002 4.990000e+001
    endloop
  endfacet
  facet normal 0.000000e+000 -9.500011e-002 -0.000000e+000
    outer loop
      vertex   -2.951500e+002 3.071500e+002 4.990000e+001
      vertex   -2.998500e+002 3.071500e+002 6.500000e-001
      vertex   -2.951500e+002 3.071500e+002 6.500000e-001
    endloop
  endfacet
  facet normal -0.000000e+000 -9.954773e-001 0.000000e+000
    outer loop
      vertex   -2.951500e+002 3.071500e+002 6.500000e-001
      vertex   -2.998500e+002 3.071500e+002 6.500000e-001
      vertex   -2.998500e+002 3.071500e+002 -4.860000e+001
    endloop
  endfacet
  facet normal 0.000000e+000 -9.500011e-002 -0.000000e+000
    outer loop
      vertex   -2.951500e+002 3.071500e+002 6.500000e-001
      vertex   -2.998500e+002 3.071500e+002 -4.860000e+001
      vertex   -2.951500e+002 3.071500e+002 -4.860000e+001
    endloop
  endfacet
  facet normal -1.000000e+000 -0.000000e+000 -0.000000e+000
    outer loop
      vertex   -2.998500e+002 3.428500e+002 4.990000e+001
      vertex   -2.998500e+002 3.428500e+002 5.650000e+000
      vertex   -2.998500e+002 3.071500e+002 4.990000e+001
    endloop
  endfacet
  facet normal -6.279073e-001 0.000000e+000 0.000000e+000
    outer loop
      vertex   -2.998500e+002 3.071500e+002 4.990000e+001
      vertex   -2.998500e+002 3.428500e+002 5.650000e+000
      vertex   -2.998500e+002 3.071500e+002 6.500000e-001
    endloop
  endfacet
  facet normal -8.546778e-001 0.000000e+000 0.000000e+000
    outer loop
      vertex   -2.998500e+002 3.071500e+002 6.500000e-001
      vertex   -2.998500e+002 3.428500e+002 5.650000e+000
      vertex   -2.998500e+002 3.321500e+002 -2.995000e+001
    endloop
  endfacet
  facet normal -3.416136e-001 0.000000e+000 0.000000e+000
    outer loop
      vertex   -2.998500e+002 3.071500e+002 6.500000e-001
      vertex   -2.998500e+002 3.321500e+002 -2.995000e+001
      vertex   -2.998500e+002 3.178500e+002 -2.995000e+001
    endloop
  endfacet
  facet normal -2.878417e-001 0.000000e+000 -0.000000e+000
    outer loop
      vertex   -2.998500e+002 3.428500e+002 5.650000e+000
      vertex   -2.998500e+002 3.428500e+002 -3.860000e+001
      vertex   -2.998500e+002 3.321500e+002 -2.995000e+001
    endloop
  endfacet
  facet normal -7.776682e-001 0.000000e+000 0.000000e+000
    outer loop
      vertex   -2.998500e+002 3.321500e+002 -2.995000e+001
      vertex   -2.998500e+002 3.428500e+002 -3.860000e+001
      vertex   -2.998500e+002 3.321500e+002 -3.525000e+001
    endloop
  endfacet
  facet normal -4.996060e-001 0.000000e+000 -0.000000e+000
    outer loop
      vertex   -2.998500e+002 3.321500e+002 -3.525000e+001
      vertex   -2.998500e+002 3.428500e+002 -3.860000e+001
      vertex   -2.998500e+002 3.171500e+002 -3.860000e+001
    endloop
  endfacet
  facet normal -2.179636e-001 -0.000000e+000 0.000000e+000
    outer loop
      vertex   -2.998500e+002 3.321500e+002 -3.525000e+001
      vertex   -2.998500e+002 3.171500e+002 -3.860000e+001
      vertex   -2.998500e+002 3.178500e+002 -3.525000e+001
    endloop
  endfacet
  facet normal -4.525827e-001 0.000000e+000 0.000000e+000
    outer loop
      vertex   -2.998500e+002 3.178500e+002 -3.525000e+001
      vertex   -2.998500e+002 3.171500e+002 -3.860000e+001
      vertex   -2.998500e+002 3.071500e+002 -4.860000e+001
    endloop
  endfacet
  facet normal -6.254081e-001 -0.000000e+000 0.000000e+000
    outer loop
      vertex   -2.998500e+002 3.178500e+002 -3.525000e+001
      vertex   -2.998500e+002 3.071500e+002 -4.860000e+001
      vertex   -2.998500e+002 3.178500e+002 -2.995000e+001
    endloop
  endfacet
  facet normal -7.560529e-001 -0.000000e+000 0.000000e+000
    outer loop
      vertex   -2.998500e+002 3.178500e+002 -2.995000e+001
      vertex   -2.998500e+002 3.071500e+002 -4.860000e+001
      vertex   -2.998500e+002 3.071500e+002 6.500000e-001
    endloop
  endfacet
  facet normal -7.071068e-001 -0.000000e+000 0.000000e+000
    outer loop
      vertex   -2.998500e+002 3.171500e+002 -4.660000e+001
      vertex   -2.998500e+002 3.151500e+002 -4.860000e+001
      vertex   -2.998500e+002 3.171500e+002 -3.860000e+001
    endloop
  endfacet
  facet normal -5.547002e-001 0.000000e+000 0.000000e+000
    outer loop
      vertex   -2.998500e+002 3.171500e+002 -3.860000e+001
      vertex   -2.998500e+002 3.151500e+002 -4.860000e+001
      vertex   -2.998500e+002 3.071500e+002 -4.860000e+001
    endloop
  endfacet
  facet normal 0.000000e+000 0.000000e+000 1.000000e+000
    outer loop
      vertex   -2.983500e+002 3.086500e+002 5.140000e+001
      vertex   -2.966500e+002 3.086500e+002 5.140000e+001
      vertex   -2.983500e+002 3.413500e+002 5.140000e+001
    endloop
  endfacet
  facet normal -0.000000e+000 0.000000e+000 9.986513e-001
    outer loop
      vertex   -2.983500e+002 3.413500e+002 5.140000e+001
      vertex   -2.966500e+002 3.086500e+002 5.140000e+001
      vertex   -2.966500e+002 3.413500e+002 5.140000e+001
    endloop
  endfacet
  facet normal 0.000000e+000 -1.000000e+000 0.000000e+000
    outer loop
      vertex   -2.951500e+002 3.321500e+002 -3.525000e+001
      vertex   -2.951500e+002 3.321500e+002 -2.995000e+001
      vertex   -2.998500e+002 3.321500e+002 -3.525000e+001
    endloop
  endfacet
  facet normal 0.000000e+000 -6.634882e-001 0.000000e+000
    outer loop
      vertex   -2.998500e+002 3.321500e+002 -3.525000e+001
      vertex   -2.951500e+002 3.321500e+002 -2.995000e+001
      vertex   -2.998500e+002 3.321500e+002 -2.995000e+001
    endloop
  endfacet
  facet normal 0.000000e+000 0.000000e+000 1.000000e+000
    outer loop
      vertex   -2.951500e+002 3.321500e+002 -3.525000e+001
      vertex   -2.998500e+002 3.321500e+002 -3.525000e+001
      vertex   -2.951500e+002 3.178500e+002 -3.525000e+001
    endloop
  endfacet
  facet normal 0.000000e+000 0.000000e+000 9.500033e-001
    outer loop
      vertex   -2.951500e+002 3.178500e+002 -3.525000e+001
      vertex   -2.998500e+002 3.321500e+002 -3.525000e+001
      vertex   -2.998500e+002 3.178500e+002 -3.525000e+001
    endloop
  endfacet
  facet normal 0.000000e+000 1.000000e+000 0.000000e+000
    outer loop
      vertex   -2.951500e+002 3.178500e+002 -2.995000e+001
      vertex   -2.951500e+002 3.178500e+002 -3.525000e+001
      vertex   -2.998500e+002 3.178500e+002 -2.995000e+001
    endloop
  endfacet
  facet normal 0.000000e+000 6.634882e-001 0.000000e+000
    outer loop
      vertex   -2.998500e+002 3.178500e+002 -2.995000e+001
      vertex   -2.951500e+002 3.178500e+002 -3.525000e+001
      vertex   -2.998500e+002 3.178500e+002 -3.525000e+001
    endloop
  endfacet
  facet normal 0.000000e+000 0.000000e+000 -1.000000e+000
    outer loop
      vertex   -2.951500e+002 3.178500e+002 -2.995000e+001
      vertex   -2.998500e+002 3.178500e+002 -2.995000e+001
      vertex   -2.951500e+002 3.321500e+002 -2.995000e+001
    endloop
  endfacet
  facet normal -0.000000e+000 0.000000e+000 -9.500033e-001
    outer loop
      vertex   -2.951500e+002 3.321500e+002 -2.995000e+001
      vertex   -2.998500e+002 3.178500e+002 -2.995000e+001
      vertex   -2.998500e+002 3.321500e+002 -2.995000e+001
    endloop
  endfacet
  facet normal 1.000000e+000 0.000000e+000 0.000000e+000
    outer loop
      vertex   -2.951500e+002 3.428500e+002 4.990000e+001
      vertex   -2.951500e+002 3.071500e+002 4.990000e+001
      vertex   -2.951500e+002 3.428500e+002 5.650000e+000
    endloop
  endfacet
  facet normal 8.578575e-001 0.000000e+000 0.000000e+000
    outer loop
      vertex   -2.951500e+002 3.428500e+002 5.650000e+000
      vertex   -2.951500e+002 3.071500e+002 4.990000e+001
      vertex   -2.951500e+002 3.071500e+002 6.500000e-001
    endloop
  endfacet
  facet normal 9.084969e-001 0.000000e+000 0.000000e+000
    outer loop
      vertex   -2.951500e+002 3.428500e+002 5.650000e+000
      vertex   -2.951500e+002 3.071500e+002 6.500000e-001
      vertex   -2.951500e+002 3.321500e+002 -2.995000e+001
    endloop
  endfacet
  facet normal 7.744081e-001 0.000000e+000 0.000000e+000
    outer loop
      vertex   -2.951500e+002 3.321500e+002 -2.995000e+001
      vertex   -2.951500e+002 3.071500e+002 6.500000e-001
      vertex   -2.951500e+002 3.178500e+002 -2.995000e+001
    endloop
  endfacet
  facet normal 7.560529e-001 0.000000e+000 0.000000e+000
    outer loop
      vertex   -2.951500e+002 3.178500e+002 -2.995000e+001
      vertex   -2.951500e+002 3.071500e+002 6.500000e-001
      vertex   -2.951500e+002 3.071500e+002 -4.860000e+001
    endloop
  endfacet
  facet normal 4.976412e-001 0.000000e+000 0.000000e+000
    outer loop
      vertex   -2.951500e+002 3.178500e+002 -2.995000e+001
      vertex   -2.951500e+002 3.071500e+002 -4.860000e+001
      vertex   -2.951500e+002 3.178500e+002 -3.525000e+001
    endloop
  endfacet
  facet normal 4.525827e-001 0.000000e+000 0.000000e+000
    outer loop
      vertex   -2.951500e+002 3.178500e+002 -3.525000e+001
      vertex   -2.951500e+002 3.071500e+002 -4.860000e+001
      vertex   -2.951500e+002 3.171500e+002 -3.860000e+001
    endloop
  endfacet
  facet normal 9.788580e-001 -0.000000e+000 0.000000e+000
    outer loop
      vertex   -2.951500e+002 3.178500e+002 -3.525000e+001
      vertex   -2.951500e+002 3.171500e+002 -3.860000e+001
      vertex   -2.951500e+002 3.321500e+002 -3.525000e+001
    endloop
  endfacet
  facet normal 4.996060e-001 0.000000e+000 0.000000e+000
    outer loop
      vertex   -2.951500e+002 3.321500e+002 -3.525000e+001
      vertex   -2.951500e+002 3.171500e+002 -3.860000e+001
      vertex   -2.951500e+002 3.428500e+002 -3.860000e+001
    endloop
  endfacet
  facet normal 9.543213e-001 -0.000000e+000 0.000000e+000
    outer loop
      vertex   -2.951500e+002 3.321500e+002 -3.525000e+001
      vertex   -2.951500e+002 3.428500e+002 -3.860000e+001
      vertex   -2.951500e+002 3.321500e+002 -2.995000e+001
    endloop
  endfacet
  facet normal 9.257146e-001 -0.000000e+000 0.000000e+000
    outer loop
      vertex   -2.951500e+002 3.321500e+002 -2.995000e+001
      vertex   -2.951500e+002 3.428500e+002 -3.860000e+001
      vertex   -2.951500e+002 3.428500e+002 5.650000e+000
    endloop
  endfacet
  facet normal 7.071068e-001 0.000000e+000 0.000000e+000
    outer loop
      vertex   -2.951500e+002 3.071500e+002 -4.860000e+001
      vertex   -2.951500e+002 3.151500e+002 -4.860000e+001
      vertex   -2.951500e+002 3.171500e+002 -3.860000e+001
    endloop
  endfacet
  facet normal 1.961161e-001 0.000000e+000 0.000000e+000
    outer loop
      vertex   -2.951500e+002 3.171500e+002 -3.860000e+001
      vertex   -2.951500e+002 3.151500e+002 -4.860000e+001
      vertex   -2.951500e+002 3.171500e+002 -4.660000e+001
    endloop
  endfacet
  facet normal 0.000000e+000 1.000000e+000 0.000000e+000
    outer loop
      vertex   -2.951500e+002 3.428500e+002 4.990000e+001
      vertex   -2.951500e+002 3.428500e+002 5.650000e+000
      vertex   -2.998500e+002 3.428500e+002 4.990000e+001
    endloop
  endfacet
  facet normal 0.000000e+000 1.056208e-001 0.000000e+000
    outer loop
      vertex   -2.998500e+002 3.428500e+002 4.990000e+001
      vertex   -2.951500e+002 3.428500e+002 5.650000e+000
      vertex   -2.998500e+002 3.428500e+002 5.650000e+000
    endloop
  endfacet
  facet normal -0.000000e+000 9.944065e-001 0.000000e+000
    outer loop
      vertex   -2.998500e+002 3.428500e+002 5.650000e+000
      vertex   -2.951500e+002 3.428500e+002 5.650000e+000
      vertex   -2.951500e+002 3.428500e+002 -3.860000e+001
    endloop
  endfacet
  facet normal 0.000000e+000 1.056208e-001 0.000000e+000
    outer loop
      vertex   -2.998500e+002 3.428500e+002 5.650000e+000
      vertex   -2.951500e+002 3.428500e+002 -3.860000e+001
      vertex   -2.998500e+002 3.428500e+002 -3.860000e+001
    endloop
  endfacet
endsolid
